ISO-10303-21;
HEADER;
/* Generated by software containing ST-Developer
 * from STEP Tools, Inc. (www.steptools.com) 
 */

FILE_DESCRIPTION(
/* description */ (''),
/* implementation_level */ '2;1');

FILE_NAME(
/* name */ 'body3.step',
/* time_stamp */ '2026-08-25T23:42:06+03:00',
/* author */ (''),
/* organization */ (''),
/* preprocessor_version */ 'ST-DEVELOPER v20.1',
/* originating_system */ 'Autodesk Translation Framework v15.8.0.0',
/* authorisation */ '');

FILE_SCHEMA (('AUTOMOTIVE_DESIGN { 1 0 10303 214 3 1 1 }'));
ENDSEC;

DATA;
#10=MECHANICAL_DESIGN_GEOMETRIC_PRESENTATION_REPRESENTATION('',(#13),#726);
#11=SHAPE_REPRESENTATION_RELATIONSHIP('SRR','None',#733,#12);
#12=ADVANCED_BREP_SHAPE_REPRESENTATION('',(#14),#725);
#13=STYLED_ITEM('',(#742),#14);
#14=MANIFOLD_SOLID_BREP('Body3',#445);
#15=CYLINDRICAL_SURFACE('',#476,1.45);
#16=CYLINDRICAL_SURFACE('',#478,1.45);
#17=CYLINDRICAL_SURFACE('',#480,1.45);
#18=CYLINDRICAL_SURFACE('',#482,1.45);
#19=FACE_BOUND('',#70,.T.);
#20=FACE_BOUND('',#71,.T.);
#21=FACE_BOUND('',#72,.T.);
#22=FACE_BOUND('',#73,.T.);
#23=FACE_BOUND('',#83,.T.);
#24=FACE_BOUND('',#84,.T.);
#25=FACE_BOUND('',#85,.T.);
#26=FACE_BOUND('',#86,.T.);
#27=CIRCLE('',#472,1.45);
#28=CIRCLE('',#473,1.45);
#29=CIRCLE('',#474,1.45);
#30=CIRCLE('',#475,1.45);
#31=CIRCLE('',#477,1.45);
#32=CIRCLE('',#479,1.45);
#33=CIRCLE('',#481,1.45);
#34=CIRCLE('',#483,1.45);
#35=FACE_OUTER_BOUND('',#57,.T.);
#36=FACE_OUTER_BOUND('',#58,.T.);
#37=FACE_OUTER_BOUND('',#59,.T.);
#38=FACE_OUTER_BOUND('',#60,.T.);
#39=FACE_OUTER_BOUND('',#61,.T.);
#40=FACE_OUTER_BOUND('',#62,.T.);
#41=FACE_OUTER_BOUND('',#63,.T.);
#42=FACE_OUTER_BOUND('',#64,.T.);
#43=FACE_OUTER_BOUND('',#65,.T.);
#44=FACE_OUTER_BOUND('',#66,.T.);
#45=FACE_OUTER_BOUND('',#67,.T.);
#46=FACE_OUTER_BOUND('',#68,.T.);
#47=FACE_OUTER_BOUND('',#69,.T.);
#48=FACE_OUTER_BOUND('',#74,.T.);
#49=FACE_OUTER_BOUND('',#75,.T.);
#50=FACE_OUTER_BOUND('',#76,.T.);
#51=FACE_OUTER_BOUND('',#77,.T.);
#52=FACE_OUTER_BOUND('',#78,.T.);
#53=FACE_OUTER_BOUND('',#79,.T.);
#54=FACE_OUTER_BOUND('',#80,.T.);
#55=FACE_OUTER_BOUND('',#81,.T.);
#56=FACE_OUTER_BOUND('',#82,.T.);
#57=EDGE_LOOP('',(#287,#288,#289,#290));
#58=EDGE_LOOP('',(#291,#292,#293,#294,#295,#296));
#59=EDGE_LOOP('',(#297,#298,#299,#300));
#60=EDGE_LOOP('',(#301,#302,#303,#304));
#61=EDGE_LOOP('',(#305,#306,#307,#308,#309));
#62=EDGE_LOOP('',(#310,#311,#312,#313));
#63=EDGE_LOOP('',(#314,#315,#316,#317));
#64=EDGE_LOOP('',(#318,#319,#320,#321,#322,#323,#324));
#65=EDGE_LOOP('',(#325,#326,#327,#328,#329,#330,#331,#332));
#66=EDGE_LOOP('',(#333,#334,#335,#336));
#67=EDGE_LOOP('',(#337,#338,#339,#340));
#68=EDGE_LOOP('',(#341,#342,#343,#344));
#69=EDGE_LOOP('',(#345,#346,#347,#348,#349,#350,#351,#352,#353,#354,#355,
#356));
#70=EDGE_LOOP('',(#357));
#71=EDGE_LOOP('',(#358));
#72=EDGE_LOOP('',(#359));
#73=EDGE_LOOP('',(#360));
#74=EDGE_LOOP('',(#361,#362,#363,#364));
#75=EDGE_LOOP('',(#365,#366,#367,#368));
#76=EDGE_LOOP('',(#369,#370,#371,#372));
#77=EDGE_LOOP('',(#373,#374,#375,#376));
#78=EDGE_LOOP('',(#377,#378,#379,#380));
#79=EDGE_LOOP('',(#381,#382,#383,#384));
#80=EDGE_LOOP('',(#385,#386,#387,#388));
#81=EDGE_LOOP('',(#389,#390,#391,#392,#393,#394,#395,#396));
#82=EDGE_LOOP('',(#397,#398,#399,#400));
#83=EDGE_LOOP('',(#401));
#84=EDGE_LOOP('',(#402));
#85=EDGE_LOOP('',(#403));
#86=EDGE_LOOP('',(#404));
#87=LINE('',#606,#138);
#88=LINE('',#608,#139);
#89=LINE('',#610,#140);
#90=LINE('',#611,#141);
#91=LINE('',#614,#142);
#92=LINE('',#616,#143);
#93=LINE('',#618,#144);
#94=LINE('',#620,#145);
#95=LINE('',#621,#146);
#96=LINE('',#625,#147);
#97=LINE('',#627,#148);
#98=LINE('',#629,#149);
#99=LINE('',#630,#150);
#100=LINE('',#633,#151);
#101=LINE('',#635,#152);
#102=LINE('',#636,#153);
#103=LINE('',#640,#154);
#104=LINE('',#641,#155);
#105=LINE('',#643,#156);
#106=LINE('',#644,#157);
#107=LINE('',#647,#158);
#108=LINE('',#649,#159);
#109=LINE('',#650,#160);
#110=LINE('',#653,#161);
#111=LINE('',#655,#162);
#112=LINE('',#656,#163);
#113=LINE('',#658,#164);
#114=LINE('',#660,#165);
#115=LINE('',#661,#166);
#116=LINE('',#664,#167);
#117=LINE('',#666,#168);
#118=LINE('',#668,#169);
#119=LINE('',#670,#170);
#120=LINE('',#672,#171);
#121=LINE('',#673,#172);
#122=LINE('',#675,#173);
#123=LINE('',#676,#174);
#124=LINE('',#678,#175);
#125=LINE('',#680,#176);
#126=LINE('',#683,#177);
#127=LINE('',#685,#178);
#128=LINE('',#686,#179);
#129=LINE('',#697,#180);
#130=LINE('',#701,#181);
#131=LINE('',#705,#182);
#132=LINE('',#709,#183);
#133=LINE('',#713,#184);
#134=LINE('',#714,#185);
#135=LINE('',#717,#186);
#136=LINE('',#718,#187);
#137=LINE('',#720,#188);
#138=VECTOR('',#493,10.);
#139=VECTOR('',#494,10.);
#140=VECTOR('',#495,10.);
#141=VECTOR('',#496,10.);
#142=VECTOR('',#499,10.);
#143=VECTOR('',#500,10.);
#144=VECTOR('',#501,10.);
#145=VECTOR('',#502,10.);
#146=VECTOR('',#503,10.);
#147=VECTOR('',#506,10.);
#148=VECTOR('',#507,10.);
#149=VECTOR('',#508,10.);
#150=VECTOR('',#509,10.);
#151=VECTOR('',#512,10.);
#152=VECTOR('',#513,10.);
#153=VECTOR('',#514,10.);
#154=VECTOR('',#517,10.);
#155=VECTOR('',#518,10.);
#156=VECTOR('',#519,10.);
#157=VECTOR('',#520,10.);
#158=VECTOR('',#523,10.);
#159=VECTOR('',#524,10.);
#160=VECTOR('',#525,10.);
#161=VECTOR('',#528,10.);
#162=VECTOR('',#529,10.);
#163=VECTOR('',#530,10.);
#164=VECTOR('',#533,10.);
#165=VECTOR('',#534,10.);
#166=VECTOR('',#535,10.);
#167=VECTOR('',#538,10.);
#168=VECTOR('',#539,10.);
#169=VECTOR('',#540,10.);
#170=VECTOR('',#541,10.);
#171=VECTOR('',#542,10.);
#172=VECTOR('',#543,10.);
#173=VECTOR('',#546,10.);
#174=VECTOR('',#547,10.);
#175=VECTOR('',#550,10.);
#176=VECTOR('',#553,10.);
#177=VECTOR('',#556,10.);
#178=VECTOR('',#557,10.);
#179=VECTOR('',#558,10.);
#180=VECTOR('',#569,1.45);
#181=VECTOR('',#574,1.45);
#182=VECTOR('',#579,1.45);
#183=VECTOR('',#584,1.45);
#184=VECTOR('',#589,10.);
#185=VECTOR('',#590,10.);
#186=VECTOR('',#593,10.);
#187=VECTOR('',#594,10.);
#188=VECTOR('',#597,10.);
#189=VERTEX_POINT('',#604);
#190=VERTEX_POINT('',#605);
#191=VERTEX_POINT('',#607);
#192=VERTEX_POINT('',#609);
#193=VERTEX_POINT('',#613);
#194=VERTEX_POINT('',#615);
#195=VERTEX_POINT('',#617);
#196=VERTEX_POINT('',#619);
#197=VERTEX_POINT('',#623);
#198=VERTEX_POINT('',#624);
#199=VERTEX_POINT('',#626);
#200=VERTEX_POINT('',#628);
#201=VERTEX_POINT('',#632);
#202=VERTEX_POINT('',#634);
#203=VERTEX_POINT('',#638);
#204=VERTEX_POINT('',#639);
#205=VERTEX_POINT('',#642);
#206=VERTEX_POINT('',#646);
#207=VERTEX_POINT('',#648);
#208=VERTEX_POINT('',#652);
#209=VERTEX_POINT('',#654);
#210=VERTEX_POINT('',#659);
#211=VERTEX_POINT('',#663);
#212=VERTEX_POINT('',#665);
#213=VERTEX_POINT('',#667);
#214=VERTEX_POINT('',#669);
#215=VERTEX_POINT('',#671);
#216=VERTEX_POINT('',#682);
#217=VERTEX_POINT('',#684);
#218=VERTEX_POINT('',#687);
#219=VERTEX_POINT('',#689);
#220=VERTEX_POINT('',#691);
#221=VERTEX_POINT('',#693);
#222=VERTEX_POINT('',#696);
#223=VERTEX_POINT('',#700);
#224=VERTEX_POINT('',#704);
#225=VERTEX_POINT('',#708);
#226=VERTEX_POINT('',#712);
#227=VERTEX_POINT('',#716);
#228=EDGE_CURVE('',#189,#190,#87,.T.);
#229=EDGE_CURVE('',#191,#189,#88,.T.);
#230=EDGE_CURVE('',#192,#191,#89,.T.);
#231=EDGE_CURVE('',#192,#190,#90,.T.);
#232=EDGE_CURVE('',#190,#193,#91,.T.);
#233=EDGE_CURVE('',#194,#192,#92,.T.);
#234=EDGE_CURVE('',#194,#195,#93,.T.);
#235=EDGE_CURVE('',#196,#195,#94,.T.);
#236=EDGE_CURVE('',#193,#196,#95,.T.);
#237=EDGE_CURVE('',#197,#198,#96,.T.);
#238=EDGE_CURVE('',#199,#198,#97,.T.);
#239=EDGE_CURVE('',#199,#200,#98,.T.);
#240=EDGE_CURVE('',#200,#197,#99,.T.);
#241=EDGE_CURVE('',#195,#201,#100,.T.);
#242=EDGE_CURVE('',#202,#194,#101,.T.);
#243=EDGE_CURVE('',#202,#201,#102,.T.);
#244=EDGE_CURVE('',#203,#204,#103,.T.);
#245=EDGE_CURVE('',#197,#203,#104,.T.);
#246=EDGE_CURVE('',#200,#205,#105,.T.);
#247=EDGE_CURVE('',#205,#204,#106,.T.);
#248=EDGE_CURVE('',#204,#206,#107,.T.);
#249=EDGE_CURVE('',#205,#207,#108,.T.);
#250=EDGE_CURVE('',#207,#206,#109,.T.);
#251=EDGE_CURVE('',#208,#196,#110,.T.);
#252=EDGE_CURVE('',#209,#208,#111,.T.);
#253=EDGE_CURVE('',#193,#209,#112,.T.);
#254=EDGE_CURVE('',#198,#201,#113,.T.);
#255=EDGE_CURVE('',#210,#197,#114,.T.);
#256=EDGE_CURVE('',#208,#210,#115,.T.);
#257=EDGE_CURVE('',#210,#211,#116,.T.);
#258=EDGE_CURVE('',#212,#211,#117,.T.);
#259=EDGE_CURVE('',#213,#212,#118,.T.);
#260=EDGE_CURVE('',#214,#213,#119,.T.);
#261=EDGE_CURVE('',#214,#215,#120,.T.);
#262=EDGE_CURVE('',#209,#215,#121,.T.);
#263=EDGE_CURVE('',#191,#207,#122,.T.);
#264=EDGE_CURVE('',#206,#189,#123,.T.);
#265=EDGE_CURVE('',#211,#203,#124,.T.);
#266=EDGE_CURVE('',#199,#202,#125,.T.);
#267=EDGE_CURVE('',#215,#216,#126,.T.);
#268=EDGE_CURVE('',#216,#217,#127,.T.);
#269=EDGE_CURVE('',#217,#212,#128,.T.);
#270=EDGE_CURVE('',#218,#218,#27,.T.);
#271=EDGE_CURVE('',#219,#219,#28,.T.);
#272=EDGE_CURVE('',#220,#220,#29,.T.);
#273=EDGE_CURVE('',#221,#221,#30,.T.);
#274=EDGE_CURVE('',#219,#222,#129,.T.);
#275=EDGE_CURVE('',#222,#222,#31,.T.);
#276=EDGE_CURVE('',#218,#223,#130,.T.);
#277=EDGE_CURVE('',#223,#223,#32,.T.);
#278=EDGE_CURVE('',#220,#224,#131,.T.);
#279=EDGE_CURVE('',#224,#224,#33,.T.);
#280=EDGE_CURVE('',#221,#225,#132,.T.);
#281=EDGE_CURVE('',#225,#225,#34,.T.);
#282=EDGE_CURVE('',#213,#226,#133,.T.);
#283=EDGE_CURVE('',#226,#217,#134,.T.);
#284=EDGE_CURVE('',#226,#227,#135,.T.);
#285=EDGE_CURVE('',#227,#216,#136,.T.);
#286=EDGE_CURVE('',#227,#214,#137,.T.);
#287=ORIENTED_EDGE('',*,*,#228,.F.);
#288=ORIENTED_EDGE('',*,*,#229,.F.);
#289=ORIENTED_EDGE('',*,*,#230,.F.);
#290=ORIENTED_EDGE('',*,*,#231,.T.);
#291=ORIENTED_EDGE('',*,*,#232,.F.);
#292=ORIENTED_EDGE('',*,*,#231,.F.);
#293=ORIENTED_EDGE('',*,*,#233,.F.);
#294=ORIENTED_EDGE('',*,*,#234,.T.);
#295=ORIENTED_EDGE('',*,*,#235,.F.);
#296=ORIENTED_EDGE('',*,*,#236,.F.);
#297=ORIENTED_EDGE('',*,*,#237,.T.);
#298=ORIENTED_EDGE('',*,*,#238,.F.);
#299=ORIENTED_EDGE('',*,*,#239,.T.);
#300=ORIENTED_EDGE('',*,*,#240,.T.);
#301=ORIENTED_EDGE('',*,*,#241,.F.);
#302=ORIENTED_EDGE('',*,*,#234,.F.);
#303=ORIENTED_EDGE('',*,*,#242,.F.);
#304=ORIENTED_EDGE('',*,*,#243,.T.);
#305=ORIENTED_EDGE('',*,*,#244,.F.);
#306=ORIENTED_EDGE('',*,*,#245,.F.);
#307=ORIENTED_EDGE('',*,*,#240,.F.);
#308=ORIENTED_EDGE('',*,*,#246,.T.);
#309=ORIENTED_EDGE('',*,*,#247,.T.);
#310=ORIENTED_EDGE('',*,*,#248,.F.);
#311=ORIENTED_EDGE('',*,*,#247,.F.);
#312=ORIENTED_EDGE('',*,*,#249,.T.);
#313=ORIENTED_EDGE('',*,*,#250,.T.);
#314=ORIENTED_EDGE('',*,*,#236,.T.);
#315=ORIENTED_EDGE('',*,*,#251,.F.);
#316=ORIENTED_EDGE('',*,*,#252,.F.);
#317=ORIENTED_EDGE('',*,*,#253,.F.);
#318=ORIENTED_EDGE('',*,*,#235,.T.);
#319=ORIENTED_EDGE('',*,*,#241,.T.);
#320=ORIENTED_EDGE('',*,*,#254,.F.);
#321=ORIENTED_EDGE('',*,*,#237,.F.);
#322=ORIENTED_EDGE('',*,*,#255,.F.);
#323=ORIENTED_EDGE('',*,*,#256,.F.);
#324=ORIENTED_EDGE('',*,*,#251,.T.);
#325=ORIENTED_EDGE('',*,*,#252,.T.);
#326=ORIENTED_EDGE('',*,*,#256,.T.);
#327=ORIENTED_EDGE('',*,*,#257,.T.);
#328=ORIENTED_EDGE('',*,*,#258,.F.);
#329=ORIENTED_EDGE('',*,*,#259,.F.);
#330=ORIENTED_EDGE('',*,*,#260,.F.);
#331=ORIENTED_EDGE('',*,*,#261,.T.);
#332=ORIENTED_EDGE('',*,*,#262,.F.);
#333=ORIENTED_EDGE('',*,*,#263,.F.);
#334=ORIENTED_EDGE('',*,*,#229,.T.);
#335=ORIENTED_EDGE('',*,*,#264,.F.);
#336=ORIENTED_EDGE('',*,*,#250,.F.);
#337=ORIENTED_EDGE('',*,*,#245,.T.);
#338=ORIENTED_EDGE('',*,*,#265,.F.);
#339=ORIENTED_EDGE('',*,*,#257,.F.);
#340=ORIENTED_EDGE('',*,*,#255,.T.);
#341=ORIENTED_EDGE('',*,*,#254,.T.);
#342=ORIENTED_EDGE('',*,*,#243,.F.);
#343=ORIENTED_EDGE('',*,*,#266,.F.);
#344=ORIENTED_EDGE('',*,*,#238,.T.);
#345=ORIENTED_EDGE('',*,*,#264,.T.);
#346=ORIENTED_EDGE('',*,*,#228,.T.);
#347=ORIENTED_EDGE('',*,*,#232,.T.);
#348=ORIENTED_EDGE('',*,*,#253,.T.);
#349=ORIENTED_EDGE('',*,*,#262,.T.);
#350=ORIENTED_EDGE('',*,*,#267,.T.);
#351=ORIENTED_EDGE('',*,*,#268,.T.);
#352=ORIENTED_EDGE('',*,*,#269,.T.);
#353=ORIENTED_EDGE('',*,*,#258,.T.);
#354=ORIENTED_EDGE('',*,*,#265,.T.);
#355=ORIENTED_EDGE('',*,*,#244,.T.);
#356=ORIENTED_EDGE('',*,*,#248,.T.);
#357=ORIENTED_EDGE('',*,*,#270,.T.);
#358=ORIENTED_EDGE('',*,*,#271,.T.);
#359=ORIENTED_EDGE('',*,*,#272,.T.);
#360=ORIENTED_EDGE('',*,*,#273,.T.);
#361=ORIENTED_EDGE('',*,*,#271,.F.);
#362=ORIENTED_EDGE('',*,*,#274,.T.);
#363=ORIENTED_EDGE('',*,*,#275,.T.);
#364=ORIENTED_EDGE('',*,*,#274,.F.);
#365=ORIENTED_EDGE('',*,*,#270,.F.);
#366=ORIENTED_EDGE('',*,*,#276,.T.);
#367=ORIENTED_EDGE('',*,*,#277,.T.);
#368=ORIENTED_EDGE('',*,*,#276,.F.);
#369=ORIENTED_EDGE('',*,*,#272,.F.);
#370=ORIENTED_EDGE('',*,*,#278,.T.);
#371=ORIENTED_EDGE('',*,*,#279,.T.);
#372=ORIENTED_EDGE('',*,*,#278,.F.);
#373=ORIENTED_EDGE('',*,*,#273,.F.);
#374=ORIENTED_EDGE('',*,*,#280,.T.);
#375=ORIENTED_EDGE('',*,*,#281,.T.);
#376=ORIENTED_EDGE('',*,*,#280,.F.);
#377=ORIENTED_EDGE('',*,*,#282,.F.);
#378=ORIENTED_EDGE('',*,*,#259,.T.);
#379=ORIENTED_EDGE('',*,*,#269,.F.);
#380=ORIENTED_EDGE('',*,*,#283,.F.);
#381=ORIENTED_EDGE('',*,*,#284,.F.);
#382=ORIENTED_EDGE('',*,*,#283,.T.);
#383=ORIENTED_EDGE('',*,*,#268,.F.);
#384=ORIENTED_EDGE('',*,*,#285,.F.);
#385=ORIENTED_EDGE('',*,*,#286,.F.);
#386=ORIENTED_EDGE('',*,*,#285,.T.);
#387=ORIENTED_EDGE('',*,*,#267,.F.);
#388=ORIENTED_EDGE('',*,*,#261,.F.);
#389=ORIENTED_EDGE('',*,*,#263,.T.);
#390=ORIENTED_EDGE('',*,*,#249,.F.);
#391=ORIENTED_EDGE('',*,*,#246,.F.);
#392=ORIENTED_EDGE('',*,*,#239,.F.);
#393=ORIENTED_EDGE('',*,*,#266,.T.);
#394=ORIENTED_EDGE('',*,*,#242,.T.);
#395=ORIENTED_EDGE('',*,*,#233,.T.);
#396=ORIENTED_EDGE('',*,*,#230,.T.);
#397=ORIENTED_EDGE('',*,*,#286,.T.);
#398=ORIENTED_EDGE('',*,*,#260,.T.);
#399=ORIENTED_EDGE('',*,*,#282,.T.);
#400=ORIENTED_EDGE('',*,*,#284,.T.);
#401=ORIENTED_EDGE('',*,*,#281,.F.);
#402=ORIENTED_EDGE('',*,*,#279,.F.);
#403=ORIENTED_EDGE('',*,*,#277,.F.);
#404=ORIENTED_EDGE('',*,*,#275,.F.);
#405=PLANE('',#459);
#406=PLANE('',#460);
#407=PLANE('',#461);
#408=PLANE('',#462);
#409=PLANE('',#463);
#410=PLANE('',#464);
#411=PLANE('',#465);
#412=PLANE('',#466);
#413=PLANE('',#467);
#414=PLANE('',#468);
#415=PLANE('',#469);
#416=PLANE('',#470);
#417=PLANE('',#471);
#418=PLANE('',#484);
#419=PLANE('',#485);
#420=PLANE('',#486);
#421=PLANE('',#487);
#422=PLANE('',#488);
#423=ADVANCED_FACE('',(#35),#405,.F.);
#424=ADVANCED_FACE('',(#36),#406,.F.);
#425=ADVANCED_FACE('',(#37),#407,.F.);
#426=ADVANCED_FACE('',(#38),#408,.F.);
#427=ADVANCED_FACE('',(#39),#409,.F.);
#428=ADVANCED_FACE('',(#40),#410,.F.);
#429=ADVANCED_FACE('',(#41),#411,.F.);
#430=ADVANCED_FACE('',(#42),#412,.F.);
#431=ADVANCED_FACE('',(#43),#413,.T.);
#432=ADVANCED_FACE('',(#44),#414,.T.);
#433=ADVANCED_FACE('',(#45),#415,.T.);
#434=ADVANCED_FACE('',(#46),#416,.T.);
#435=ADVANCED_FACE('',(#47,#19,#20,#21,#22),#417,.T.);
#436=ADVANCED_FACE('',(#48),#15,.F.);
#437=ADVANCED_FACE('',(#49),#16,.F.);
#438=ADVANCED_FACE('',(#50),#17,.F.);
#439=ADVANCED_FACE('',(#51),#18,.F.);
#440=ADVANCED_FACE('',(#52),#418,.T.);
#441=ADVANCED_FACE('',(#53),#419,.T.);
#442=ADVANCED_FACE('',(#54),#420,.T.);
#443=ADVANCED_FACE('',(#55),#421,.T.);
#444=ADVANCED_FACE('',(#56,#23,#24,#25,#26),#422,.F.);
#445=CLOSED_SHELL('',(#423,#424,#425,#426,#427,#428,#429,#430,#431,#432,
#433,#434,#435,#436,#437,#438,#439,#440,#441,#442,#443,#444));
#446=DERIVED_UNIT_ELEMENT(#448,1.);
#447=DERIVED_UNIT_ELEMENT(#728,-3.);
#448=(
MASS_UNIT()
NAMED_UNIT(*)
SI_UNIT(.KILO.,.GRAM.)
);
#449=DERIVED_UNIT((#446,#447));
#450=MEASURE_REPRESENTATION_ITEM('density measure',
POSITIVE_RATIO_MEASURE(7850.),#449);
#451=PROPERTY_DEFINITION_REPRESENTATION(#456,#453);
#452=PROPERTY_DEFINITION_REPRESENTATION(#457,#454);
#453=REPRESENTATION('material name',(#455),#725);
#454=REPRESENTATION('density',(#450),#725);
#455=DESCRIPTIVE_REPRESENTATION_ITEM('Steel','Steel');
#456=PROPERTY_DEFINITION('material property','material name',#735);
#457=PROPERTY_DEFINITION('material property','density of part',#735);
#458=AXIS2_PLACEMENT_3D('',#602,#489,#490);
#459=AXIS2_PLACEMENT_3D('',#603,#491,#492);
#460=AXIS2_PLACEMENT_3D('',#612,#497,#498);
#461=AXIS2_PLACEMENT_3D('',#622,#504,#505);
#462=AXIS2_PLACEMENT_3D('',#631,#510,#511);
#463=AXIS2_PLACEMENT_3D('',#637,#515,#516);
#464=AXIS2_PLACEMENT_3D('',#645,#521,#522);
#465=AXIS2_PLACEMENT_3D('',#651,#526,#527);
#466=AXIS2_PLACEMENT_3D('',#657,#531,#532);
#467=AXIS2_PLACEMENT_3D('',#662,#536,#537);
#468=AXIS2_PLACEMENT_3D('',#674,#544,#545);
#469=AXIS2_PLACEMENT_3D('',#677,#548,#549);
#470=AXIS2_PLACEMENT_3D('',#679,#551,#552);
#471=AXIS2_PLACEMENT_3D('',#681,#554,#555);
#472=AXIS2_PLACEMENT_3D('',#688,#559,#560);
#473=AXIS2_PLACEMENT_3D('',#690,#561,#562);
#474=AXIS2_PLACEMENT_3D('',#692,#563,#564);
#475=AXIS2_PLACEMENT_3D('',#694,#565,#566);
#476=AXIS2_PLACEMENT_3D('',#695,#567,#568);
#477=AXIS2_PLACEMENT_3D('',#698,#570,#571);
#478=AXIS2_PLACEMENT_3D('',#699,#572,#573);
#479=AXIS2_PLACEMENT_3D('',#702,#575,#576);
#480=AXIS2_PLACEMENT_3D('',#703,#577,#578);
#481=AXIS2_PLACEMENT_3D('',#706,#580,#581);
#482=AXIS2_PLACEMENT_3D('',#707,#582,#583);
#483=AXIS2_PLACEMENT_3D('',#710,#585,#586);
#484=AXIS2_PLACEMENT_3D('',#711,#587,#588);
#485=AXIS2_PLACEMENT_3D('',#715,#591,#592);
#486=AXIS2_PLACEMENT_3D('',#719,#595,#596);
#487=AXIS2_PLACEMENT_3D('',#721,#598,#599);
#488=AXIS2_PLACEMENT_3D('',#722,#600,#601);
#489=DIRECTION('axis',(0.,0.,1.));
#490=DIRECTION('refdir',(1.,0.,0.));
#491=DIRECTION('center_axis',(0.,-1.,0.));
#492=DIRECTION('ref_axis',(1.,0.,0.));
#493=DIRECTION('',(-1.,0.,0.));
#494=DIRECTION('',(0.,0.,1.));
#495=DIRECTION('',(1.,0.,0.));
#496=DIRECTION('',(0.,0.,1.));
#497=DIRECTION('center_axis',(-1.,0.,0.));
#498=DIRECTION('ref_axis',(0.,-1.,0.));
#499=DIRECTION('',(0.,1.,0.));
#500=DIRECTION('',(0.,-1.,0.));
#501=DIRECTION('',(0.,0.,1.));
#502=DIRECTION('',(0.,1.,0.));
#503=DIRECTION('',(0.,0.,-1.));
#504=DIRECTION('center_axis',(0.,-1.,0.));
#505=DIRECTION('ref_axis',(1.,0.,0.));
#506=DIRECTION('',(1.,0.,0.));
#507=DIRECTION('',(0.,0.,1.));
#508=DIRECTION('',(-1.,0.,0.));
#509=DIRECTION('',(0.,0.,1.));
#510=DIRECTION('center_axis',(0.,1.,0.));
#511=DIRECTION('ref_axis',(-1.,0.,0.));
#512=DIRECTION('',(1.,0.,0.));
#513=DIRECTION('',(-1.,0.,0.));
#514=DIRECTION('',(0.,0.,1.));
#515=DIRECTION('center_axis',(-1.,0.,0.));
#516=DIRECTION('ref_axis',(0.,-1.,0.));
#517=DIRECTION('',(0.,1.,0.));
#518=DIRECTION('',(0.,0.,1.));
#519=DIRECTION('',(0.,1.,0.));
#520=DIRECTION('',(0.,0.,1.));
#521=DIRECTION('center_axis',(0.,1.,0.));
#522=DIRECTION('ref_axis',(-1.,0.,0.));
#523=DIRECTION('',(1.,0.,0.));
#524=DIRECTION('',(1.,0.,0.));
#525=DIRECTION('',(0.,0.,1.));
#526=DIRECTION('center_axis',(0.,-1.,0.));
#527=DIRECTION('ref_axis',(0.,0.,-1.));
#528=DIRECTION('',(1.,0.,0.));
#529=DIRECTION('',(0.,0.,-1.));
#530=DIRECTION('',(-1.,0.,0.));
#531=DIRECTION('center_axis',(0.,0.,-1.));
#532=DIRECTION('ref_axis',(0.,1.,0.));
#533=DIRECTION('',(0.,-1.,0.));
#534=DIRECTION('',(1.,0.,0.));
#535=DIRECTION('',(0.,1.,0.));
#536=DIRECTION('center_axis',(-1.,0.,0.));
#537=DIRECTION('ref_axis',(0.,-1.,0.));
#538=DIRECTION('',(0.,0.,1.));
#539=DIRECTION('',(0.,-1.,0.));
#540=DIRECTION('',(0.,0.,1.));
#541=DIRECTION('',(0.,1.,0.));
#542=DIRECTION('',(0.,0.,1.));
#543=DIRECTION('',(0.,-1.,0.));
#544=DIRECTION('center_axis',(-1.,0.,0.));
#545=DIRECTION('ref_axis',(0.,-1.,0.));
#546=DIRECTION('',(0.,1.,0.));
#547=DIRECTION('',(0.,-1.,0.));
#548=DIRECTION('center_axis',(0.,-1.,0.));
#549=DIRECTION('ref_axis',(1.,0.,0.));
#550=DIRECTION('',(1.,0.,0.));
#551=DIRECTION('center_axis',(1.,0.,0.));
#552=DIRECTION('ref_axis',(0.,1.,0.));
#553=DIRECTION('',(0.,-1.,0.));
#554=DIRECTION('center_axis',(0.,0.,1.));
#555=DIRECTION('ref_axis',(-1.,0.,0.));
#556=DIRECTION('',(1.,0.,0.));
#557=DIRECTION('',(0.,1.,0.));
#558=DIRECTION('',(-1.,0.,0.));
#559=DIRECTION('center_axis',(0.,0.,-1.));
#560=DIRECTION('ref_axis',(-1.,0.,0.));
#561=DIRECTION('center_axis',(0.,0.,-1.));
#562=DIRECTION('ref_axis',(-1.,0.,0.));
#563=DIRECTION('center_axis',(0.,0.,-1.));
#564=DIRECTION('ref_axis',(-1.,0.,0.));
#565=DIRECTION('center_axis',(0.,0.,-1.));
#566=DIRECTION('ref_axis',(-1.,0.,0.));
#567=DIRECTION('center_axis',(0.,0.,1.));
#568=DIRECTION('ref_axis',(1.,0.,0.));
#569=DIRECTION('',(0.,0.,-1.));
#570=DIRECTION('center_axis',(0.,0.,-1.));
#571=DIRECTION('ref_axis',(1.,0.,0.));
#572=DIRECTION('center_axis',(0.,0.,1.));
#573=DIRECTION('ref_axis',(1.,0.,0.));
#574=DIRECTION('',(0.,0.,-1.));
#575=DIRECTION('center_axis',(0.,0.,-1.));
#576=DIRECTION('ref_axis',(1.,0.,0.));
#577=DIRECTION('center_axis',(0.,0.,1.));
#578=DIRECTION('ref_axis',(1.,0.,0.));
#579=DIRECTION('',(0.,0.,-1.));
#580=DIRECTION('center_axis',(0.,0.,-1.));
#581=DIRECTION('ref_axis',(1.,0.,0.));
#582=DIRECTION('center_axis',(0.,0.,1.));
#583=DIRECTION('ref_axis',(1.,0.,0.));
#584=DIRECTION('',(0.,0.,-1.));
#585=DIRECTION('center_axis',(0.,0.,-1.));
#586=DIRECTION('ref_axis',(1.,0.,0.));
#587=DIRECTION('center_axis',(0.,1.,0.));
#588=DIRECTION('ref_axis',(-1.,0.,0.));
#589=DIRECTION('',(1.,0.,0.));
#590=DIRECTION('',(0.,0.,1.));
#591=DIRECTION('center_axis',(1.,0.,0.));
#592=DIRECTION('ref_axis',(0.,1.,0.));
#593=DIRECTION('',(0.,-1.,0.));
#594=DIRECTION('',(0.,0.,1.));
#595=DIRECTION('center_axis',(0.,-1.,0.));
#596=DIRECTION('ref_axis',(1.,0.,0.));
#597=DIRECTION('',(-1.,0.,0.));
#598=DIRECTION('center_axis',(0.,0.,1.));
#599=DIRECTION('ref_axis',(1.,0.,0.));
#600=DIRECTION('center_axis',(0.,0.,1.));
#601=DIRECTION('ref_axis',(1.,0.,0.));
#602=CARTESIAN_POINT('',(0.,0.,0.));
#603=CARTESIAN_POINT('Origin',(-0.350000000000001,-20.5,3.));
#604=CARTESIAN_POINT('',(57.4,-20.5,13.));
#605=CARTESIAN_POINT('',(-0.350000000000001,-20.5,13.));
#606=CARTESIAN_POINT('',(14.175,-20.5,13.));
#607=CARTESIAN_POINT('',(57.4,-20.5,3.));
#608=CARTESIAN_POINT('',(57.4,-20.5,3.));
#609=CARTESIAN_POINT('',(-0.350000000000001,-20.5,3.));
#610=CARTESIAN_POINT('',(-0.350000000000001,-20.5,3.));
#611=CARTESIAN_POINT('',(-0.350000000000001,-20.5,3.));
#612=CARTESIAN_POINT('Origin',(-0.350000000000001,-19.,3.));
#613=CARTESIAN_POINT('',(-0.350000000000001,-20.0000002980232,13.));
#614=CARTESIAN_POINT('',(-0.350000000000001,-14.25,13.));
#615=CARTESIAN_POINT('',(-0.350000000000001,-19.,3.));
#616=CARTESIAN_POINT('',(-0.350000000000001,-19.,3.));
#617=CARTESIAN_POINT('',(-0.350000000000001,-19.,6.00000008940697));
#618=CARTESIAN_POINT('',(-0.350000000000001,-19.,3.));
#619=CARTESIAN_POINT('',(-0.350000000000001,-20.0000002980232,6.00000008940697));
#620=CARTESIAN_POINT('',(-0.350000000000001,-19.5000001490116,6.00000008940697));
#621=CARTESIAN_POINT('',(-0.350000000000001,-20.0000002980232,8.00000009685755));
#622=CARTESIAN_POINT('Origin',(-0.350000000000001,0.,3.));
#623=CARTESIAN_POINT('',(-0.350000000000001,0.,6.00000008940697));
#624=CARTESIAN_POINT('',(0.,0.,6.00000008940697));
#625=CARTESIAN_POINT('',(-10.,0.,6.00000008940697));
#626=CARTESIAN_POINT('',(0.,0.,3.));
#627=CARTESIAN_POINT('',(0.,0.,3.));
#628=CARTESIAN_POINT('',(-0.350000000000001,0.,3.));
#629=CARTESIAN_POINT('',(57.4,0.,3.));
#630=CARTESIAN_POINT('',(-0.350000000000001,0.,3.));
#631=CARTESIAN_POINT('Origin',(0.,-19.,3.));
#632=CARTESIAN_POINT('',(0.,-19.,6.00000008940697));
#633=CARTESIAN_POINT('',(-5.,-19.,6.00000008940697));
#634=CARTESIAN_POINT('',(0.,-19.,3.));
#635=CARTESIAN_POINT('',(57.4,-19.,3.));
#636=CARTESIAN_POINT('',(0.,-19.,3.));
#637=CARTESIAN_POINT('Origin',(-0.350000000000001,1.75,3.));
#638=CARTESIAN_POINT('',(-0.350000000000001,0.,13.));
#639=CARTESIAN_POINT('',(-0.350000000000001,1.75,13.));
#640=CARTESIAN_POINT('',(-0.350000000000001,-3.875,13.));
#641=CARTESIAN_POINT('',(-0.350000000000001,0.,3.));
#642=CARTESIAN_POINT('',(-0.350000000000001,1.75,3.));
#643=CARTESIAN_POINT('',(-0.350000000000001,0.,3.));
#644=CARTESIAN_POINT('',(-0.350000000000001,1.75,3.));
#645=CARTESIAN_POINT('Origin',(57.4,1.75,3.));
#646=CARTESIAN_POINT('',(57.4,1.75,13.));
#647=CARTESIAN_POINT('',(43.05,1.75,13.));
#648=CARTESIAN_POINT('',(57.4,1.75,3.));
#649=CARTESIAN_POINT('',(-0.350000000000001,1.75,3.));
#650=CARTESIAN_POINT('',(57.4,1.75,3.));
#651=CARTESIAN_POINT('Origin',(-10.,-20.0000002980232,13.0000001937151));
#652=CARTESIAN_POINT('',(-10.,-20.0000002980232,6.00000008940697));
#653=CARTESIAN_POINT('',(-10.,-20.0000002980232,6.00000008940697));
#654=CARTESIAN_POINT('',(-10.,-20.0000002980232,13.0000001937151));
#655=CARTESIAN_POINT('',(-10.,-20.0000002980232,6.50000009685755));
#656=CARTESIAN_POINT('',(9.35,-20.0000002980232,13.));
#657=CARTESIAN_POINT('Origin',(-10.,-20.0000002980232,6.00000008940697));
#658=CARTESIAN_POINT('',(0.,-19.5000001490116,6.00000008940697));
#659=CARTESIAN_POINT('',(-10.,0.,6.00000008940697));
#660=CARTESIAN_POINT('',(-10.,0.,6.00000008940697));
#661=CARTESIAN_POINT('',(-10.,-5.00000014901161,6.00000008940697));
#662=CARTESIAN_POINT('Origin',(-10.,10.,0.));
#663=CARTESIAN_POINT('',(-10.,0.,13.0000001937151));
#664=CARTESIAN_POINT('',(-10.,0.,3.00000004470348));
#665=CARTESIAN_POINT('',(-10.,10.,13.));
#666=CARTESIAN_POINT('',(-10.,10.,13.));
#667=CARTESIAN_POINT('',(-10.,10.,0.));
#668=CARTESIAN_POINT('',(-10.,10.,0.));
#669=CARTESIAN_POINT('',(-10.,-29.,0.));
#670=CARTESIAN_POINT('',(-10.,-29.,0.));
#671=CARTESIAN_POINT('',(-10.,-29.,13.));
#672=CARTESIAN_POINT('',(-10.,-29.,0.));
#673=CARTESIAN_POINT('',(-10.,10.,13.));
#674=CARTESIAN_POINT('Origin',(57.4,0.,3.));
#675=CARTESIAN_POINT('',(57.4,-4.75,3.));
#676=CARTESIAN_POINT('',(57.4,-15.,13.));
#677=CARTESIAN_POINT('Origin',(0.,0.,3.));
#678=CARTESIAN_POINT('',(9.35,0.,13.));
#679=CARTESIAN_POINT('Origin',(0.,-19.,3.));
#680=CARTESIAN_POINT('',(0.,-14.25,3.));
#681=CARTESIAN_POINT('Origin',(28.7,-9.5,13.));
#682=CARTESIAN_POINT('',(67.4,-29.,13.));
#683=CARTESIAN_POINT('',(-10.,-29.,13.));
#684=CARTESIAN_POINT('',(67.4,10.,13.));
#685=CARTESIAN_POINT('',(67.4,-29.,13.));
#686=CARTESIAN_POINT('',(67.4,10.,13.));
#687=CARTESIAN_POINT('',(60.95,5.,13.));
#688=CARTESIAN_POINT('Origin',(62.4,5.,13.));
#689=CARTESIAN_POINT('',(60.95,-24.,13.));
#690=CARTESIAN_POINT('Origin',(62.4,-24.,13.));
#691=CARTESIAN_POINT('',(-6.45,-24.,13.));
#692=CARTESIAN_POINT('Origin',(-5.,-24.,13.));
#693=CARTESIAN_POINT('',(-6.45,5.,13.));
#694=CARTESIAN_POINT('Origin',(-5.,5.,13.));
#695=CARTESIAN_POINT('Origin',(62.4,-24.,0.));
#696=CARTESIAN_POINT('',(60.95,-24.,0.));
#697=CARTESIAN_POINT('',(60.95,-24.,0.));
#698=CARTESIAN_POINT('Origin',(62.4,-24.,0.));
#699=CARTESIAN_POINT('Origin',(62.4,5.,0.));
#700=CARTESIAN_POINT('',(60.95,5.,0.));
#701=CARTESIAN_POINT('',(60.95,5.,0.));
#702=CARTESIAN_POINT('Origin',(62.4,5.,0.));
#703=CARTESIAN_POINT('Origin',(-5.,-24.,0.));
#704=CARTESIAN_POINT('',(-6.45,-24.,0.));
#705=CARTESIAN_POINT('',(-6.45,-24.,0.));
#706=CARTESIAN_POINT('Origin',(-5.,-24.,0.));
#707=CARTESIAN_POINT('Origin',(-5.,5.,0.));
#708=CARTESIAN_POINT('',(-6.45,5.,0.));
#709=CARTESIAN_POINT('',(-6.45,5.,0.));
#710=CARTESIAN_POINT('Origin',(-5.,5.,0.));
#711=CARTESIAN_POINT('Origin',(67.4,10.,0.));
#712=CARTESIAN_POINT('',(67.4,10.,0.));
#713=CARTESIAN_POINT('',(-10.,10.,0.));
#714=CARTESIAN_POINT('',(67.4,10.,0.));
#715=CARTESIAN_POINT('Origin',(67.4,-29.,0.));
#716=CARTESIAN_POINT('',(67.4,-29.,0.));
#717=CARTESIAN_POINT('',(67.4,10.,0.));
#718=CARTESIAN_POINT('',(67.4,-29.,0.));
#719=CARTESIAN_POINT('Origin',(-10.,-29.,0.));
#720=CARTESIAN_POINT('',(67.4,-29.,0.));
#721=CARTESIAN_POINT('Origin',(28.7,-9.5,3.));
#722=CARTESIAN_POINT('Origin',(28.7,-9.5,0.));
#723=UNCERTAINTY_MEASURE_WITH_UNIT(LENGTH_MEASURE(0.01),#727,
'DISTANCE_ACCURACY_VALUE',
'Maximum model space distance between geometric entities at asserted c
onnectivities');
#724=UNCERTAINTY_MEASURE_WITH_UNIT(LENGTH_MEASURE(0.01),#727,
'DISTANCE_ACCURACY_VALUE',
'Maximum model space distance between geometric entities at asserted c
onnectivities');
#725=(
GEOMETRIC_REPRESENTATION_CONTEXT(3)
GLOBAL_UNCERTAINTY_ASSIGNED_CONTEXT((#723))
GLOBAL_UNIT_ASSIGNED_CONTEXT((#727,#729,#730))
REPRESENTATION_CONTEXT('','3D')
);
#726=(
GEOMETRIC_REPRESENTATION_CONTEXT(3)
GLOBAL_UNCERTAINTY_ASSIGNED_CONTEXT((#724))
GLOBAL_UNIT_ASSIGNED_CONTEXT((#727,#729,#730))
REPRESENTATION_CONTEXT('','3D')
);
#727=(
LENGTH_UNIT()
NAMED_UNIT(*)
SI_UNIT(.MILLI.,.METRE.)
);
#728=(
LENGTH_UNIT()
NAMED_UNIT(*)
SI_UNIT($,.METRE.)
);
#729=(
NAMED_UNIT(*)
PLANE_ANGLE_UNIT()
SI_UNIT($,.RADIAN.)
);
#730=(
NAMED_UNIT(*)
SI_UNIT($,.STERADIAN.)
SOLID_ANGLE_UNIT()
);
#731=SHAPE_DEFINITION_REPRESENTATION(#732,#733);
#732=PRODUCT_DEFINITION_SHAPE('',$,#735);
#733=SHAPE_REPRESENTATION('',(#458),#725);
#734=PRODUCT_DEFINITION_CONTEXT('part definition',#739,'design');
#735=PRODUCT_DEFINITION('2026-08-24-15-38-56-768','(Unsaved)',#736,#734);
#736=PRODUCT_DEFINITION_FORMATION('',$,#741);
#737=PRODUCT_RELATED_PRODUCT_CATEGORY('(Unsaved)','(Unsaved)',(#741));
#738=APPLICATION_PROTOCOL_DEFINITION('international standard',
'automotive_design',2009,#739);
#739=APPLICATION_CONTEXT(
'Core Data for Automotive Mechanical Design Process');
#740=PRODUCT_CONTEXT('part definition',#739,'mechanical');
#741=PRODUCT('2026-08-24-15-38-56-768','(Unsaved)',$,(#740));
#742=PRESENTATION_STYLE_ASSIGNMENT((#743));
#743=SURFACE_STYLE_USAGE(.BOTH.,#744);
#744=SURFACE_SIDE_STYLE('',(#745));
#745=SURFACE_STYLE_FILL_AREA(#746);
#746=FILL_AREA_STYLE('Steel - Satin',(#747));
#747=FILL_AREA_STYLE_COLOUR('Steel - Satin',#748);
#748=COLOUR_RGB('Steel - Satin',0.627450980392157,0.627450980392157,0.627450980392157);
ENDSEC;
END-ISO-10303-21;
