ISO-10303-21;
HEADER;
/* Generated by software containing ST-Developer
 * from STEP Tools, Inc. (www.steptools.com) 
 */

FILE_DESCRIPTION(
/* description */ (''),
/* implementation_level */ '2;1');

FILE_NAME(
/* name */ 'body4.step',
/* time_stamp */ '2026-08-25T23:42:41+03:00',
/* author */ (''),
/* organization */ (''),
/* preprocessor_version */ 'ST-DEVELOPER v20.1',
/* originating_system */ 'Autodesk Translation Framework v15.8.0.0',
/* authorisation */ '');

FILE_SCHEMA (('AUTOMOTIVE_DESIGN { 1 0 10303 214 3 1 1 }'));
ENDSEC;

DATA;
#10=MECHANICAL_DESIGN_GEOMETRIC_PRESENTATION_REPRESENTATION('',(#13),#1167);
#11=SHAPE_REPRESENTATION_RELATIONSHIP('SRR','None',#1174,#12);
#12=ADVANCED_BREP_SHAPE_REPRESENTATION('',(#14),#1166);
#13=STYLED_ITEM('',(#1183),#14);
#14=MANIFOLD_SOLID_BREP('Body4',#691);
#15=FACE_BOUND('',#144,.T.);
#16=FACE_BOUND('',#145,.T.);
#17=FACE_BOUND('',#146,.T.);
#18=FACE_BOUND('',#147,.T.);
#19=FACE_BOUND('',#148,.T.);
#20=FACE_BOUND('',#149,.T.);
#21=FACE_BOUND('',#150,.T.);
#22=FACE_BOUND('',#152,.T.);
#23=FACE_BOUND('',#153,.T.);
#24=FACE_BOUND('',#154,.T.);
#25=FACE_BOUND('',#155,.T.);
#26=FACE_BOUND('',#156,.T.);
#27=FACE_BOUND('',#157,.T.);
#28=FACE_BOUND('',#158,.T.);
#29=CIRCLE('',#707,0.5);
#30=CIRCLE('',#708,0.5);
#31=CIRCLE('',#711,0.5);
#32=CIRCLE('',#712,0.5);
#33=CIRCLE('',#715,0.499999999999998);
#34=CIRCLE('',#716,0.499999999999998);
#35=CIRCLE('',#719,0.499999999999998);
#36=CIRCLE('',#720,0.499999999999998);
#37=CIRCLE('',#723,0.499999999999998);
#38=CIRCLE('',#724,0.499999999999998);
#39=CIRCLE('',#727,0.5);
#40=CIRCLE('',#728,0.5);
#41=CIRCLE('',#731,0.500000000000003);
#42=CIRCLE('',#732,0.500000000000003);
#43=CIRCLE('',#735,0.499999999999998);
#44=CIRCLE('',#736,0.499999999999998);
#45=CIRCLE('',#739,0.499999999999998);
#46=CIRCLE('',#740,0.499999999999998);
#47=CIRCLE('',#743,0.5);
#48=CIRCLE('',#744,0.5);
#49=CIRCLE('',#747,0.499999999999998);
#50=CIRCLE('',#748,0.499999999999998);
#51=CIRCLE('',#751,0.499999999999998);
#52=CIRCLE('',#752,0.499999999999998);
#53=CIRCLE('',#754,1.45000000000001);
#54=CIRCLE('',#755,1.45000000000001);
#55=CIRCLE('',#757,1.45);
#56=CIRCLE('',#758,1.45);
#57=CIRCLE('',#760,1.45);
#58=CIRCLE('',#761,1.45);
#59=CIRCLE('',#763,1.45);
#60=CIRCLE('',#764,1.45);
#61=CYLINDRICAL_SURFACE('',#706,0.5);
#62=CYLINDRICAL_SURFACE('',#710,0.5);
#63=CYLINDRICAL_SURFACE('',#714,0.499999999999998);
#64=CYLINDRICAL_SURFACE('',#718,0.499999999999998);
#65=CYLINDRICAL_SURFACE('',#722,0.499999999999998);
#66=CYLINDRICAL_SURFACE('',#726,0.5);
#67=CYLINDRICAL_SURFACE('',#730,0.500000000000003);
#68=CYLINDRICAL_SURFACE('',#734,0.499999999999998);
#69=CYLINDRICAL_SURFACE('',#738,0.499999999999998);
#70=CYLINDRICAL_SURFACE('',#742,0.5);
#71=CYLINDRICAL_SURFACE('',#746,0.499999999999998);
#72=CYLINDRICAL_SURFACE('',#750,0.499999999999998);
#73=CYLINDRICAL_SURFACE('',#753,1.45000000000001);
#74=CYLINDRICAL_SURFACE('',#756,1.45);
#75=CYLINDRICAL_SURFACE('',#759,1.45);
#76=CYLINDRICAL_SURFACE('',#762,1.45);
#77=FACE_OUTER_BOUND('',#111,.T.);
#78=FACE_OUTER_BOUND('',#112,.T.);
#79=FACE_OUTER_BOUND('',#113,.T.);
#80=FACE_OUTER_BOUND('',#114,.T.);
#81=FACE_OUTER_BOUND('',#115,.T.);
#82=FACE_OUTER_BOUND('',#116,.T.);
#83=FACE_OUTER_BOUND('',#117,.T.);
#84=FACE_OUTER_BOUND('',#118,.T.);
#85=FACE_OUTER_BOUND('',#119,.T.);
#86=FACE_OUTER_BOUND('',#120,.T.);
#87=FACE_OUTER_BOUND('',#121,.T.);
#88=FACE_OUTER_BOUND('',#122,.T.);
#89=FACE_OUTER_BOUND('',#123,.T.);
#90=FACE_OUTER_BOUND('',#124,.T.);
#91=FACE_OUTER_BOUND('',#125,.T.);
#92=FACE_OUTER_BOUND('',#126,.T.);
#93=FACE_OUTER_BOUND('',#127,.T.);
#94=FACE_OUTER_BOUND('',#128,.T.);
#95=FACE_OUTER_BOUND('',#129,.T.);
#96=FACE_OUTER_BOUND('',#130,.T.);
#97=FACE_OUTER_BOUND('',#131,.T.);
#98=FACE_OUTER_BOUND('',#132,.T.);
#99=FACE_OUTER_BOUND('',#133,.T.);
#100=FACE_OUTER_BOUND('',#134,.T.);
#101=FACE_OUTER_BOUND('',#135,.T.);
#102=FACE_OUTER_BOUND('',#136,.T.);
#103=FACE_OUTER_BOUND('',#137,.T.);
#104=FACE_OUTER_BOUND('',#138,.T.);
#105=FACE_OUTER_BOUND('',#139,.T.);
#106=FACE_OUTER_BOUND('',#140,.T.);
#107=FACE_OUTER_BOUND('',#141,.T.);
#108=FACE_OUTER_BOUND('',#142,.T.);
#109=FACE_OUTER_BOUND('',#143,.T.);
#110=FACE_OUTER_BOUND('',#151,.T.);
#111=EDGE_LOOP('',(#447,#448,#449,#450));
#112=EDGE_LOOP('',(#451,#452,#453,#454));
#113=EDGE_LOOP('',(#455,#456,#457,#458));
#114=EDGE_LOOP('',(#459,#460,#461,#462));
#115=EDGE_LOOP('',(#463,#464,#465,#466));
#116=EDGE_LOOP('',(#467,#468,#469,#470));
#117=EDGE_LOOP('',(#471,#472,#473,#474));
#118=EDGE_LOOP('',(#475,#476,#477,#478));
#119=EDGE_LOOP('',(#479,#480,#481,#482));
#120=EDGE_LOOP('',(#483,#484,#485,#486));
#121=EDGE_LOOP('',(#487,#488,#489,#490));
#122=EDGE_LOOP('',(#491,#492,#493,#494));
#123=EDGE_LOOP('',(#495,#496,#497,#498));
#124=EDGE_LOOP('',(#499,#500,#501,#502));
#125=EDGE_LOOP('',(#503,#504,#505,#506));
#126=EDGE_LOOP('',(#507,#508,#509,#510));
#127=EDGE_LOOP('',(#511,#512,#513,#514));
#128=EDGE_LOOP('',(#515,#516,#517,#518));
#129=EDGE_LOOP('',(#519,#520,#521,#522));
#130=EDGE_LOOP('',(#523,#524,#525,#526));
#131=EDGE_LOOP('',(#527,#528,#529,#530));
#132=EDGE_LOOP('',(#531,#532,#533,#534));
#133=EDGE_LOOP('',(#535,#536,#537,#538));
#134=EDGE_LOOP('',(#539,#540,#541,#542));
#135=EDGE_LOOP('',(#543,#544,#545,#546));
#136=EDGE_LOOP('',(#547,#548,#549,#550));
#137=EDGE_LOOP('',(#551,#552,#553,#554));
#138=EDGE_LOOP('',(#555,#556,#557,#558));
#139=EDGE_LOOP('',(#559,#560,#561,#562));
#140=EDGE_LOOP('',(#563,#564,#565,#566));
#141=EDGE_LOOP('',(#567,#568,#569,#570));
#142=EDGE_LOOP('',(#571,#572,#573,#574));
#143=EDGE_LOOP('',(#575,#576,#577,#578));
#144=EDGE_LOOP('',(#579));
#145=EDGE_LOOP('',(#580));
#146=EDGE_LOOP('',(#581));
#147=EDGE_LOOP('',(#582));
#148=EDGE_LOOP('',(#583,#584,#585,#586,#587,#588,#589,#590));
#149=EDGE_LOOP('',(#591,#592,#593,#594,#595,#596,#597,#598));
#150=EDGE_LOOP('',(#599,#600,#601,#602,#603,#604,#605,#606));
#151=EDGE_LOOP('',(#607,#608,#609,#610));
#152=EDGE_LOOP('',(#611));
#153=EDGE_LOOP('',(#612));
#154=EDGE_LOOP('',(#613));
#155=EDGE_LOOP('',(#614));
#156=EDGE_LOOP('',(#615,#616,#617,#618,#619,#620,#621,#622));
#157=EDGE_LOOP('',(#623,#624,#625,#626,#627,#628,#629,#630));
#158=EDGE_LOOP('',(#631,#632,#633,#634,#635,#636,#637,#638));
#159=LINE('',#973,#223);
#160=LINE('',#975,#224);
#161=LINE('',#977,#225);
#162=LINE('',#978,#226);
#163=LINE('',#984,#227);
#164=LINE('',#987,#228);
#165=LINE('',#989,#229);
#166=LINE('',#990,#230);
#167=LINE('',#996,#231);
#168=LINE('',#999,#232);
#169=LINE('',#1001,#233);
#170=LINE('',#1002,#234);
#171=LINE('',#1008,#235);
#172=LINE('',#1011,#236);
#173=LINE('',#1013,#237);
#174=LINE('',#1014,#238);
#175=LINE('',#1021,#239);
#176=LINE('',#1023,#240);
#177=LINE('',#1025,#241);
#178=LINE('',#1026,#242);
#179=LINE('',#1032,#243);
#180=LINE('',#1035,#244);
#181=LINE('',#1037,#245);
#182=LINE('',#1038,#246);
#183=LINE('',#1044,#247);
#184=LINE('',#1047,#248);
#185=LINE('',#1049,#249);
#186=LINE('',#1050,#250);
#187=LINE('',#1056,#251);
#188=LINE('',#1059,#252);
#189=LINE('',#1061,#253);
#190=LINE('',#1062,#254);
#191=LINE('',#1069,#255);
#192=LINE('',#1071,#256);
#193=LINE('',#1073,#257);
#194=LINE('',#1074,#258);
#195=LINE('',#1080,#259);
#196=LINE('',#1083,#260);
#197=LINE('',#1085,#261);
#198=LINE('',#1086,#262);
#199=LINE('',#1092,#263);
#200=LINE('',#1095,#264);
#201=LINE('',#1097,#265);
#202=LINE('',#1098,#266);
#203=LINE('',#1104,#267);
#204=LINE('',#1107,#268);
#205=LINE('',#1109,#269);
#206=LINE('',#1110,#270);
#207=LINE('',#1118,#271);
#208=LINE('',#1124,#272);
#209=LINE('',#1130,#273);
#210=LINE('',#1136,#274);
#211=LINE('',#1141,#275);
#212=LINE('',#1143,#276);
#213=LINE('',#1145,#277);
#214=LINE('',#1146,#278);
#215=LINE('',#1149,#279);
#216=LINE('',#1151,#280);
#217=LINE('',#1152,#281);
#218=LINE('',#1155,#282);
#219=LINE('',#1157,#283);
#220=LINE('',#1158,#284);
#221=LINE('',#1160,#285);
#222=LINE('',#1161,#286);
#223=VECTOR('',#775,10.);
#224=VECTOR('',#776,10.);
#225=VECTOR('',#777,10.);
#226=VECTOR('',#778,10.);
#227=VECTOR('',#785,10.);
#228=VECTOR('',#788,10.);
#229=VECTOR('',#789,10.);
#230=VECTOR('',#790,10.);
#231=VECTOR('',#797,10.);
#232=VECTOR('',#800,10.);
#233=VECTOR('',#801,10.);
#234=VECTOR('',#802,10.);
#235=VECTOR('',#809,10.);
#236=VECTOR('',#812,10.);
#237=VECTOR('',#813,10.);
#238=VECTOR('',#814,10.);
#239=VECTOR('',#823,10.);
#240=VECTOR('',#824,10.);
#241=VECTOR('',#825,10.);
#242=VECTOR('',#826,10.);
#243=VECTOR('',#833,10.);
#244=VECTOR('',#836,10.);
#245=VECTOR('',#837,10.);
#246=VECTOR('',#838,10.);
#247=VECTOR('',#845,10.);
#248=VECTOR('',#848,10.);
#249=VECTOR('',#849,10.);
#250=VECTOR('',#850,10.);
#251=VECTOR('',#857,10.);
#252=VECTOR('',#860,10.);
#253=VECTOR('',#861,10.);
#254=VECTOR('',#862,10.);
#255=VECTOR('',#871,10.);
#256=VECTOR('',#872,10.);
#257=VECTOR('',#873,10.);
#258=VECTOR('',#874,10.);
#259=VECTOR('',#881,10.);
#260=VECTOR('',#884,10.);
#261=VECTOR('',#885,10.);
#262=VECTOR('',#886,10.);
#263=VECTOR('',#893,10.);
#264=VECTOR('',#896,10.);
#265=VECTOR('',#897,10.);
#266=VECTOR('',#898,10.);
#267=VECTOR('',#905,10.);
#268=VECTOR('',#908,10.);
#269=VECTOR('',#909,10.);
#270=VECTOR('',#910,10.);
#271=VECTOR('',#921,1.45000000000001);
#272=VECTOR('',#928,1.45);
#273=VECTOR('',#935,1.45);
#274=VECTOR('',#942,1.45);
#275=VECTOR('',#947,10.);
#276=VECTOR('',#948,10.);
#277=VECTOR('',#949,10.);
#278=VECTOR('',#950,10.);
#279=VECTOR('',#953,10.);
#280=VECTOR('',#954,10.);
#281=VECTOR('',#955,10.);
#282=VECTOR('',#958,10.);
#283=VECTOR('',#959,10.);
#284=VECTOR('',#960,10.);
#285=VECTOR('',#963,10.);
#286=VECTOR('',#964,10.);
#287=VERTEX_POINT('',#971);
#288=VERTEX_POINT('',#972);
#289=VERTEX_POINT('',#974);
#290=VERTEX_POINT('',#976);
#291=VERTEX_POINT('',#980);
#292=VERTEX_POINT('',#982);
#293=VERTEX_POINT('',#986);
#294=VERTEX_POINT('',#988);
#295=VERTEX_POINT('',#992);
#296=VERTEX_POINT('',#994);
#297=VERTEX_POINT('',#998);
#298=VERTEX_POINT('',#1000);
#299=VERTEX_POINT('',#1004);
#300=VERTEX_POINT('',#1006);
#301=VERTEX_POINT('',#1010);
#302=VERTEX_POINT('',#1012);
#303=VERTEX_POINT('',#1019);
#304=VERTEX_POINT('',#1020);
#305=VERTEX_POINT('',#1022);
#306=VERTEX_POINT('',#1024);
#307=VERTEX_POINT('',#1028);
#308=VERTEX_POINT('',#1030);
#309=VERTEX_POINT('',#1034);
#310=VERTEX_POINT('',#1036);
#311=VERTEX_POINT('',#1040);
#312=VERTEX_POINT('',#1042);
#313=VERTEX_POINT('',#1046);
#314=VERTEX_POINT('',#1048);
#315=VERTEX_POINT('',#1052);
#316=VERTEX_POINT('',#1054);
#317=VERTEX_POINT('',#1058);
#318=VERTEX_POINT('',#1060);
#319=VERTEX_POINT('',#1067);
#320=VERTEX_POINT('',#1068);
#321=VERTEX_POINT('',#1070);
#322=VERTEX_POINT('',#1072);
#323=VERTEX_POINT('',#1076);
#324=VERTEX_POINT('',#1078);
#325=VERTEX_POINT('',#1082);
#326=VERTEX_POINT('',#1084);
#327=VERTEX_POINT('',#1088);
#328=VERTEX_POINT('',#1090);
#329=VERTEX_POINT('',#1094);
#330=VERTEX_POINT('',#1096);
#331=VERTEX_POINT('',#1100);
#332=VERTEX_POINT('',#1102);
#333=VERTEX_POINT('',#1106);
#334=VERTEX_POINT('',#1108);
#335=VERTEX_POINT('',#1115);
#336=VERTEX_POINT('',#1117);
#337=VERTEX_POINT('',#1121);
#338=VERTEX_POINT('',#1123);
#339=VERTEX_POINT('',#1127);
#340=VERTEX_POINT('',#1129);
#341=VERTEX_POINT('',#1133);
#342=VERTEX_POINT('',#1135);
#343=VERTEX_POINT('',#1139);
#344=VERTEX_POINT('',#1140);
#345=VERTEX_POINT('',#1142);
#346=VERTEX_POINT('',#1144);
#347=VERTEX_POINT('',#1148);
#348=VERTEX_POINT('',#1150);
#349=VERTEX_POINT('',#1154);
#350=VERTEX_POINT('',#1156);
#351=EDGE_CURVE('',#287,#288,#159,.T.);
#352=EDGE_CURVE('',#289,#287,#160,.T.);
#353=EDGE_CURVE('',#290,#289,#161,.T.);
#354=EDGE_CURVE('',#290,#288,#162,.T.);
#355=EDGE_CURVE('',#288,#291,#29,.T.);
#356=EDGE_CURVE('',#292,#290,#30,.T.);
#357=EDGE_CURVE('',#292,#291,#163,.T.);
#358=EDGE_CURVE('',#291,#293,#164,.T.);
#359=EDGE_CURVE('',#294,#292,#165,.T.);
#360=EDGE_CURVE('',#294,#293,#166,.T.);
#361=EDGE_CURVE('',#293,#295,#31,.T.);
#362=EDGE_CURVE('',#296,#294,#32,.T.);
#363=EDGE_CURVE('',#296,#295,#167,.T.);
#364=EDGE_CURVE('',#295,#297,#168,.T.);
#365=EDGE_CURVE('',#298,#296,#169,.T.);
#366=EDGE_CURVE('',#298,#297,#170,.T.);
#367=EDGE_CURVE('',#297,#299,#33,.T.);
#368=EDGE_CURVE('',#300,#298,#34,.T.);
#369=EDGE_CURVE('',#300,#299,#171,.T.);
#370=EDGE_CURVE('',#299,#301,#172,.T.);
#371=EDGE_CURVE('',#302,#300,#173,.T.);
#372=EDGE_CURVE('',#302,#301,#174,.T.);
#373=EDGE_CURVE('',#301,#287,#35,.T.);
#374=EDGE_CURVE('',#289,#302,#36,.T.);
#375=EDGE_CURVE('',#303,#304,#175,.T.);
#376=EDGE_CURVE('',#305,#303,#176,.T.);
#377=EDGE_CURVE('',#306,#305,#177,.T.);
#378=EDGE_CURVE('',#306,#304,#178,.T.);
#379=EDGE_CURVE('',#304,#307,#37,.T.);
#380=EDGE_CURVE('',#308,#306,#38,.T.);
#381=EDGE_CURVE('',#308,#307,#179,.T.);
#382=EDGE_CURVE('',#307,#309,#180,.T.);
#383=EDGE_CURVE('',#310,#308,#181,.T.);
#384=EDGE_CURVE('',#310,#309,#182,.T.);
#385=EDGE_CURVE('',#309,#311,#39,.T.);
#386=EDGE_CURVE('',#312,#310,#40,.T.);
#387=EDGE_CURVE('',#312,#311,#183,.T.);
#388=EDGE_CURVE('',#311,#313,#184,.T.);
#389=EDGE_CURVE('',#314,#312,#185,.T.);
#390=EDGE_CURVE('',#314,#313,#186,.T.);
#391=EDGE_CURVE('',#313,#315,#41,.T.);
#392=EDGE_CURVE('',#316,#314,#42,.T.);
#393=EDGE_CURVE('',#316,#315,#187,.T.);
#394=EDGE_CURVE('',#315,#317,#188,.T.);
#395=EDGE_CURVE('',#318,#316,#189,.T.);
#396=EDGE_CURVE('',#318,#317,#190,.T.);
#397=EDGE_CURVE('',#317,#303,#43,.T.);
#398=EDGE_CURVE('',#305,#318,#44,.T.);
#399=EDGE_CURVE('',#319,#320,#191,.T.);
#400=EDGE_CURVE('',#321,#319,#192,.T.);
#401=EDGE_CURVE('',#322,#321,#193,.T.);
#402=EDGE_CURVE('',#322,#320,#194,.T.);
#403=EDGE_CURVE('',#320,#323,#45,.T.);
#404=EDGE_CURVE('',#324,#322,#46,.T.);
#405=EDGE_CURVE('',#324,#323,#195,.T.);
#406=EDGE_CURVE('',#323,#325,#196,.T.);
#407=EDGE_CURVE('',#326,#324,#197,.T.);
#408=EDGE_CURVE('',#326,#325,#198,.T.);
#409=EDGE_CURVE('',#325,#327,#47,.T.);
#410=EDGE_CURVE('',#328,#326,#48,.T.);
#411=EDGE_CURVE('',#328,#327,#199,.T.);
#412=EDGE_CURVE('',#327,#329,#200,.T.);
#413=EDGE_CURVE('',#330,#328,#201,.T.);
#414=EDGE_CURVE('',#330,#329,#202,.T.);
#415=EDGE_CURVE('',#329,#331,#49,.T.);
#416=EDGE_CURVE('',#332,#330,#50,.T.);
#417=EDGE_CURVE('',#332,#331,#203,.T.);
#418=EDGE_CURVE('',#331,#333,#204,.T.);
#419=EDGE_CURVE('',#334,#332,#205,.T.);
#420=EDGE_CURVE('',#334,#333,#206,.T.);
#421=EDGE_CURVE('',#333,#319,#51,.T.);
#422=EDGE_CURVE('',#321,#334,#52,.T.);
#423=EDGE_CURVE('',#335,#335,#53,.T.);
#424=EDGE_CURVE('',#335,#336,#207,.T.);
#425=EDGE_CURVE('',#336,#336,#54,.T.);
#426=EDGE_CURVE('',#337,#337,#55,.T.);
#427=EDGE_CURVE('',#337,#338,#208,.T.);
#428=EDGE_CURVE('',#338,#338,#56,.T.);
#429=EDGE_CURVE('',#339,#339,#57,.T.);
#430=EDGE_CURVE('',#339,#340,#209,.T.);
#431=EDGE_CURVE('',#340,#340,#58,.T.);
#432=EDGE_CURVE('',#341,#341,#59,.T.);
#433=EDGE_CURVE('',#341,#342,#210,.T.);
#434=EDGE_CURVE('',#342,#342,#60,.T.);
#435=EDGE_CURVE('',#343,#344,#211,.T.);
#436=EDGE_CURVE('',#343,#345,#212,.T.);
#437=EDGE_CURVE('',#346,#345,#213,.T.);
#438=EDGE_CURVE('',#344,#346,#214,.T.);
#439=EDGE_CURVE('',#344,#347,#215,.T.);
#440=EDGE_CURVE('',#348,#346,#216,.T.);
#441=EDGE_CURVE('',#347,#348,#217,.T.);
#442=EDGE_CURVE('',#347,#349,#218,.T.);
#443=EDGE_CURVE('',#350,#348,#219,.T.);
#444=EDGE_CURVE('',#349,#350,#220,.T.);
#445=EDGE_CURVE('',#349,#343,#221,.T.);
#446=EDGE_CURVE('',#345,#350,#222,.T.);
#447=ORIENTED_EDGE('',*,*,#351,.F.);
#448=ORIENTED_EDGE('',*,*,#352,.F.);
#449=ORIENTED_EDGE('',*,*,#353,.F.);
#450=ORIENTED_EDGE('',*,*,#354,.T.);
#451=ORIENTED_EDGE('',*,*,#355,.F.);
#452=ORIENTED_EDGE('',*,*,#354,.F.);
#453=ORIENTED_EDGE('',*,*,#356,.F.);
#454=ORIENTED_EDGE('',*,*,#357,.T.);
#455=ORIENTED_EDGE('',*,*,#358,.F.);
#456=ORIENTED_EDGE('',*,*,#357,.F.);
#457=ORIENTED_EDGE('',*,*,#359,.F.);
#458=ORIENTED_EDGE('',*,*,#360,.T.);
#459=ORIENTED_EDGE('',*,*,#361,.F.);
#460=ORIENTED_EDGE('',*,*,#360,.F.);
#461=ORIENTED_EDGE('',*,*,#362,.F.);
#462=ORIENTED_EDGE('',*,*,#363,.T.);
#463=ORIENTED_EDGE('',*,*,#364,.F.);
#464=ORIENTED_EDGE('',*,*,#363,.F.);
#465=ORIENTED_EDGE('',*,*,#365,.F.);
#466=ORIENTED_EDGE('',*,*,#366,.T.);
#467=ORIENTED_EDGE('',*,*,#367,.F.);
#468=ORIENTED_EDGE('',*,*,#366,.F.);
#469=ORIENTED_EDGE('',*,*,#368,.F.);
#470=ORIENTED_EDGE('',*,*,#369,.T.);
#471=ORIENTED_EDGE('',*,*,#370,.F.);
#472=ORIENTED_EDGE('',*,*,#369,.F.);
#473=ORIENTED_EDGE('',*,*,#371,.F.);
#474=ORIENTED_EDGE('',*,*,#372,.T.);
#475=ORIENTED_EDGE('',*,*,#373,.F.);
#476=ORIENTED_EDGE('',*,*,#372,.F.);
#477=ORIENTED_EDGE('',*,*,#374,.F.);
#478=ORIENTED_EDGE('',*,*,#352,.T.);
#479=ORIENTED_EDGE('',*,*,#375,.F.);
#480=ORIENTED_EDGE('',*,*,#376,.F.);
#481=ORIENTED_EDGE('',*,*,#377,.F.);
#482=ORIENTED_EDGE('',*,*,#378,.T.);
#483=ORIENTED_EDGE('',*,*,#379,.F.);
#484=ORIENTED_EDGE('',*,*,#378,.F.);
#485=ORIENTED_EDGE('',*,*,#380,.F.);
#486=ORIENTED_EDGE('',*,*,#381,.T.);
#487=ORIENTED_EDGE('',*,*,#382,.F.);
#488=ORIENTED_EDGE('',*,*,#381,.F.);
#489=ORIENTED_EDGE('',*,*,#383,.F.);
#490=ORIENTED_EDGE('',*,*,#384,.T.);
#491=ORIENTED_EDGE('',*,*,#385,.F.);
#492=ORIENTED_EDGE('',*,*,#384,.F.);
#493=ORIENTED_EDGE('',*,*,#386,.F.);
#494=ORIENTED_EDGE('',*,*,#387,.T.);
#495=ORIENTED_EDGE('',*,*,#388,.F.);
#496=ORIENTED_EDGE('',*,*,#387,.F.);
#497=ORIENTED_EDGE('',*,*,#389,.F.);
#498=ORIENTED_EDGE('',*,*,#390,.T.);
#499=ORIENTED_EDGE('',*,*,#391,.F.);
#500=ORIENTED_EDGE('',*,*,#390,.F.);
#501=ORIENTED_EDGE('',*,*,#392,.F.);
#502=ORIENTED_EDGE('',*,*,#393,.T.);
#503=ORIENTED_EDGE('',*,*,#394,.F.);
#504=ORIENTED_EDGE('',*,*,#393,.F.);
#505=ORIENTED_EDGE('',*,*,#395,.F.);
#506=ORIENTED_EDGE('',*,*,#396,.T.);
#507=ORIENTED_EDGE('',*,*,#397,.F.);
#508=ORIENTED_EDGE('',*,*,#396,.F.);
#509=ORIENTED_EDGE('',*,*,#398,.F.);
#510=ORIENTED_EDGE('',*,*,#376,.T.);
#511=ORIENTED_EDGE('',*,*,#399,.F.);
#512=ORIENTED_EDGE('',*,*,#400,.F.);
#513=ORIENTED_EDGE('',*,*,#401,.F.);
#514=ORIENTED_EDGE('',*,*,#402,.T.);
#515=ORIENTED_EDGE('',*,*,#403,.F.);
#516=ORIENTED_EDGE('',*,*,#402,.F.);
#517=ORIENTED_EDGE('',*,*,#404,.F.);
#518=ORIENTED_EDGE('',*,*,#405,.T.);
#519=ORIENTED_EDGE('',*,*,#406,.F.);
#520=ORIENTED_EDGE('',*,*,#405,.F.);
#521=ORIENTED_EDGE('',*,*,#407,.F.);
#522=ORIENTED_EDGE('',*,*,#408,.T.);
#523=ORIENTED_EDGE('',*,*,#409,.F.);
#524=ORIENTED_EDGE('',*,*,#408,.F.);
#525=ORIENTED_EDGE('',*,*,#410,.F.);
#526=ORIENTED_EDGE('',*,*,#411,.T.);
#527=ORIENTED_EDGE('',*,*,#412,.F.);
#528=ORIENTED_EDGE('',*,*,#411,.F.);
#529=ORIENTED_EDGE('',*,*,#413,.F.);
#530=ORIENTED_EDGE('',*,*,#414,.T.);
#531=ORIENTED_EDGE('',*,*,#415,.F.);
#532=ORIENTED_EDGE('',*,*,#414,.F.);
#533=ORIENTED_EDGE('',*,*,#416,.F.);
#534=ORIENTED_EDGE('',*,*,#417,.T.);
#535=ORIENTED_EDGE('',*,*,#418,.F.);
#536=ORIENTED_EDGE('',*,*,#417,.F.);
#537=ORIENTED_EDGE('',*,*,#419,.F.);
#538=ORIENTED_EDGE('',*,*,#420,.T.);
#539=ORIENTED_EDGE('',*,*,#421,.F.);
#540=ORIENTED_EDGE('',*,*,#420,.F.);
#541=ORIENTED_EDGE('',*,*,#422,.F.);
#542=ORIENTED_EDGE('',*,*,#400,.T.);
#543=ORIENTED_EDGE('',*,*,#423,.F.);
#544=ORIENTED_EDGE('',*,*,#424,.T.);
#545=ORIENTED_EDGE('',*,*,#425,.T.);
#546=ORIENTED_EDGE('',*,*,#424,.F.);
#547=ORIENTED_EDGE('',*,*,#426,.F.);
#548=ORIENTED_EDGE('',*,*,#427,.T.);
#549=ORIENTED_EDGE('',*,*,#428,.T.);
#550=ORIENTED_EDGE('',*,*,#427,.F.);
#551=ORIENTED_EDGE('',*,*,#429,.F.);
#552=ORIENTED_EDGE('',*,*,#430,.T.);
#553=ORIENTED_EDGE('',*,*,#431,.T.);
#554=ORIENTED_EDGE('',*,*,#430,.F.);
#555=ORIENTED_EDGE('',*,*,#432,.F.);
#556=ORIENTED_EDGE('',*,*,#433,.T.);
#557=ORIENTED_EDGE('',*,*,#434,.T.);
#558=ORIENTED_EDGE('',*,*,#433,.F.);
#559=ORIENTED_EDGE('',*,*,#435,.F.);
#560=ORIENTED_EDGE('',*,*,#436,.T.);
#561=ORIENTED_EDGE('',*,*,#437,.F.);
#562=ORIENTED_EDGE('',*,*,#438,.F.);
#563=ORIENTED_EDGE('',*,*,#439,.F.);
#564=ORIENTED_EDGE('',*,*,#438,.T.);
#565=ORIENTED_EDGE('',*,*,#440,.F.);
#566=ORIENTED_EDGE('',*,*,#441,.F.);
#567=ORIENTED_EDGE('',*,*,#442,.F.);
#568=ORIENTED_EDGE('',*,*,#441,.T.);
#569=ORIENTED_EDGE('',*,*,#443,.F.);
#570=ORIENTED_EDGE('',*,*,#444,.F.);
#571=ORIENTED_EDGE('',*,*,#445,.F.);
#572=ORIENTED_EDGE('',*,*,#444,.T.);
#573=ORIENTED_EDGE('',*,*,#446,.F.);
#574=ORIENTED_EDGE('',*,*,#436,.F.);
#575=ORIENTED_EDGE('',*,*,#446,.T.);
#576=ORIENTED_EDGE('',*,*,#443,.T.);
#577=ORIENTED_EDGE('',*,*,#440,.T.);
#578=ORIENTED_EDGE('',*,*,#437,.T.);
#579=ORIENTED_EDGE('',*,*,#423,.T.);
#580=ORIENTED_EDGE('',*,*,#426,.T.);
#581=ORIENTED_EDGE('',*,*,#429,.T.);
#582=ORIENTED_EDGE('',*,*,#432,.T.);
#583=ORIENTED_EDGE('',*,*,#412,.T.);
#584=ORIENTED_EDGE('',*,*,#415,.T.);
#585=ORIENTED_EDGE('',*,*,#418,.T.);
#586=ORIENTED_EDGE('',*,*,#421,.T.);
#587=ORIENTED_EDGE('',*,*,#399,.T.);
#588=ORIENTED_EDGE('',*,*,#403,.T.);
#589=ORIENTED_EDGE('',*,*,#406,.T.);
#590=ORIENTED_EDGE('',*,*,#409,.T.);
#591=ORIENTED_EDGE('',*,*,#388,.T.);
#592=ORIENTED_EDGE('',*,*,#391,.T.);
#593=ORIENTED_EDGE('',*,*,#394,.T.);
#594=ORIENTED_EDGE('',*,*,#397,.T.);
#595=ORIENTED_EDGE('',*,*,#375,.T.);
#596=ORIENTED_EDGE('',*,*,#379,.T.);
#597=ORIENTED_EDGE('',*,*,#382,.T.);
#598=ORIENTED_EDGE('',*,*,#385,.T.);
#599=ORIENTED_EDGE('',*,*,#364,.T.);
#600=ORIENTED_EDGE('',*,*,#367,.T.);
#601=ORIENTED_EDGE('',*,*,#370,.T.);
#602=ORIENTED_EDGE('',*,*,#373,.T.);
#603=ORIENTED_EDGE('',*,*,#351,.T.);
#604=ORIENTED_EDGE('',*,*,#355,.T.);
#605=ORIENTED_EDGE('',*,*,#358,.T.);
#606=ORIENTED_EDGE('',*,*,#361,.T.);
#607=ORIENTED_EDGE('',*,*,#445,.T.);
#608=ORIENTED_EDGE('',*,*,#435,.T.);
#609=ORIENTED_EDGE('',*,*,#439,.T.);
#610=ORIENTED_EDGE('',*,*,#442,.T.);
#611=ORIENTED_EDGE('',*,*,#425,.F.);
#612=ORIENTED_EDGE('',*,*,#428,.F.);
#613=ORIENTED_EDGE('',*,*,#431,.F.);
#614=ORIENTED_EDGE('',*,*,#434,.F.);
#615=ORIENTED_EDGE('',*,*,#413,.T.);
#616=ORIENTED_EDGE('',*,*,#410,.T.);
#617=ORIENTED_EDGE('',*,*,#407,.T.);
#618=ORIENTED_EDGE('',*,*,#404,.T.);
#619=ORIENTED_EDGE('',*,*,#401,.T.);
#620=ORIENTED_EDGE('',*,*,#422,.T.);
#621=ORIENTED_EDGE('',*,*,#419,.T.);
#622=ORIENTED_EDGE('',*,*,#416,.T.);
#623=ORIENTED_EDGE('',*,*,#389,.T.);
#624=ORIENTED_EDGE('',*,*,#386,.T.);
#625=ORIENTED_EDGE('',*,*,#383,.T.);
#626=ORIENTED_EDGE('',*,*,#380,.T.);
#627=ORIENTED_EDGE('',*,*,#377,.T.);
#628=ORIENTED_EDGE('',*,*,#398,.T.);
#629=ORIENTED_EDGE('',*,*,#395,.T.);
#630=ORIENTED_EDGE('',*,*,#392,.T.);
#631=ORIENTED_EDGE('',*,*,#365,.T.);
#632=ORIENTED_EDGE('',*,*,#362,.T.);
#633=ORIENTED_EDGE('',*,*,#359,.T.);
#634=ORIENTED_EDGE('',*,*,#356,.T.);
#635=ORIENTED_EDGE('',*,*,#353,.T.);
#636=ORIENTED_EDGE('',*,*,#374,.T.);
#637=ORIENTED_EDGE('',*,*,#371,.T.);
#638=ORIENTED_EDGE('',*,*,#368,.T.);
#639=PLANE('',#705);
#640=PLANE('',#709);
#641=PLANE('',#713);
#642=PLANE('',#717);
#643=PLANE('',#721);
#644=PLANE('',#725);
#645=PLANE('',#729);
#646=PLANE('',#733);
#647=PLANE('',#737);
#648=PLANE('',#741);
#649=PLANE('',#745);
#650=PLANE('',#749);
#651=PLANE('',#765);
#652=PLANE('',#766);
#653=PLANE('',#767);
#654=PLANE('',#768);
#655=PLANE('',#769);
#656=PLANE('',#770);
#657=ADVANCED_FACE('',(#77),#639,.F.);
#658=ADVANCED_FACE('',(#78),#61,.F.);
#659=ADVANCED_FACE('',(#79),#640,.F.);
#660=ADVANCED_FACE('',(#80),#62,.F.);
#661=ADVANCED_FACE('',(#81),#641,.F.);
#662=ADVANCED_FACE('',(#82),#63,.F.);
#663=ADVANCED_FACE('',(#83),#642,.F.);
#664=ADVANCED_FACE('',(#84),#64,.F.);
#665=ADVANCED_FACE('',(#85),#643,.F.);
#666=ADVANCED_FACE('',(#86),#65,.F.);
#667=ADVANCED_FACE('',(#87),#644,.F.);
#668=ADVANCED_FACE('',(#88),#66,.F.);
#669=ADVANCED_FACE('',(#89),#645,.F.);
#670=ADVANCED_FACE('',(#90),#67,.F.);
#671=ADVANCED_FACE('',(#91),#646,.F.);
#672=ADVANCED_FACE('',(#92),#68,.F.);
#673=ADVANCED_FACE('',(#93),#647,.F.);
#674=ADVANCED_FACE('',(#94),#69,.F.);
#675=ADVANCED_FACE('',(#95),#648,.F.);
#676=ADVANCED_FACE('',(#96),#70,.F.);
#677=ADVANCED_FACE('',(#97),#649,.F.);
#678=ADVANCED_FACE('',(#98),#71,.F.);
#679=ADVANCED_FACE('',(#99),#650,.F.);
#680=ADVANCED_FACE('',(#100),#72,.F.);
#681=ADVANCED_FACE('',(#101),#73,.F.);
#682=ADVANCED_FACE('',(#102),#74,.F.);
#683=ADVANCED_FACE('',(#103),#75,.F.);
#684=ADVANCED_FACE('',(#104),#76,.F.);
#685=ADVANCED_FACE('',(#105),#651,.T.);
#686=ADVANCED_FACE('',(#106),#652,.T.);
#687=ADVANCED_FACE('',(#107),#653,.T.);
#688=ADVANCED_FACE('',(#108),#654,.T.);
#689=ADVANCED_FACE('',(#109,#15,#16,#17,#18,#19,#20,#21),#655,.T.);
#690=ADVANCED_FACE('',(#110,#22,#23,#24,#25,#26,#27,#28),#656,.F.);
#691=CLOSED_SHELL('',(#657,#658,#659,#660,#661,#662,#663,#664,#665,#666,
#667,#668,#669,#670,#671,#672,#673,#674,#675,#676,#677,#678,#679,#680,#681,
#682,#683,#684,#685,#686,#687,#688,#689,#690));
#692=DERIVED_UNIT_ELEMENT(#694,1.);
#693=DERIVED_UNIT_ELEMENT(#1169,-3.);
#694=(
MASS_UNIT()
NAMED_UNIT(*)
SI_UNIT(.KILO.,.GRAM.)
);
#695=DERIVED_UNIT((#692,#693));
#696=MEASURE_REPRESENTATION_ITEM('density measure',
POSITIVE_RATIO_MEASURE(7850.),#695);
#697=PROPERTY_DEFINITION_REPRESENTATION(#702,#699);
#698=PROPERTY_DEFINITION_REPRESENTATION(#703,#700);
#699=REPRESENTATION('material name',(#701),#1166);
#700=REPRESENTATION('density',(#696),#1166);
#701=DESCRIPTIVE_REPRESENTATION_ITEM('Steel','Steel');
#702=PROPERTY_DEFINITION('material property','material name',#1176);
#703=PROPERTY_DEFINITION('material property','density of part',#1176);
#704=AXIS2_PLACEMENT_3D('',#969,#771,#772);
#705=AXIS2_PLACEMENT_3D('',#970,#773,#774);
#706=AXIS2_PLACEMENT_3D('',#979,#779,#780);
#707=AXIS2_PLACEMENT_3D('',#981,#781,#782);
#708=AXIS2_PLACEMENT_3D('',#983,#783,#784);
#709=AXIS2_PLACEMENT_3D('',#985,#786,#787);
#710=AXIS2_PLACEMENT_3D('',#991,#791,#792);
#711=AXIS2_PLACEMENT_3D('',#993,#793,#794);
#712=AXIS2_PLACEMENT_3D('',#995,#795,#796);
#713=AXIS2_PLACEMENT_3D('',#997,#798,#799);
#714=AXIS2_PLACEMENT_3D('',#1003,#803,#804);
#715=AXIS2_PLACEMENT_3D('',#1005,#805,#806);
#716=AXIS2_PLACEMENT_3D('',#1007,#807,#808);
#717=AXIS2_PLACEMENT_3D('',#1009,#810,#811);
#718=AXIS2_PLACEMENT_3D('',#1015,#815,#816);
#719=AXIS2_PLACEMENT_3D('',#1016,#817,#818);
#720=AXIS2_PLACEMENT_3D('',#1017,#819,#820);
#721=AXIS2_PLACEMENT_3D('',#1018,#821,#822);
#722=AXIS2_PLACEMENT_3D('',#1027,#827,#828);
#723=AXIS2_PLACEMENT_3D('',#1029,#829,#830);
#724=AXIS2_PLACEMENT_3D('',#1031,#831,#832);
#725=AXIS2_PLACEMENT_3D('',#1033,#834,#835);
#726=AXIS2_PLACEMENT_3D('',#1039,#839,#840);
#727=AXIS2_PLACEMENT_3D('',#1041,#841,#842);
#728=AXIS2_PLACEMENT_3D('',#1043,#843,#844);
#729=AXIS2_PLACEMENT_3D('',#1045,#846,#847);
#730=AXIS2_PLACEMENT_3D('',#1051,#851,#852);
#731=AXIS2_PLACEMENT_3D('',#1053,#853,#854);
#732=AXIS2_PLACEMENT_3D('',#1055,#855,#856);
#733=AXIS2_PLACEMENT_3D('',#1057,#858,#859);
#734=AXIS2_PLACEMENT_3D('',#1063,#863,#864);
#735=AXIS2_PLACEMENT_3D('',#1064,#865,#866);
#736=AXIS2_PLACEMENT_3D('',#1065,#867,#868);
#737=AXIS2_PLACEMENT_3D('',#1066,#869,#870);
#738=AXIS2_PLACEMENT_3D('',#1075,#875,#876);
#739=AXIS2_PLACEMENT_3D('',#1077,#877,#878);
#740=AXIS2_PLACEMENT_3D('',#1079,#879,#880);
#741=AXIS2_PLACEMENT_3D('',#1081,#882,#883);
#742=AXIS2_PLACEMENT_3D('',#1087,#887,#888);
#743=AXIS2_PLACEMENT_3D('',#1089,#889,#890);
#744=AXIS2_PLACEMENT_3D('',#1091,#891,#892);
#745=AXIS2_PLACEMENT_3D('',#1093,#894,#895);
#746=AXIS2_PLACEMENT_3D('',#1099,#899,#900);
#747=AXIS2_PLACEMENT_3D('',#1101,#901,#902);
#748=AXIS2_PLACEMENT_3D('',#1103,#903,#904);
#749=AXIS2_PLACEMENT_3D('',#1105,#906,#907);
#750=AXIS2_PLACEMENT_3D('',#1111,#911,#912);
#751=AXIS2_PLACEMENT_3D('',#1112,#913,#914);
#752=AXIS2_PLACEMENT_3D('',#1113,#915,#916);
#753=AXIS2_PLACEMENT_3D('',#1114,#917,#918);
#754=AXIS2_PLACEMENT_3D('',#1116,#919,#920);
#755=AXIS2_PLACEMENT_3D('',#1119,#922,#923);
#756=AXIS2_PLACEMENT_3D('',#1120,#924,#925);
#757=AXIS2_PLACEMENT_3D('',#1122,#926,#927);
#758=AXIS2_PLACEMENT_3D('',#1125,#929,#930);
#759=AXIS2_PLACEMENT_3D('',#1126,#931,#932);
#760=AXIS2_PLACEMENT_3D('',#1128,#933,#934);
#761=AXIS2_PLACEMENT_3D('',#1131,#936,#937);
#762=AXIS2_PLACEMENT_3D('',#1132,#938,#939);
#763=AXIS2_PLACEMENT_3D('',#1134,#940,#941);
#764=AXIS2_PLACEMENT_3D('',#1137,#943,#944);
#765=AXIS2_PLACEMENT_3D('',#1138,#945,#946);
#766=AXIS2_PLACEMENT_3D('',#1147,#951,#952);
#767=AXIS2_PLACEMENT_3D('',#1153,#956,#957);
#768=AXIS2_PLACEMENT_3D('',#1159,#961,#962);
#769=AXIS2_PLACEMENT_3D('',#1162,#965,#966);
#770=AXIS2_PLACEMENT_3D('',#1163,#967,#968);
#771=DIRECTION('axis',(0.,0.,1.));
#772=DIRECTION('refdir',(1.,0.,0.));
#773=DIRECTION('center_axis',(0.,-1.,0.));
#774=DIRECTION('ref_axis',(1.,0.,0.));
#775=DIRECTION('',(-1.,0.,0.));
#776=DIRECTION('',(0.,0.,1.));
#777=DIRECTION('',(1.,0.,0.));
#778=DIRECTION('',(0.,0.,1.));
#779=DIRECTION('center_axis',(0.,0.,1.));
#780=DIRECTION('ref_axis',(-1.,0.,0.));
#781=DIRECTION('center_axis',(0.,0.,-1.));
#782=DIRECTION('ref_axis',(-1.,0.,0.));
#783=DIRECTION('center_axis',(0.,0.,1.));
#784=DIRECTION('ref_axis',(-1.,0.,0.));
#785=DIRECTION('',(0.,0.,1.));
#786=DIRECTION('center_axis',(-1.,0.,0.));
#787=DIRECTION('ref_axis',(0.,-1.,0.));
#788=DIRECTION('',(0.,1.,0.));
#789=DIRECTION('',(0.,-1.,0.));
#790=DIRECTION('',(0.,0.,1.));
#791=DIRECTION('center_axis',(0.,0.,1.));
#792=DIRECTION('ref_axis',(0.,1.,0.));
#793=DIRECTION('center_axis',(0.,0.,-1.));
#794=DIRECTION('ref_axis',(0.,1.,0.));
#795=DIRECTION('center_axis',(0.,0.,1.));
#796=DIRECTION('ref_axis',(0.,1.,0.));
#797=DIRECTION('',(0.,0.,1.));
#798=DIRECTION('center_axis',(0.,1.,0.));
#799=DIRECTION('ref_axis',(-1.,0.,0.));
#800=DIRECTION('',(1.,0.,0.));
#801=DIRECTION('',(-1.,0.,0.));
#802=DIRECTION('',(0.,0.,1.));
#803=DIRECTION('center_axis',(0.,0.,1.));
#804=DIRECTION('ref_axis',(1.,0.,0.));
#805=DIRECTION('center_axis',(0.,0.,-1.));
#806=DIRECTION('ref_axis',(1.,0.,0.));
#807=DIRECTION('center_axis',(0.,0.,1.));
#808=DIRECTION('ref_axis',(1.,0.,0.));
#809=DIRECTION('',(0.,0.,1.));
#810=DIRECTION('center_axis',(1.,0.,0.));
#811=DIRECTION('ref_axis',(0.,1.,0.));
#812=DIRECTION('',(0.,-1.,0.));
#813=DIRECTION('',(0.,1.,0.));
#814=DIRECTION('',(0.,0.,1.));
#815=DIRECTION('center_axis',(0.,0.,1.));
#816=DIRECTION('ref_axis',(0.,-1.,0.));
#817=DIRECTION('center_axis',(0.,0.,-1.));
#818=DIRECTION('ref_axis',(0.,-1.,0.));
#819=DIRECTION('center_axis',(0.,0.,1.));
#820=DIRECTION('ref_axis',(0.,-1.,0.));
#821=DIRECTION('center_axis',(0.,-1.,0.));
#822=DIRECTION('ref_axis',(1.,0.,0.));
#823=DIRECTION('',(-1.,0.,0.));
#824=DIRECTION('',(0.,0.,1.));
#825=DIRECTION('',(1.,0.,0.));
#826=DIRECTION('',(0.,0.,1.));
#827=DIRECTION('center_axis',(0.,0.,1.));
#828=DIRECTION('ref_axis',(-1.,0.,0.));
#829=DIRECTION('center_axis',(0.,0.,-1.));
#830=DIRECTION('ref_axis',(-1.,0.,0.));
#831=DIRECTION('center_axis',(0.,0.,1.));
#832=DIRECTION('ref_axis',(-1.,0.,0.));
#833=DIRECTION('',(0.,0.,1.));
#834=DIRECTION('center_axis',(-1.,0.,0.));
#835=DIRECTION('ref_axis',(0.,-1.,0.));
#836=DIRECTION('',(0.,1.,0.));
#837=DIRECTION('',(0.,-1.,0.));
#838=DIRECTION('',(0.,0.,1.));
#839=DIRECTION('center_axis',(0.,0.,1.));
#840=DIRECTION('ref_axis',(0.,1.,0.));
#841=DIRECTION('center_axis',(0.,0.,-1.));
#842=DIRECTION('ref_axis',(0.,1.,0.));
#843=DIRECTION('center_axis',(0.,0.,1.));
#844=DIRECTION('ref_axis',(0.,1.,0.));
#845=DIRECTION('',(0.,0.,1.));
#846=DIRECTION('center_axis',(0.,1.,0.));
#847=DIRECTION('ref_axis',(-1.,0.,0.));
#848=DIRECTION('',(1.,0.,0.));
#849=DIRECTION('',(-1.,0.,0.));
#850=DIRECTION('',(0.,0.,1.));
#851=DIRECTION('center_axis',(0.,0.,1.));
#852=DIRECTION('ref_axis',(1.,0.,0.));
#853=DIRECTION('center_axis',(0.,0.,-1.));
#854=DIRECTION('ref_axis',(1.,0.,0.));
#855=DIRECTION('center_axis',(0.,0.,1.));
#856=DIRECTION('ref_axis',(1.,0.,0.));
#857=DIRECTION('',(0.,0.,1.));
#858=DIRECTION('center_axis',(1.,0.,0.));
#859=DIRECTION('ref_axis',(0.,1.,0.));
#860=DIRECTION('',(0.,-1.,0.));
#861=DIRECTION('',(0.,1.,0.));
#862=DIRECTION('',(0.,0.,1.));
#863=DIRECTION('center_axis',(0.,0.,1.));
#864=DIRECTION('ref_axis',(0.,-1.,0.));
#865=DIRECTION('center_axis',(0.,0.,-1.));
#866=DIRECTION('ref_axis',(0.,-1.,0.));
#867=DIRECTION('center_axis',(0.,0.,1.));
#868=DIRECTION('ref_axis',(0.,-1.,0.));
#869=DIRECTION('center_axis',(0.,-1.,0.));
#870=DIRECTION('ref_axis',(1.,0.,0.));
#871=DIRECTION('',(-1.,0.,0.));
#872=DIRECTION('',(0.,0.,1.));
#873=DIRECTION('',(1.,0.,0.));
#874=DIRECTION('',(0.,0.,1.));
#875=DIRECTION('center_axis',(0.,0.,1.));
#876=DIRECTION('ref_axis',(-1.,0.,0.));
#877=DIRECTION('center_axis',(0.,0.,-1.));
#878=DIRECTION('ref_axis',(-1.,0.,0.));
#879=DIRECTION('center_axis',(0.,0.,1.));
#880=DIRECTION('ref_axis',(-1.,0.,0.));
#881=DIRECTION('',(0.,0.,1.));
#882=DIRECTION('center_axis',(-1.,0.,0.));
#883=DIRECTION('ref_axis',(0.,-1.,0.));
#884=DIRECTION('',(0.,1.,0.));
#885=DIRECTION('',(0.,-1.,0.));
#886=DIRECTION('',(0.,0.,1.));
#887=DIRECTION('center_axis',(0.,0.,1.));
#888=DIRECTION('ref_axis',(0.,1.,0.));
#889=DIRECTION('center_axis',(0.,0.,-1.));
#890=DIRECTION('ref_axis',(0.,1.,0.));
#891=DIRECTION('center_axis',(0.,0.,1.));
#892=DIRECTION('ref_axis',(0.,1.,0.));
#893=DIRECTION('',(0.,0.,1.));
#894=DIRECTION('center_axis',(0.,1.,0.));
#895=DIRECTION('ref_axis',(-1.,0.,0.));
#896=DIRECTION('',(1.,0.,0.));
#897=DIRECTION('',(-1.,0.,0.));
#898=DIRECTION('',(0.,0.,1.));
#899=DIRECTION('center_axis',(0.,0.,1.));
#900=DIRECTION('ref_axis',(1.,0.,0.));
#901=DIRECTION('center_axis',(0.,0.,-1.));
#902=DIRECTION('ref_axis',(1.,0.,0.));
#903=DIRECTION('center_axis',(0.,0.,1.));
#904=DIRECTION('ref_axis',(1.,0.,0.));
#905=DIRECTION('',(0.,0.,1.));
#906=DIRECTION('center_axis',(1.,0.,0.));
#907=DIRECTION('ref_axis',(0.,1.,0.));
#908=DIRECTION('',(0.,-1.,0.));
#909=DIRECTION('',(0.,1.,0.));
#910=DIRECTION('',(0.,0.,1.));
#911=DIRECTION('center_axis',(0.,0.,1.));
#912=DIRECTION('ref_axis',(0.,-1.,0.));
#913=DIRECTION('center_axis',(0.,0.,-1.));
#914=DIRECTION('ref_axis',(0.,-1.,0.));
#915=DIRECTION('center_axis',(0.,0.,1.));
#916=DIRECTION('ref_axis',(0.,-1.,0.));
#917=DIRECTION('center_axis',(0.,0.,1.));
#918=DIRECTION('ref_axis',(1.,0.,0.));
#919=DIRECTION('center_axis',(0.,0.,-1.));
#920=DIRECTION('ref_axis',(1.,0.,0.));
#921=DIRECTION('',(0.,0.,-1.));
#922=DIRECTION('center_axis',(0.,0.,-1.));
#923=DIRECTION('ref_axis',(1.,0.,0.));
#924=DIRECTION('center_axis',(0.,0.,1.));
#925=DIRECTION('ref_axis',(1.,0.,0.));
#926=DIRECTION('center_axis',(0.,0.,-1.));
#927=DIRECTION('ref_axis',(1.,0.,0.));
#928=DIRECTION('',(0.,0.,-1.));
#929=DIRECTION('center_axis',(0.,0.,-1.));
#930=DIRECTION('ref_axis',(1.,0.,0.));
#931=DIRECTION('center_axis',(0.,0.,1.));
#932=DIRECTION('ref_axis',(1.,0.,0.));
#933=DIRECTION('center_axis',(0.,0.,-1.));
#934=DIRECTION('ref_axis',(1.,0.,0.));
#935=DIRECTION('',(0.,0.,-1.));
#936=DIRECTION('center_axis',(0.,0.,-1.));
#937=DIRECTION('ref_axis',(1.,0.,0.));
#938=DIRECTION('center_axis',(0.,0.,1.));
#939=DIRECTION('ref_axis',(1.,0.,0.));
#940=DIRECTION('center_axis',(0.,0.,-1.));
#941=DIRECTION('ref_axis',(1.,0.,0.));
#942=DIRECTION('',(0.,0.,-1.));
#943=DIRECTION('center_axis',(0.,0.,-1.));
#944=DIRECTION('ref_axis',(1.,0.,0.));
#945=DIRECTION('center_axis',(-1.,0.,0.));
#946=DIRECTION('ref_axis',(0.,-1.,0.));
#947=DIRECTION('',(0.,1.,0.));
#948=DIRECTION('',(0.,0.,1.));
#949=DIRECTION('',(0.,-1.,0.));
#950=DIRECTION('',(0.,0.,1.));
#951=DIRECTION('center_axis',(0.,1.,0.));
#952=DIRECTION('ref_axis',(-1.,0.,0.));
#953=DIRECTION('',(1.,0.,0.));
#954=DIRECTION('',(-1.,0.,0.));
#955=DIRECTION('',(0.,0.,1.));
#956=DIRECTION('center_axis',(1.,0.,0.));
#957=DIRECTION('ref_axis',(0.,1.,0.));
#958=DIRECTION('',(0.,-1.,0.));
#959=DIRECTION('',(0.,1.,0.));
#960=DIRECTION('',(0.,0.,1.));
#961=DIRECTION('center_axis',(0.,-1.,0.));
#962=DIRECTION('ref_axis',(1.,0.,0.));
#963=DIRECTION('',(-1.,0.,0.));
#964=DIRECTION('',(1.,0.,0.));
#965=DIRECTION('center_axis',(0.,0.,1.));
#966=DIRECTION('ref_axis',(1.,0.,0.));
#967=DIRECTION('center_axis',(0.,0.,1.));
#968=DIRECTION('ref_axis',(1.,0.,0.));
#969=CARTESIAN_POINT('',(0.,0.,0.));
#970=CARTESIAN_POINT('Origin',(3.025,53.475,-10.));
#971=CARTESIAN_POINT('',(16.025,53.475,3.));
#972=CARTESIAN_POINT('',(3.025,53.475,3.));
#973=CARTESIAN_POINT('',(15.8624998658895,53.475,3.));
#974=CARTESIAN_POINT('',(16.025,53.475,0.));
#975=CARTESIAN_POINT('',(16.025,53.475,-10.));
#976=CARTESIAN_POINT('',(3.025,53.475,0.));
#977=CARTESIAN_POINT('',(15.8624998658895,53.475,0.));
#978=CARTESIAN_POINT('',(3.025,53.475,-10.));
#979=CARTESIAN_POINT('Origin',(3.025,53.975,-10.));
#980=CARTESIAN_POINT('',(2.525,53.975,3.));
#981=CARTESIAN_POINT('Origin',(3.025,53.975,3.));
#982=CARTESIAN_POINT('',(2.525,53.975,0.));
#983=CARTESIAN_POINT('Origin',(3.025,53.975,0.));
#984=CARTESIAN_POINT('',(2.525,53.975,-10.));
#985=CARTESIAN_POINT('Origin',(2.525,66.975,-10.));
#986=CARTESIAN_POINT('',(2.525,66.975,3.));
#987=CARTESIAN_POINT('',(2.525,63.7375001639128,3.));
#988=CARTESIAN_POINT('',(2.525,66.975,0.));
#989=CARTESIAN_POINT('',(2.525,63.7375001639128,0.));
#990=CARTESIAN_POINT('',(2.525,66.975,-10.));
#991=CARTESIAN_POINT('Origin',(3.025,66.975,-10.));
#992=CARTESIAN_POINT('',(3.025,67.475,3.));
#993=CARTESIAN_POINT('Origin',(3.025,66.975,3.));
#994=CARTESIAN_POINT('',(3.025,67.475,0.));
#995=CARTESIAN_POINT('Origin',(3.025,66.975,0.));
#996=CARTESIAN_POINT('',(3.025,67.475,-10.));
#997=CARTESIAN_POINT('Origin',(16.025,67.475,-10.));
#998=CARTESIAN_POINT('',(16.025,67.475,3.));
#999=CARTESIAN_POINT('',(22.3624998658895,67.475,3.));
#1000=CARTESIAN_POINT('',(16.025,67.475,0.));
#1001=CARTESIAN_POINT('',(22.3624998658895,67.475,0.));
#1002=CARTESIAN_POINT('',(16.025,67.475,-10.));
#1003=CARTESIAN_POINT('Origin',(16.025,66.975,-10.));
#1004=CARTESIAN_POINT('',(16.525,66.975,3.));
#1005=CARTESIAN_POINT('Origin',(16.025,66.975,3.));
#1006=CARTESIAN_POINT('',(16.525,66.975,0.));
#1007=CARTESIAN_POINT('Origin',(16.025,66.975,0.));
#1008=CARTESIAN_POINT('',(16.525,66.975,-10.));
#1009=CARTESIAN_POINT('Origin',(16.525,53.975,-10.));
#1010=CARTESIAN_POINT('',(16.525,53.975,3.));
#1011=CARTESIAN_POINT('',(16.525,57.2375001639128,3.));
#1012=CARTESIAN_POINT('',(16.525,53.975,0.));
#1013=CARTESIAN_POINT('',(16.525,57.2375001639128,0.));
#1014=CARTESIAN_POINT('',(16.525,53.975,-10.));
#1015=CARTESIAN_POINT('Origin',(16.025,53.975,-10.));
#1016=CARTESIAN_POINT('Origin',(16.025,53.975,3.));
#1017=CARTESIAN_POINT('Origin',(16.025,53.975,0.));
#1018=CARTESIAN_POINT('Origin',(22.075,53.475,-10.));
#1019=CARTESIAN_POINT('',(35.075,53.475,3.));
#1020=CARTESIAN_POINT('',(22.075,53.475,3.));
#1021=CARTESIAN_POINT('',(25.3874998658895,53.475,3.));
#1022=CARTESIAN_POINT('',(35.075,53.475,0.));
#1023=CARTESIAN_POINT('',(35.075,53.475,-10.));
#1024=CARTESIAN_POINT('',(22.075,53.475,0.));
#1025=CARTESIAN_POINT('',(25.3874998658895,53.475,0.));
#1026=CARTESIAN_POINT('',(22.075,53.475,-10.));
#1027=CARTESIAN_POINT('Origin',(22.075,53.975,-10.));
#1028=CARTESIAN_POINT('',(21.575,53.975,3.));
#1029=CARTESIAN_POINT('Origin',(22.075,53.975,3.));
#1030=CARTESIAN_POINT('',(21.575,53.975,0.));
#1031=CARTESIAN_POINT('Origin',(22.075,53.975,0.));
#1032=CARTESIAN_POINT('',(21.575,53.975,-10.));
#1033=CARTESIAN_POINT('Origin',(21.575,66.975,-10.));
#1034=CARTESIAN_POINT('',(21.575,66.975,3.));
#1035=CARTESIAN_POINT('',(21.575,63.7375001639128,3.));
#1036=CARTESIAN_POINT('',(21.575,66.975,0.));
#1037=CARTESIAN_POINT('',(21.575,63.7375001639128,0.));
#1038=CARTESIAN_POINT('',(21.575,66.975,-10.));
#1039=CARTESIAN_POINT('Origin',(22.075,66.975,-10.));
#1040=CARTESIAN_POINT('',(22.075,67.475,3.));
#1041=CARTESIAN_POINT('Origin',(22.075,66.975,3.));
#1042=CARTESIAN_POINT('',(22.075,67.475,0.));
#1043=CARTESIAN_POINT('Origin',(22.075,66.975,0.));
#1044=CARTESIAN_POINT('',(22.075,67.475,-10.));
#1045=CARTESIAN_POINT('Origin',(35.075,67.475,-10.));
#1046=CARTESIAN_POINT('',(35.075,67.475,3.));
#1047=CARTESIAN_POINT('',(31.8874998658895,67.475,3.));
#1048=CARTESIAN_POINT('',(35.075,67.475,0.));
#1049=CARTESIAN_POINT('',(31.8874998658895,67.475,0.));
#1050=CARTESIAN_POINT('',(35.075,67.475,-10.));
#1051=CARTESIAN_POINT('Origin',(35.075,66.975,-10.));
#1052=CARTESIAN_POINT('',(35.575,66.975,3.));
#1053=CARTESIAN_POINT('Origin',(35.075,66.975,3.));
#1054=CARTESIAN_POINT('',(35.575,66.975,0.));
#1055=CARTESIAN_POINT('Origin',(35.075,66.975,0.));
#1056=CARTESIAN_POINT('',(35.575,66.975,-10.));
#1057=CARTESIAN_POINT('Origin',(35.575,53.975,-10.));
#1058=CARTESIAN_POINT('',(35.575,53.975,3.));
#1059=CARTESIAN_POINT('',(35.575,57.2375001639128,3.));
#1060=CARTESIAN_POINT('',(35.575,53.975,0.));
#1061=CARTESIAN_POINT('',(35.575,57.2375001639128,0.));
#1062=CARTESIAN_POINT('',(35.575,53.975,-10.));
#1063=CARTESIAN_POINT('Origin',(35.075,53.975,-10.));
#1064=CARTESIAN_POINT('Origin',(35.075,53.975,3.));
#1065=CARTESIAN_POINT('Origin',(35.075,53.975,0.));
#1066=CARTESIAN_POINT('Origin',(41.125,53.475,-10.));
#1067=CARTESIAN_POINT('',(54.125,53.475,3.));
#1068=CARTESIAN_POINT('',(41.125,53.475,3.));
#1069=CARTESIAN_POINT('',(34.9124998658895,53.475,3.));
#1070=CARTESIAN_POINT('',(54.125,53.475,0.));
#1071=CARTESIAN_POINT('',(54.125,53.475,-10.));
#1072=CARTESIAN_POINT('',(41.125,53.475,0.));
#1073=CARTESIAN_POINT('',(34.9124998658895,53.475,0.));
#1074=CARTESIAN_POINT('',(41.125,53.475,-10.));
#1075=CARTESIAN_POINT('Origin',(41.125,53.975,-10.));
#1076=CARTESIAN_POINT('',(40.625,53.975,3.));
#1077=CARTESIAN_POINT('Origin',(41.125,53.975,3.));
#1078=CARTESIAN_POINT('',(40.625,53.975,0.));
#1079=CARTESIAN_POINT('Origin',(41.125,53.975,0.));
#1080=CARTESIAN_POINT('',(40.625,53.975,-10.));
#1081=CARTESIAN_POINT('Origin',(40.625,66.975,-10.));
#1082=CARTESIAN_POINT('',(40.625,66.975,3.));
#1083=CARTESIAN_POINT('',(40.625,63.7375001639128,3.));
#1084=CARTESIAN_POINT('',(40.625,66.975,0.));
#1085=CARTESIAN_POINT('',(40.625,63.7375001639128,0.));
#1086=CARTESIAN_POINT('',(40.625,66.975,-10.));
#1087=CARTESIAN_POINT('Origin',(41.125,66.975,-10.));
#1088=CARTESIAN_POINT('',(41.125,67.475,3.));
#1089=CARTESIAN_POINT('Origin',(41.125,66.975,3.));
#1090=CARTESIAN_POINT('',(41.125,67.475,0.));
#1091=CARTESIAN_POINT('Origin',(41.125,66.975,0.));
#1092=CARTESIAN_POINT('',(41.125,67.475,-10.));
#1093=CARTESIAN_POINT('Origin',(54.125,67.475,-10.));
#1094=CARTESIAN_POINT('',(54.125,67.475,3.));
#1095=CARTESIAN_POINT('',(41.4124998658895,67.475,3.));
#1096=CARTESIAN_POINT('',(54.125,67.475,0.));
#1097=CARTESIAN_POINT('',(41.4124998658895,67.475,0.));
#1098=CARTESIAN_POINT('',(54.125,67.475,-10.));
#1099=CARTESIAN_POINT('Origin',(54.125,66.975,-10.));
#1100=CARTESIAN_POINT('',(54.625,66.975,3.));
#1101=CARTESIAN_POINT('Origin',(54.125,66.975,3.));
#1102=CARTESIAN_POINT('',(54.625,66.975,0.));
#1103=CARTESIAN_POINT('Origin',(54.125,66.975,0.));
#1104=CARTESIAN_POINT('',(54.625,66.975,-10.));
#1105=CARTESIAN_POINT('Origin',(54.625,53.975,-10.));
#1106=CARTESIAN_POINT('',(54.625,53.975,3.));
#1107=CARTESIAN_POINT('',(54.625,57.2375001639128,3.));
#1108=CARTESIAN_POINT('',(54.625,53.975,0.));
#1109=CARTESIAN_POINT('',(54.625,57.2375001639128,0.));
#1110=CARTESIAN_POINT('',(54.625,53.975,-10.));
#1111=CARTESIAN_POINT('Origin',(54.125,53.975,-10.));
#1112=CARTESIAN_POINT('Origin',(54.125,53.975,3.));
#1113=CARTESIAN_POINT('Origin',(54.125,53.975,0.));
#1114=CARTESIAN_POINT('Origin',(-5.00000026822093,75.0000003278255,0.));
#1115=CARTESIAN_POINT('',(-6.45000026822094,75.0000003278255,3.));
#1116=CARTESIAN_POINT('Origin',(-5.00000026822093,75.0000003278255,3.));
#1117=CARTESIAN_POINT('',(-6.45000026822094,75.0000003278255,0.));
#1118=CARTESIAN_POINT('',(-6.45000026822094,75.0000003278255,0.));
#1119=CARTESIAN_POINT('Origin',(-5.00000026822093,75.0000003278255,0.));
#1120=CARTESIAN_POINT('Origin',(-5.00000026822093,46.0000003278255,0.));
#1121=CARTESIAN_POINT('',(-6.45000026822093,46.0000003278255,3.));
#1122=CARTESIAN_POINT('Origin',(-5.00000026822093,46.0000003278255,3.));
#1123=CARTESIAN_POINT('',(-6.45000026822093,46.0000003278255,0.));
#1124=CARTESIAN_POINT('',(-6.45000026822093,46.0000003278255,0.));
#1125=CARTESIAN_POINT('Origin',(-5.00000026822093,46.0000003278255,0.));
#1126=CARTESIAN_POINT('Origin',(62.3999996572733,75.0000003278255,0.));
#1127=CARTESIAN_POINT('',(60.9499996572733,75.0000003278255,3.));
#1128=CARTESIAN_POINT('Origin',(62.3999996572733,75.0000003278255,3.));
#1129=CARTESIAN_POINT('',(60.9499996572733,75.0000003278255,0.));
#1130=CARTESIAN_POINT('',(60.9499996572733,75.0000003278255,0.));
#1131=CARTESIAN_POINT('Origin',(62.3999996572733,75.0000003278255,0.));
#1132=CARTESIAN_POINT('Origin',(62.3999996572791,46.0000003278255,0.));
#1133=CARTESIAN_POINT('',(60.9499996572791,46.0000003278255,3.));
#1134=CARTESIAN_POINT('Origin',(62.3999996572791,46.0000003278255,3.));
#1135=CARTESIAN_POINT('',(60.9499996572791,46.0000003278255,0.));
#1136=CARTESIAN_POINT('',(60.9499996572791,46.0000003278255,0.));
#1137=CARTESIAN_POINT('Origin',(62.3999996572791,46.0000003278255,0.));
#1138=CARTESIAN_POINT('Origin',(-10.0000002682209,80.0000003278255,0.));
#1139=CARTESIAN_POINT('',(-10.0000002682209,41.0000003278255,0.));
#1140=CARTESIAN_POINT('',(-10.0000002682209,80.0000003278255,0.));
#1141=CARTESIAN_POINT('',(-10.0000002682209,41.0000003278255,0.));
#1142=CARTESIAN_POINT('',(-10.0000002682209,41.0000003278255,3.));
#1143=CARTESIAN_POINT('',(-10.0000002682209,41.0000003278255,0.));
#1144=CARTESIAN_POINT('',(-10.0000002682209,80.0000003278255,3.));
#1145=CARTESIAN_POINT('',(-10.0000002682209,41.0000003278255,3.));
#1146=CARTESIAN_POINT('',(-10.0000002682209,80.0000003278255,0.));
#1147=CARTESIAN_POINT('Origin',(67.3999997317791,80.0000003278255,0.));
#1148=CARTESIAN_POINT('',(67.3999997317791,80.0000003278255,0.));
#1149=CARTESIAN_POINT('',(-10.0000002682209,80.0000003278255,0.));
#1150=CARTESIAN_POINT('',(67.3999997317791,80.0000003278255,3.));
#1151=CARTESIAN_POINT('',(-10.0000002682209,80.0000003278255,3.));
#1152=CARTESIAN_POINT('',(67.3999997317791,80.0000003278255,0.));
#1153=CARTESIAN_POINT('Origin',(67.3999997317791,41.0000003278255,0.));
#1154=CARTESIAN_POINT('',(67.3999997317791,41.0000003278255,0.));
#1155=CARTESIAN_POINT('',(67.3999997317791,80.0000003278255,0.));
#1156=CARTESIAN_POINT('',(67.3999997317791,41.0000003278255,3.));
#1157=CARTESIAN_POINT('',(67.3999997317791,80.0000003278255,3.));
#1158=CARTESIAN_POINT('',(67.3999997317791,41.0000003278255,0.));
#1159=CARTESIAN_POINT('Origin',(-10.0000002682209,41.0000003278255,0.));
#1160=CARTESIAN_POINT('',(67.3999997317791,41.0000003278255,0.));
#1161=CARTESIAN_POINT('',(67.3999997317791,41.0000003278255,3.));
#1162=CARTESIAN_POINT('Origin',(28.6999997317791,60.5000003278255,3.));
#1163=CARTESIAN_POINT('Origin',(28.6999997317791,60.5000003278255,0.));
#1164=UNCERTAINTY_MEASURE_WITH_UNIT(LENGTH_MEASURE(0.01),#1168,
'DISTANCE_ACCURACY_VALUE',
'Maximum model space distance between geometric entities at asserted c
onnectivities');
#1165=UNCERTAINTY_MEASURE_WITH_UNIT(LENGTH_MEASURE(0.01),#1168,
'DISTANCE_ACCURACY_VALUE',
'Maximum model space distance between geometric entities at asserted c
onnectivities');
#1166=(
GEOMETRIC_REPRESENTATION_CONTEXT(3)
GLOBAL_UNCERTAINTY_ASSIGNED_CONTEXT((#1164))
GLOBAL_UNIT_ASSIGNED_CONTEXT((#1168,#1170,#1171))
REPRESENTATION_CONTEXT('','3D')
);
#1167=(
GEOMETRIC_REPRESENTATION_CONTEXT(3)
GLOBAL_UNCERTAINTY_ASSIGNED_CONTEXT((#1165))
GLOBAL_UNIT_ASSIGNED_CONTEXT((#1168,#1170,#1171))
REPRESENTATION_CONTEXT('','3D')
);
#1168=(
LENGTH_UNIT()
NAMED_UNIT(*)
SI_UNIT(.MILLI.,.METRE.)
);
#1169=(
LENGTH_UNIT()
NAMED_UNIT(*)
SI_UNIT($,.METRE.)
);
#1170=(
NAMED_UNIT(*)
PLANE_ANGLE_UNIT()
SI_UNIT($,.RADIAN.)
);
#1171=(
NAMED_UNIT(*)
SI_UNIT($,.STERADIAN.)
SOLID_ANGLE_UNIT()
);
#1172=SHAPE_DEFINITION_REPRESENTATION(#1173,#1174);
#1173=PRODUCT_DEFINITION_SHAPE('',$,#1176);
#1174=SHAPE_REPRESENTATION('',(#704),#1166);
#1175=PRODUCT_DEFINITION_CONTEXT('part definition',#1180,'design');
#1176=PRODUCT_DEFINITION('2026-08-24-15-38-56-768','(Unsaved)',#1177,#1175);
#1177=PRODUCT_DEFINITION_FORMATION('',$,#1182);
#1178=PRODUCT_RELATED_PRODUCT_CATEGORY('(Unsaved)','(Unsaved)',(#1182));
#1179=APPLICATION_PROTOCOL_DEFINITION('international standard',
'automotive_design',2009,#1180);
#1180=APPLICATION_CONTEXT(
'Core Data for Automotive Mechanical Design Process');
#1181=PRODUCT_CONTEXT('part definition',#1180,'mechanical');
#1182=PRODUCT('2026-08-24-15-38-56-768','(Unsaved)',$,(#1181));
#1183=PRESENTATION_STYLE_ASSIGNMENT((#1184));
#1184=SURFACE_STYLE_USAGE(.BOTH.,#1185);
#1185=SURFACE_SIDE_STYLE('',(#1186));
#1186=SURFACE_STYLE_FILL_AREA(#1187);
#1187=FILL_AREA_STYLE('Steel - Satin',(#1188));
#1188=FILL_AREA_STYLE_COLOUR('Steel - Satin',#1189);
#1189=COLOUR_RGB('Steel - Satin',0.627450980392157,0.627450980392157,0.627450980392157);
ENDSEC;
END-ISO-10303-21;
