ISO-10303-21;
HEADER;
/* Generated by software containing ST-Developer
 * from STEP Tools, Inc. (www.steptools.com) 
 */

FILE_DESCRIPTION(
/* description */ (''),
/* implementation_level */ '2;1');

FILE_NAME(
/* name */ 'scapadv2.step',
/* time_stamp */ '2026-08-24T17:09:26+03:00',
/* author */ (''),
/* organization */ (''),
/* preprocessor_version */ 'ST-DEVELOPER v20.1',
/* originating_system */ 'Autodesk Translation Framework v15.8.0.0',
/* authorisation */ '');

FILE_SCHEMA (('AUTOMOTIVE_DESIGN { 1 0 10303 214 3 1 1 }'));
ENDSEC;

DATA;
#10=MECHANICAL_DESIGN_GEOMETRIC_PRESENTATION_REPRESENTATION('',(#13,#14),
#1861);
#11=SHAPE_REPRESENTATION_RELATIONSHIP('SRR','None',#1868,#12);
#12=ADVANCED_BREP_SHAPE_REPRESENTATION('',(#15,#16),#1860);
#13=STYLED_ITEM('',(#1877),#15);
#14=STYLED_ITEM('',(#1877),#16);
#15=MANIFOLD_SOLID_BREP('Body3',#1123);
#16=MANIFOLD_SOLID_BREP('Body4',#1124);
#17=CYLINDRICAL_SURFACE('',#1155,1.45);
#18=CYLINDRICAL_SURFACE('',#1157,1.45);
#19=CYLINDRICAL_SURFACE('',#1159,1.45);
#20=CYLINDRICAL_SURFACE('',#1161,1.45);
#21=CYLINDRICAL_SURFACE('',#1169,0.5);
#22=CYLINDRICAL_SURFACE('',#1173,0.5);
#23=CYLINDRICAL_SURFACE('',#1177,0.499999999999998);
#24=CYLINDRICAL_SURFACE('',#1181,0.499999999999998);
#25=CYLINDRICAL_SURFACE('',#1185,0.499999999999998);
#26=CYLINDRICAL_SURFACE('',#1189,0.5);
#27=CYLINDRICAL_SURFACE('',#1193,0.500000000000003);
#28=CYLINDRICAL_SURFACE('',#1197,0.499999999999998);
#29=CYLINDRICAL_SURFACE('',#1201,0.499999999999998);
#30=CYLINDRICAL_SURFACE('',#1205,0.5);
#31=CYLINDRICAL_SURFACE('',#1209,0.499999999999998);
#32=CYLINDRICAL_SURFACE('',#1213,0.499999999999998);
#33=CYLINDRICAL_SURFACE('',#1216,1.45000000000001);
#34=CYLINDRICAL_SURFACE('',#1219,1.45);
#35=CYLINDRICAL_SURFACE('',#1222,1.45);
#36=CYLINDRICAL_SURFACE('',#1225,1.45);
#37=FACE_BOUND('',#168,.T.);
#38=FACE_BOUND('',#169,.T.);
#39=FACE_BOUND('',#170,.T.);
#40=FACE_BOUND('',#171,.T.);
#41=FACE_BOUND('',#181,.T.);
#42=FACE_BOUND('',#182,.T.);
#43=FACE_BOUND('',#183,.T.);
#44=FACE_BOUND('',#184,.T.);
#45=FACE_BOUND('',#218,.T.);
#46=FACE_BOUND('',#219,.T.);
#47=FACE_BOUND('',#220,.T.);
#48=FACE_BOUND('',#221,.T.);
#49=FACE_BOUND('',#222,.T.);
#50=FACE_BOUND('',#223,.T.);
#51=FACE_BOUND('',#224,.T.);
#52=FACE_BOUND('',#226,.T.);
#53=FACE_BOUND('',#227,.T.);
#54=FACE_BOUND('',#228,.T.);
#55=FACE_BOUND('',#229,.T.);
#56=FACE_BOUND('',#230,.T.);
#57=FACE_BOUND('',#231,.T.);
#58=FACE_BOUND('',#232,.T.);
#59=CIRCLE('',#1151,1.45);
#60=CIRCLE('',#1152,1.45);
#61=CIRCLE('',#1153,1.45);
#62=CIRCLE('',#1154,1.45);
#63=CIRCLE('',#1156,1.45);
#64=CIRCLE('',#1158,1.45);
#65=CIRCLE('',#1160,1.45);
#66=CIRCLE('',#1162,1.45);
#67=CIRCLE('',#1170,0.5);
#68=CIRCLE('',#1171,0.5);
#69=CIRCLE('',#1174,0.5);
#70=CIRCLE('',#1175,0.5);
#71=CIRCLE('',#1178,0.499999999999998);
#72=CIRCLE('',#1179,0.499999999999998);
#73=CIRCLE('',#1182,0.499999999999998);
#74=CIRCLE('',#1183,0.499999999999998);
#75=CIRCLE('',#1186,0.499999999999998);
#76=CIRCLE('',#1187,0.499999999999998);
#77=CIRCLE('',#1190,0.5);
#78=CIRCLE('',#1191,0.5);
#79=CIRCLE('',#1194,0.500000000000003);
#80=CIRCLE('',#1195,0.500000000000003);
#81=CIRCLE('',#1198,0.499999999999998);
#82=CIRCLE('',#1199,0.499999999999998);
#83=CIRCLE('',#1202,0.499999999999998);
#84=CIRCLE('',#1203,0.499999999999998);
#85=CIRCLE('',#1206,0.5);
#86=CIRCLE('',#1207,0.5);
#87=CIRCLE('',#1210,0.499999999999998);
#88=CIRCLE('',#1211,0.499999999999998);
#89=CIRCLE('',#1214,0.499999999999998);
#90=CIRCLE('',#1215,0.499999999999998);
#91=CIRCLE('',#1217,1.45000000000001);
#92=CIRCLE('',#1218,1.45000000000001);
#93=CIRCLE('',#1220,1.45);
#94=CIRCLE('',#1221,1.45);
#95=CIRCLE('',#1223,1.45);
#96=CIRCLE('',#1224,1.45);
#97=CIRCLE('',#1226,1.45);
#98=CIRCLE('',#1227,1.45);
#99=FACE_OUTER_BOUND('',#155,.T.);
#100=FACE_OUTER_BOUND('',#156,.T.);
#101=FACE_OUTER_BOUND('',#157,.T.);
#102=FACE_OUTER_BOUND('',#158,.T.);
#103=FACE_OUTER_BOUND('',#159,.T.);
#104=FACE_OUTER_BOUND('',#160,.T.);
#105=FACE_OUTER_BOUND('',#161,.T.);
#106=FACE_OUTER_BOUND('',#162,.T.);
#107=FACE_OUTER_BOUND('',#163,.T.);
#108=FACE_OUTER_BOUND('',#164,.T.);
#109=FACE_OUTER_BOUND('',#165,.T.);
#110=FACE_OUTER_BOUND('',#166,.T.);
#111=FACE_OUTER_BOUND('',#167,.T.);
#112=FACE_OUTER_BOUND('',#172,.T.);
#113=FACE_OUTER_BOUND('',#173,.T.);
#114=FACE_OUTER_BOUND('',#174,.T.);
#115=FACE_OUTER_BOUND('',#175,.T.);
#116=FACE_OUTER_BOUND('',#176,.T.);
#117=FACE_OUTER_BOUND('',#177,.T.);
#118=FACE_OUTER_BOUND('',#178,.T.);
#119=FACE_OUTER_BOUND('',#179,.T.);
#120=FACE_OUTER_BOUND('',#180,.T.);
#121=FACE_OUTER_BOUND('',#185,.T.);
#122=FACE_OUTER_BOUND('',#186,.T.);
#123=FACE_OUTER_BOUND('',#187,.T.);
#124=FACE_OUTER_BOUND('',#188,.T.);
#125=FACE_OUTER_BOUND('',#189,.T.);
#126=FACE_OUTER_BOUND('',#190,.T.);
#127=FACE_OUTER_BOUND('',#191,.T.);
#128=FACE_OUTER_BOUND('',#192,.T.);
#129=FACE_OUTER_BOUND('',#193,.T.);
#130=FACE_OUTER_BOUND('',#194,.T.);
#131=FACE_OUTER_BOUND('',#195,.T.);
#132=FACE_OUTER_BOUND('',#196,.T.);
#133=FACE_OUTER_BOUND('',#197,.T.);
#134=FACE_OUTER_BOUND('',#198,.T.);
#135=FACE_OUTER_BOUND('',#199,.T.);
#136=FACE_OUTER_BOUND('',#200,.T.);
#137=FACE_OUTER_BOUND('',#201,.T.);
#138=FACE_OUTER_BOUND('',#202,.T.);
#139=FACE_OUTER_BOUND('',#203,.T.);
#140=FACE_OUTER_BOUND('',#204,.T.);
#141=FACE_OUTER_BOUND('',#205,.T.);
#142=FACE_OUTER_BOUND('',#206,.T.);
#143=FACE_OUTER_BOUND('',#207,.T.);
#144=FACE_OUTER_BOUND('',#208,.T.);
#145=FACE_OUTER_BOUND('',#209,.T.);
#146=FACE_OUTER_BOUND('',#210,.T.);
#147=FACE_OUTER_BOUND('',#211,.T.);
#148=FACE_OUTER_BOUND('',#212,.T.);
#149=FACE_OUTER_BOUND('',#213,.T.);
#150=FACE_OUTER_BOUND('',#214,.T.);
#151=FACE_OUTER_BOUND('',#215,.T.);
#152=FACE_OUTER_BOUND('',#216,.T.);
#153=FACE_OUTER_BOUND('',#217,.T.);
#154=FACE_OUTER_BOUND('',#225,.T.);
#155=EDGE_LOOP('',(#721,#722,#723,#724));
#156=EDGE_LOOP('',(#725,#726,#727,#728,#729,#730));
#157=EDGE_LOOP('',(#731,#732,#733,#734));
#158=EDGE_LOOP('',(#735,#736,#737,#738));
#159=EDGE_LOOP('',(#739,#740,#741,#742,#743));
#160=EDGE_LOOP('',(#744,#745,#746,#747));
#161=EDGE_LOOP('',(#748,#749,#750,#751));
#162=EDGE_LOOP('',(#752,#753,#754,#755,#756,#757,#758));
#163=EDGE_LOOP('',(#759,#760,#761,#762,#763,#764,#765,#766));
#164=EDGE_LOOP('',(#767,#768,#769,#770));
#165=EDGE_LOOP('',(#771,#772,#773,#774));
#166=EDGE_LOOP('',(#775,#776,#777,#778));
#167=EDGE_LOOP('',(#779,#780,#781,#782,#783,#784,#785,#786,#787,#788,#789,
#790));
#168=EDGE_LOOP('',(#791));
#169=EDGE_LOOP('',(#792));
#170=EDGE_LOOP('',(#793));
#171=EDGE_LOOP('',(#794));
#172=EDGE_LOOP('',(#795,#796,#797,#798));
#173=EDGE_LOOP('',(#799,#800,#801,#802));
#174=EDGE_LOOP('',(#803,#804,#805,#806));
#175=EDGE_LOOP('',(#807,#808,#809,#810));
#176=EDGE_LOOP('',(#811,#812,#813,#814));
#177=EDGE_LOOP('',(#815,#816,#817,#818));
#178=EDGE_LOOP('',(#819,#820,#821,#822));
#179=EDGE_LOOP('',(#823,#824,#825,#826,#827,#828,#829,#830));
#180=EDGE_LOOP('',(#831,#832,#833,#834));
#181=EDGE_LOOP('',(#835));
#182=EDGE_LOOP('',(#836));
#183=EDGE_LOOP('',(#837));
#184=EDGE_LOOP('',(#838));
#185=EDGE_LOOP('',(#839,#840,#841,#842));
#186=EDGE_LOOP('',(#843,#844,#845,#846));
#187=EDGE_LOOP('',(#847,#848,#849,#850));
#188=EDGE_LOOP('',(#851,#852,#853,#854));
#189=EDGE_LOOP('',(#855,#856,#857,#858));
#190=EDGE_LOOP('',(#859,#860,#861,#862));
#191=EDGE_LOOP('',(#863,#864,#865,#866));
#192=EDGE_LOOP('',(#867,#868,#869,#870));
#193=EDGE_LOOP('',(#871,#872,#873,#874));
#194=EDGE_LOOP('',(#875,#876,#877,#878));
#195=EDGE_LOOP('',(#879,#880,#881,#882));
#196=EDGE_LOOP('',(#883,#884,#885,#886));
#197=EDGE_LOOP('',(#887,#888,#889,#890));
#198=EDGE_LOOP('',(#891,#892,#893,#894));
#199=EDGE_LOOP('',(#895,#896,#897,#898));
#200=EDGE_LOOP('',(#899,#900,#901,#902));
#201=EDGE_LOOP('',(#903,#904,#905,#906));
#202=EDGE_LOOP('',(#907,#908,#909,#910));
#203=EDGE_LOOP('',(#911,#912,#913,#914));
#204=EDGE_LOOP('',(#915,#916,#917,#918));
#205=EDGE_LOOP('',(#919,#920,#921,#922));
#206=EDGE_LOOP('',(#923,#924,#925,#926));
#207=EDGE_LOOP('',(#927,#928,#929,#930));
#208=EDGE_LOOP('',(#931,#932,#933,#934));
#209=EDGE_LOOP('',(#935,#936,#937,#938));
#210=EDGE_LOOP('',(#939,#940,#941,#942));
#211=EDGE_LOOP('',(#943,#944,#945,#946));
#212=EDGE_LOOP('',(#947,#948,#949,#950));
#213=EDGE_LOOP('',(#951,#952,#953,#954));
#214=EDGE_LOOP('',(#955,#956,#957,#958));
#215=EDGE_LOOP('',(#959,#960,#961,#962));
#216=EDGE_LOOP('',(#963,#964,#965,#966));
#217=EDGE_LOOP('',(#967,#968,#969,#970));
#218=EDGE_LOOP('',(#971));
#219=EDGE_LOOP('',(#972));
#220=EDGE_LOOP('',(#973));
#221=EDGE_LOOP('',(#974));
#222=EDGE_LOOP('',(#975,#976,#977,#978,#979,#980,#981,#982));
#223=EDGE_LOOP('',(#983,#984,#985,#986,#987,#988,#989,#990));
#224=EDGE_LOOP('',(#991,#992,#993,#994,#995,#996,#997,#998));
#225=EDGE_LOOP('',(#999,#1000,#1001,#1002));
#226=EDGE_LOOP('',(#1003));
#227=EDGE_LOOP('',(#1004));
#228=EDGE_LOOP('',(#1005));
#229=EDGE_LOOP('',(#1006));
#230=EDGE_LOOP('',(#1007,#1008,#1009,#1010,#1011,#1012,#1013,#1014));
#231=EDGE_LOOP('',(#1015,#1016,#1017,#1018,#1019,#1020,#1021,#1022));
#232=EDGE_LOOP('',(#1023,#1024,#1025,#1026,#1027,#1028,#1029,#1030));
#233=LINE('',#1547,#348);
#234=LINE('',#1549,#349);
#235=LINE('',#1551,#350);
#236=LINE('',#1552,#351);
#237=LINE('',#1555,#352);
#238=LINE('',#1557,#353);
#239=LINE('',#1559,#354);
#240=LINE('',#1561,#355);
#241=LINE('',#1562,#356);
#242=LINE('',#1566,#357);
#243=LINE('',#1568,#358);
#244=LINE('',#1570,#359);
#245=LINE('',#1571,#360);
#246=LINE('',#1574,#361);
#247=LINE('',#1576,#362);
#248=LINE('',#1577,#363);
#249=LINE('',#1581,#364);
#250=LINE('',#1582,#365);
#251=LINE('',#1584,#366);
#252=LINE('',#1585,#367);
#253=LINE('',#1588,#368);
#254=LINE('',#1590,#369);
#255=LINE('',#1591,#370);
#256=LINE('',#1594,#371);
#257=LINE('',#1596,#372);
#258=LINE('',#1597,#373);
#259=LINE('',#1599,#374);
#260=LINE('',#1601,#375);
#261=LINE('',#1602,#376);
#262=LINE('',#1605,#377);
#263=LINE('',#1607,#378);
#264=LINE('',#1609,#379);
#265=LINE('',#1611,#380);
#266=LINE('',#1613,#381);
#267=LINE('',#1614,#382);
#268=LINE('',#1616,#383);
#269=LINE('',#1617,#384);
#270=LINE('',#1619,#385);
#271=LINE('',#1621,#386);
#272=LINE('',#1624,#387);
#273=LINE('',#1626,#388);
#274=LINE('',#1627,#389);
#275=LINE('',#1638,#390);
#276=LINE('',#1642,#391);
#277=LINE('',#1646,#392);
#278=LINE('',#1650,#393);
#279=LINE('',#1654,#394);
#280=LINE('',#1655,#395);
#281=LINE('',#1658,#396);
#282=LINE('',#1659,#397);
#283=LINE('',#1661,#398);
#284=LINE('',#1667,#399);
#285=LINE('',#1669,#400);
#286=LINE('',#1671,#401);
#287=LINE('',#1672,#402);
#288=LINE('',#1678,#403);
#289=LINE('',#1681,#404);
#290=LINE('',#1683,#405);
#291=LINE('',#1684,#406);
#292=LINE('',#1690,#407);
#293=LINE('',#1693,#408);
#294=LINE('',#1695,#409);
#295=LINE('',#1696,#410);
#296=LINE('',#1702,#411);
#297=LINE('',#1705,#412);
#298=LINE('',#1707,#413);
#299=LINE('',#1708,#414);
#300=LINE('',#1715,#415);
#301=LINE('',#1717,#416);
#302=LINE('',#1719,#417);
#303=LINE('',#1720,#418);
#304=LINE('',#1726,#419);
#305=LINE('',#1729,#420);
#306=LINE('',#1731,#421);
#307=LINE('',#1732,#422);
#308=LINE('',#1738,#423);
#309=LINE('',#1741,#424);
#310=LINE('',#1743,#425);
#311=LINE('',#1744,#426);
#312=LINE('',#1750,#427);
#313=LINE('',#1753,#428);
#314=LINE('',#1755,#429);
#315=LINE('',#1756,#430);
#316=LINE('',#1763,#431);
#317=LINE('',#1765,#432);
#318=LINE('',#1767,#433);
#319=LINE('',#1768,#434);
#320=LINE('',#1774,#435);
#321=LINE('',#1777,#436);
#322=LINE('',#1779,#437);
#323=LINE('',#1780,#438);
#324=LINE('',#1786,#439);
#325=LINE('',#1789,#440);
#326=LINE('',#1791,#441);
#327=LINE('',#1792,#442);
#328=LINE('',#1798,#443);
#329=LINE('',#1801,#444);
#330=LINE('',#1803,#445);
#331=LINE('',#1804,#446);
#332=LINE('',#1812,#447);
#333=LINE('',#1818,#448);
#334=LINE('',#1824,#449);
#335=LINE('',#1830,#450);
#336=LINE('',#1835,#451);
#337=LINE('',#1837,#452);
#338=LINE('',#1839,#453);
#339=LINE('',#1840,#454);
#340=LINE('',#1843,#455);
#341=LINE('',#1845,#456);
#342=LINE('',#1846,#457);
#343=LINE('',#1849,#458);
#344=LINE('',#1851,#459);
#345=LINE('',#1852,#460);
#346=LINE('',#1854,#461);
#347=LINE('',#1855,#462);
#348=VECTOR('',#1238,10.);
#349=VECTOR('',#1239,10.);
#350=VECTOR('',#1240,10.);
#351=VECTOR('',#1241,10.);
#352=VECTOR('',#1244,10.);
#353=VECTOR('',#1245,10.);
#354=VECTOR('',#1246,10.);
#355=VECTOR('',#1247,10.);
#356=VECTOR('',#1248,10.);
#357=VECTOR('',#1251,10.);
#358=VECTOR('',#1252,10.);
#359=VECTOR('',#1253,10.);
#360=VECTOR('',#1254,10.);
#361=VECTOR('',#1257,10.);
#362=VECTOR('',#1258,10.);
#363=VECTOR('',#1259,10.);
#364=VECTOR('',#1262,10.);
#365=VECTOR('',#1263,10.);
#366=VECTOR('',#1264,10.);
#367=VECTOR('',#1265,10.);
#368=VECTOR('',#1268,10.);
#369=VECTOR('',#1269,10.);
#370=VECTOR('',#1270,10.);
#371=VECTOR('',#1273,10.);
#372=VECTOR('',#1274,10.);
#373=VECTOR('',#1275,10.);
#374=VECTOR('',#1278,10.);
#375=VECTOR('',#1279,10.);
#376=VECTOR('',#1280,10.);
#377=VECTOR('',#1283,10.);
#378=VECTOR('',#1284,10.);
#379=VECTOR('',#1285,10.);
#380=VECTOR('',#1286,10.);
#381=VECTOR('',#1287,10.);
#382=VECTOR('',#1288,10.);
#383=VECTOR('',#1291,10.);
#384=VECTOR('',#1292,10.);
#385=VECTOR('',#1295,10.);
#386=VECTOR('',#1298,10.);
#387=VECTOR('',#1301,10.);
#388=VECTOR('',#1302,10.);
#389=VECTOR('',#1303,10.);
#390=VECTOR('',#1314,1.45);
#391=VECTOR('',#1319,1.45);
#392=VECTOR('',#1324,1.45);
#393=VECTOR('',#1329,1.45);
#394=VECTOR('',#1334,10.);
#395=VECTOR('',#1335,10.);
#396=VECTOR('',#1338,10.);
#397=VECTOR('',#1339,10.);
#398=VECTOR('',#1342,10.);
#399=VECTOR('',#1349,10.);
#400=VECTOR('',#1350,10.);
#401=VECTOR('',#1351,10.);
#402=VECTOR('',#1352,10.);
#403=VECTOR('',#1359,10.);
#404=VECTOR('',#1362,10.);
#405=VECTOR('',#1363,10.);
#406=VECTOR('',#1364,10.);
#407=VECTOR('',#1371,10.);
#408=VECTOR('',#1374,10.);
#409=VECTOR('',#1375,10.);
#410=VECTOR('',#1376,10.);
#411=VECTOR('',#1383,10.);
#412=VECTOR('',#1386,10.);
#413=VECTOR('',#1387,10.);
#414=VECTOR('',#1388,10.);
#415=VECTOR('',#1397,10.);
#416=VECTOR('',#1398,10.);
#417=VECTOR('',#1399,10.);
#418=VECTOR('',#1400,10.);
#419=VECTOR('',#1407,10.);
#420=VECTOR('',#1410,10.);
#421=VECTOR('',#1411,10.);
#422=VECTOR('',#1412,10.);
#423=VECTOR('',#1419,10.);
#424=VECTOR('',#1422,10.);
#425=VECTOR('',#1423,10.);
#426=VECTOR('',#1424,10.);
#427=VECTOR('',#1431,10.);
#428=VECTOR('',#1434,10.);
#429=VECTOR('',#1435,10.);
#430=VECTOR('',#1436,10.);
#431=VECTOR('',#1445,10.);
#432=VECTOR('',#1446,10.);
#433=VECTOR('',#1447,10.);
#434=VECTOR('',#1448,10.);
#435=VECTOR('',#1455,10.);
#436=VECTOR('',#1458,10.);
#437=VECTOR('',#1459,10.);
#438=VECTOR('',#1460,10.);
#439=VECTOR('',#1467,10.);
#440=VECTOR('',#1470,10.);
#441=VECTOR('',#1471,10.);
#442=VECTOR('',#1472,10.);
#443=VECTOR('',#1479,10.);
#444=VECTOR('',#1482,10.);
#445=VECTOR('',#1483,10.);
#446=VECTOR('',#1484,10.);
#447=VECTOR('',#1495,1.45000000000001);
#448=VECTOR('',#1502,1.45);
#449=VECTOR('',#1509,1.45);
#450=VECTOR('',#1516,1.45);
#451=VECTOR('',#1521,10.);
#452=VECTOR('',#1522,10.);
#453=VECTOR('',#1523,10.);
#454=VECTOR('',#1524,10.);
#455=VECTOR('',#1527,10.);
#456=VECTOR('',#1528,10.);
#457=VECTOR('',#1529,10.);
#458=VECTOR('',#1532,10.);
#459=VECTOR('',#1533,10.);
#460=VECTOR('',#1534,10.);
#461=VECTOR('',#1537,10.);
#462=VECTOR('',#1538,10.);
#463=VERTEX_POINT('',#1545);
#464=VERTEX_POINT('',#1546);
#465=VERTEX_POINT('',#1548);
#466=VERTEX_POINT('',#1550);
#467=VERTEX_POINT('',#1554);
#468=VERTEX_POINT('',#1556);
#469=VERTEX_POINT('',#1558);
#470=VERTEX_POINT('',#1560);
#471=VERTEX_POINT('',#1564);
#472=VERTEX_POINT('',#1565);
#473=VERTEX_POINT('',#1567);
#474=VERTEX_POINT('',#1569);
#475=VERTEX_POINT('',#1573);
#476=VERTEX_POINT('',#1575);
#477=VERTEX_POINT('',#1579);
#478=VERTEX_POINT('',#1580);
#479=VERTEX_POINT('',#1583);
#480=VERTEX_POINT('',#1587);
#481=VERTEX_POINT('',#1589);
#482=VERTEX_POINT('',#1593);
#483=VERTEX_POINT('',#1595);
#484=VERTEX_POINT('',#1600);
#485=VERTEX_POINT('',#1604);
#486=VERTEX_POINT('',#1606);
#487=VERTEX_POINT('',#1608);
#488=VERTEX_POINT('',#1610);
#489=VERTEX_POINT('',#1612);
#490=VERTEX_POINT('',#1623);
#491=VERTEX_POINT('',#1625);
#492=VERTEX_POINT('',#1628);
#493=VERTEX_POINT('',#1630);
#494=VERTEX_POINT('',#1632);
#495=VERTEX_POINT('',#1634);
#496=VERTEX_POINT('',#1637);
#497=VERTEX_POINT('',#1641);
#498=VERTEX_POINT('',#1645);
#499=VERTEX_POINT('',#1649);
#500=VERTEX_POINT('',#1653);
#501=VERTEX_POINT('',#1657);
#502=VERTEX_POINT('',#1665);
#503=VERTEX_POINT('',#1666);
#504=VERTEX_POINT('',#1668);
#505=VERTEX_POINT('',#1670);
#506=VERTEX_POINT('',#1674);
#507=VERTEX_POINT('',#1676);
#508=VERTEX_POINT('',#1680);
#509=VERTEX_POINT('',#1682);
#510=VERTEX_POINT('',#1686);
#511=VERTEX_POINT('',#1688);
#512=VERTEX_POINT('',#1692);
#513=VERTEX_POINT('',#1694);
#514=VERTEX_POINT('',#1698);
#515=VERTEX_POINT('',#1700);
#516=VERTEX_POINT('',#1704);
#517=VERTEX_POINT('',#1706);
#518=VERTEX_POINT('',#1713);
#519=VERTEX_POINT('',#1714);
#520=VERTEX_POINT('',#1716);
#521=VERTEX_POINT('',#1718);
#522=VERTEX_POINT('',#1722);
#523=VERTEX_POINT('',#1724);
#524=VERTEX_POINT('',#1728);
#525=VERTEX_POINT('',#1730);
#526=VERTEX_POINT('',#1734);
#527=VERTEX_POINT('',#1736);
#528=VERTEX_POINT('',#1740);
#529=VERTEX_POINT('',#1742);
#530=VERTEX_POINT('',#1746);
#531=VERTEX_POINT('',#1748);
#532=VERTEX_POINT('',#1752);
#533=VERTEX_POINT('',#1754);
#534=VERTEX_POINT('',#1761);
#535=VERTEX_POINT('',#1762);
#536=VERTEX_POINT('',#1764);
#537=VERTEX_POINT('',#1766);
#538=VERTEX_POINT('',#1770);
#539=VERTEX_POINT('',#1772);
#540=VERTEX_POINT('',#1776);
#541=VERTEX_POINT('',#1778);
#542=VERTEX_POINT('',#1782);
#543=VERTEX_POINT('',#1784);
#544=VERTEX_POINT('',#1788);
#545=VERTEX_POINT('',#1790);
#546=VERTEX_POINT('',#1794);
#547=VERTEX_POINT('',#1796);
#548=VERTEX_POINT('',#1800);
#549=VERTEX_POINT('',#1802);
#550=VERTEX_POINT('',#1809);
#551=VERTEX_POINT('',#1811);
#552=VERTEX_POINT('',#1815);
#553=VERTEX_POINT('',#1817);
#554=VERTEX_POINT('',#1821);
#555=VERTEX_POINT('',#1823);
#556=VERTEX_POINT('',#1827);
#557=VERTEX_POINT('',#1829);
#558=VERTEX_POINT('',#1833);
#559=VERTEX_POINT('',#1834);
#560=VERTEX_POINT('',#1836);
#561=VERTEX_POINT('',#1838);
#562=VERTEX_POINT('',#1842);
#563=VERTEX_POINT('',#1844);
#564=VERTEX_POINT('',#1848);
#565=VERTEX_POINT('',#1850);
#566=EDGE_CURVE('',#463,#464,#233,.T.);
#567=EDGE_CURVE('',#465,#463,#234,.T.);
#568=EDGE_CURVE('',#466,#465,#235,.T.);
#569=EDGE_CURVE('',#466,#464,#236,.T.);
#570=EDGE_CURVE('',#464,#467,#237,.T.);
#571=EDGE_CURVE('',#468,#466,#238,.T.);
#572=EDGE_CURVE('',#468,#469,#239,.T.);
#573=EDGE_CURVE('',#470,#469,#240,.T.);
#574=EDGE_CURVE('',#467,#470,#241,.T.);
#575=EDGE_CURVE('',#471,#472,#242,.T.);
#576=EDGE_CURVE('',#473,#472,#243,.T.);
#577=EDGE_CURVE('',#473,#474,#244,.T.);
#578=EDGE_CURVE('',#474,#471,#245,.T.);
#579=EDGE_CURVE('',#469,#475,#246,.T.);
#580=EDGE_CURVE('',#476,#468,#247,.T.);
#581=EDGE_CURVE('',#476,#475,#248,.T.);
#582=EDGE_CURVE('',#477,#478,#249,.T.);
#583=EDGE_CURVE('',#471,#477,#250,.T.);
#584=EDGE_CURVE('',#474,#479,#251,.T.);
#585=EDGE_CURVE('',#479,#478,#252,.T.);
#586=EDGE_CURVE('',#478,#480,#253,.T.);
#587=EDGE_CURVE('',#479,#481,#254,.T.);
#588=EDGE_CURVE('',#481,#480,#255,.T.);
#589=EDGE_CURVE('',#482,#470,#256,.T.);
#590=EDGE_CURVE('',#483,#482,#257,.T.);
#591=EDGE_CURVE('',#467,#483,#258,.T.);
#592=EDGE_CURVE('',#472,#475,#259,.T.);
#593=EDGE_CURVE('',#484,#471,#260,.T.);
#594=EDGE_CURVE('',#482,#484,#261,.T.);
#595=EDGE_CURVE('',#484,#485,#262,.T.);
#596=EDGE_CURVE('',#486,#485,#263,.T.);
#597=EDGE_CURVE('',#487,#486,#264,.T.);
#598=EDGE_CURVE('',#488,#487,#265,.T.);
#599=EDGE_CURVE('',#488,#489,#266,.T.);
#600=EDGE_CURVE('',#483,#489,#267,.T.);
#601=EDGE_CURVE('',#465,#481,#268,.T.);
#602=EDGE_CURVE('',#480,#463,#269,.T.);
#603=EDGE_CURVE('',#485,#477,#270,.T.);
#604=EDGE_CURVE('',#473,#476,#271,.T.);
#605=EDGE_CURVE('',#489,#490,#272,.T.);
#606=EDGE_CURVE('',#490,#491,#273,.T.);
#607=EDGE_CURVE('',#491,#486,#274,.T.);
#608=EDGE_CURVE('',#492,#492,#59,.T.);
#609=EDGE_CURVE('',#493,#493,#60,.T.);
#610=EDGE_CURVE('',#494,#494,#61,.T.);
#611=EDGE_CURVE('',#495,#495,#62,.T.);
#612=EDGE_CURVE('',#493,#496,#275,.T.);
#613=EDGE_CURVE('',#496,#496,#63,.T.);
#614=EDGE_CURVE('',#492,#497,#276,.T.);
#615=EDGE_CURVE('',#497,#497,#64,.T.);
#616=EDGE_CURVE('',#494,#498,#277,.T.);
#617=EDGE_CURVE('',#498,#498,#65,.T.);
#618=EDGE_CURVE('',#495,#499,#278,.T.);
#619=EDGE_CURVE('',#499,#499,#66,.T.);
#620=EDGE_CURVE('',#487,#500,#279,.T.);
#621=EDGE_CURVE('',#500,#491,#280,.T.);
#622=EDGE_CURVE('',#500,#501,#281,.T.);
#623=EDGE_CURVE('',#501,#490,#282,.T.);
#624=EDGE_CURVE('',#501,#488,#283,.T.);
#625=EDGE_CURVE('',#502,#503,#284,.T.);
#626=EDGE_CURVE('',#504,#502,#285,.T.);
#627=EDGE_CURVE('',#505,#504,#286,.T.);
#628=EDGE_CURVE('',#505,#503,#287,.T.);
#629=EDGE_CURVE('',#503,#506,#67,.T.);
#630=EDGE_CURVE('',#507,#505,#68,.T.);
#631=EDGE_CURVE('',#507,#506,#288,.T.);
#632=EDGE_CURVE('',#506,#508,#289,.T.);
#633=EDGE_CURVE('',#509,#507,#290,.T.);
#634=EDGE_CURVE('',#509,#508,#291,.T.);
#635=EDGE_CURVE('',#508,#510,#69,.T.);
#636=EDGE_CURVE('',#511,#509,#70,.T.);
#637=EDGE_CURVE('',#511,#510,#292,.T.);
#638=EDGE_CURVE('',#510,#512,#293,.T.);
#639=EDGE_CURVE('',#513,#511,#294,.T.);
#640=EDGE_CURVE('',#513,#512,#295,.T.);
#641=EDGE_CURVE('',#512,#514,#71,.T.);
#642=EDGE_CURVE('',#515,#513,#72,.T.);
#643=EDGE_CURVE('',#515,#514,#296,.T.);
#644=EDGE_CURVE('',#514,#516,#297,.T.);
#645=EDGE_CURVE('',#517,#515,#298,.T.);
#646=EDGE_CURVE('',#517,#516,#299,.T.);
#647=EDGE_CURVE('',#516,#502,#73,.T.);
#648=EDGE_CURVE('',#504,#517,#74,.T.);
#649=EDGE_CURVE('',#518,#519,#300,.T.);
#650=EDGE_CURVE('',#520,#518,#301,.T.);
#651=EDGE_CURVE('',#521,#520,#302,.T.);
#652=EDGE_CURVE('',#521,#519,#303,.T.);
#653=EDGE_CURVE('',#519,#522,#75,.T.);
#654=EDGE_CURVE('',#523,#521,#76,.T.);
#655=EDGE_CURVE('',#523,#522,#304,.T.);
#656=EDGE_CURVE('',#522,#524,#305,.T.);
#657=EDGE_CURVE('',#525,#523,#306,.T.);
#658=EDGE_CURVE('',#525,#524,#307,.T.);
#659=EDGE_CURVE('',#524,#526,#77,.T.);
#660=EDGE_CURVE('',#527,#525,#78,.T.);
#661=EDGE_CURVE('',#527,#526,#308,.T.);
#662=EDGE_CURVE('',#526,#528,#309,.T.);
#663=EDGE_CURVE('',#529,#527,#310,.T.);
#664=EDGE_CURVE('',#529,#528,#311,.T.);
#665=EDGE_CURVE('',#528,#530,#79,.T.);
#666=EDGE_CURVE('',#531,#529,#80,.T.);
#667=EDGE_CURVE('',#531,#530,#312,.T.);
#668=EDGE_CURVE('',#530,#532,#313,.T.);
#669=EDGE_CURVE('',#533,#531,#314,.T.);
#670=EDGE_CURVE('',#533,#532,#315,.T.);
#671=EDGE_CURVE('',#532,#518,#81,.T.);
#672=EDGE_CURVE('',#520,#533,#82,.T.);
#673=EDGE_CURVE('',#534,#535,#316,.T.);
#674=EDGE_CURVE('',#536,#534,#317,.T.);
#675=EDGE_CURVE('',#537,#536,#318,.T.);
#676=EDGE_CURVE('',#537,#535,#319,.T.);
#677=EDGE_CURVE('',#535,#538,#83,.T.);
#678=EDGE_CURVE('',#539,#537,#84,.T.);
#679=EDGE_CURVE('',#539,#538,#320,.T.);
#680=EDGE_CURVE('',#538,#540,#321,.T.);
#681=EDGE_CURVE('',#541,#539,#322,.T.);
#682=EDGE_CURVE('',#541,#540,#323,.T.);
#683=EDGE_CURVE('',#540,#542,#85,.T.);
#684=EDGE_CURVE('',#543,#541,#86,.T.);
#685=EDGE_CURVE('',#543,#542,#324,.T.);
#686=EDGE_CURVE('',#542,#544,#325,.T.);
#687=EDGE_CURVE('',#545,#543,#326,.T.);
#688=EDGE_CURVE('',#545,#544,#327,.T.);
#689=EDGE_CURVE('',#544,#546,#87,.T.);
#690=EDGE_CURVE('',#547,#545,#88,.T.);
#691=EDGE_CURVE('',#547,#546,#328,.T.);
#692=EDGE_CURVE('',#546,#548,#329,.T.);
#693=EDGE_CURVE('',#549,#547,#330,.T.);
#694=EDGE_CURVE('',#549,#548,#331,.T.);
#695=EDGE_CURVE('',#548,#534,#89,.T.);
#696=EDGE_CURVE('',#536,#549,#90,.T.);
#697=EDGE_CURVE('',#550,#550,#91,.T.);
#698=EDGE_CURVE('',#550,#551,#332,.T.);
#699=EDGE_CURVE('',#551,#551,#92,.T.);
#700=EDGE_CURVE('',#552,#552,#93,.T.);
#701=EDGE_CURVE('',#552,#553,#333,.T.);
#702=EDGE_CURVE('',#553,#553,#94,.T.);
#703=EDGE_CURVE('',#554,#554,#95,.T.);
#704=EDGE_CURVE('',#554,#555,#334,.T.);
#705=EDGE_CURVE('',#555,#555,#96,.T.);
#706=EDGE_CURVE('',#556,#556,#97,.T.);
#707=EDGE_CURVE('',#556,#557,#335,.T.);
#708=EDGE_CURVE('',#557,#557,#98,.T.);
#709=EDGE_CURVE('',#558,#559,#336,.T.);
#710=EDGE_CURVE('',#558,#560,#337,.T.);
#711=EDGE_CURVE('',#561,#560,#338,.T.);
#712=EDGE_CURVE('',#559,#561,#339,.T.);
#713=EDGE_CURVE('',#559,#562,#340,.T.);
#714=EDGE_CURVE('',#563,#561,#341,.T.);
#715=EDGE_CURVE('',#562,#563,#342,.T.);
#716=EDGE_CURVE('',#562,#564,#343,.T.);
#717=EDGE_CURVE('',#565,#563,#344,.T.);
#718=EDGE_CURVE('',#564,#565,#345,.T.);
#719=EDGE_CURVE('',#564,#558,#346,.T.);
#720=EDGE_CURVE('',#560,#565,#347,.T.);
#721=ORIENTED_EDGE('',*,*,#566,.F.);
#722=ORIENTED_EDGE('',*,*,#567,.F.);
#723=ORIENTED_EDGE('',*,*,#568,.F.);
#724=ORIENTED_EDGE('',*,*,#569,.T.);
#725=ORIENTED_EDGE('',*,*,#570,.F.);
#726=ORIENTED_EDGE('',*,*,#569,.F.);
#727=ORIENTED_EDGE('',*,*,#571,.F.);
#728=ORIENTED_EDGE('',*,*,#572,.T.);
#729=ORIENTED_EDGE('',*,*,#573,.F.);
#730=ORIENTED_EDGE('',*,*,#574,.F.);
#731=ORIENTED_EDGE('',*,*,#575,.T.);
#732=ORIENTED_EDGE('',*,*,#576,.F.);
#733=ORIENTED_EDGE('',*,*,#577,.T.);
#734=ORIENTED_EDGE('',*,*,#578,.T.);
#735=ORIENTED_EDGE('',*,*,#579,.F.);
#736=ORIENTED_EDGE('',*,*,#572,.F.);
#737=ORIENTED_EDGE('',*,*,#580,.F.);
#738=ORIENTED_EDGE('',*,*,#581,.T.);
#739=ORIENTED_EDGE('',*,*,#582,.F.);
#740=ORIENTED_EDGE('',*,*,#583,.F.);
#741=ORIENTED_EDGE('',*,*,#578,.F.);
#742=ORIENTED_EDGE('',*,*,#584,.T.);
#743=ORIENTED_EDGE('',*,*,#585,.T.);
#744=ORIENTED_EDGE('',*,*,#586,.F.);
#745=ORIENTED_EDGE('',*,*,#585,.F.);
#746=ORIENTED_EDGE('',*,*,#587,.T.);
#747=ORIENTED_EDGE('',*,*,#588,.T.);
#748=ORIENTED_EDGE('',*,*,#574,.T.);
#749=ORIENTED_EDGE('',*,*,#589,.F.);
#750=ORIENTED_EDGE('',*,*,#590,.F.);
#751=ORIENTED_EDGE('',*,*,#591,.F.);
#752=ORIENTED_EDGE('',*,*,#573,.T.);
#753=ORIENTED_EDGE('',*,*,#579,.T.);
#754=ORIENTED_EDGE('',*,*,#592,.F.);
#755=ORIENTED_EDGE('',*,*,#575,.F.);
#756=ORIENTED_EDGE('',*,*,#593,.F.);
#757=ORIENTED_EDGE('',*,*,#594,.F.);
#758=ORIENTED_EDGE('',*,*,#589,.T.);
#759=ORIENTED_EDGE('',*,*,#590,.T.);
#760=ORIENTED_EDGE('',*,*,#594,.T.);
#761=ORIENTED_EDGE('',*,*,#595,.T.);
#762=ORIENTED_EDGE('',*,*,#596,.F.);
#763=ORIENTED_EDGE('',*,*,#597,.F.);
#764=ORIENTED_EDGE('',*,*,#598,.F.);
#765=ORIENTED_EDGE('',*,*,#599,.T.);
#766=ORIENTED_EDGE('',*,*,#600,.F.);
#767=ORIENTED_EDGE('',*,*,#601,.F.);
#768=ORIENTED_EDGE('',*,*,#567,.T.);
#769=ORIENTED_EDGE('',*,*,#602,.F.);
#770=ORIENTED_EDGE('',*,*,#588,.F.);
#771=ORIENTED_EDGE('',*,*,#583,.T.);
#772=ORIENTED_EDGE('',*,*,#603,.F.);
#773=ORIENTED_EDGE('',*,*,#595,.F.);
#774=ORIENTED_EDGE('',*,*,#593,.T.);
#775=ORIENTED_EDGE('',*,*,#592,.T.);
#776=ORIENTED_EDGE('',*,*,#581,.F.);
#777=ORIENTED_EDGE('',*,*,#604,.F.);
#778=ORIENTED_EDGE('',*,*,#576,.T.);
#779=ORIENTED_EDGE('',*,*,#602,.T.);
#780=ORIENTED_EDGE('',*,*,#566,.T.);
#781=ORIENTED_EDGE('',*,*,#570,.T.);
#782=ORIENTED_EDGE('',*,*,#591,.T.);
#783=ORIENTED_EDGE('',*,*,#600,.T.);
#784=ORIENTED_EDGE('',*,*,#605,.T.);
#785=ORIENTED_EDGE('',*,*,#606,.T.);
#786=ORIENTED_EDGE('',*,*,#607,.T.);
#787=ORIENTED_EDGE('',*,*,#596,.T.);
#788=ORIENTED_EDGE('',*,*,#603,.T.);
#789=ORIENTED_EDGE('',*,*,#582,.T.);
#790=ORIENTED_EDGE('',*,*,#586,.T.);
#791=ORIENTED_EDGE('',*,*,#608,.T.);
#792=ORIENTED_EDGE('',*,*,#609,.T.);
#793=ORIENTED_EDGE('',*,*,#610,.T.);
#794=ORIENTED_EDGE('',*,*,#611,.T.);
#795=ORIENTED_EDGE('',*,*,#609,.F.);
#796=ORIENTED_EDGE('',*,*,#612,.T.);
#797=ORIENTED_EDGE('',*,*,#613,.T.);
#798=ORIENTED_EDGE('',*,*,#612,.F.);
#799=ORIENTED_EDGE('',*,*,#608,.F.);
#800=ORIENTED_EDGE('',*,*,#614,.T.);
#801=ORIENTED_EDGE('',*,*,#615,.T.);
#802=ORIENTED_EDGE('',*,*,#614,.F.);
#803=ORIENTED_EDGE('',*,*,#610,.F.);
#804=ORIENTED_EDGE('',*,*,#616,.T.);
#805=ORIENTED_EDGE('',*,*,#617,.T.);
#806=ORIENTED_EDGE('',*,*,#616,.F.);
#807=ORIENTED_EDGE('',*,*,#611,.F.);
#808=ORIENTED_EDGE('',*,*,#618,.T.);
#809=ORIENTED_EDGE('',*,*,#619,.T.);
#810=ORIENTED_EDGE('',*,*,#618,.F.);
#811=ORIENTED_EDGE('',*,*,#620,.F.);
#812=ORIENTED_EDGE('',*,*,#597,.T.);
#813=ORIENTED_EDGE('',*,*,#607,.F.);
#814=ORIENTED_EDGE('',*,*,#621,.F.);
#815=ORIENTED_EDGE('',*,*,#622,.F.);
#816=ORIENTED_EDGE('',*,*,#621,.T.);
#817=ORIENTED_EDGE('',*,*,#606,.F.);
#818=ORIENTED_EDGE('',*,*,#623,.F.);
#819=ORIENTED_EDGE('',*,*,#624,.F.);
#820=ORIENTED_EDGE('',*,*,#623,.T.);
#821=ORIENTED_EDGE('',*,*,#605,.F.);
#822=ORIENTED_EDGE('',*,*,#599,.F.);
#823=ORIENTED_EDGE('',*,*,#601,.T.);
#824=ORIENTED_EDGE('',*,*,#587,.F.);
#825=ORIENTED_EDGE('',*,*,#584,.F.);
#826=ORIENTED_EDGE('',*,*,#577,.F.);
#827=ORIENTED_EDGE('',*,*,#604,.T.);
#828=ORIENTED_EDGE('',*,*,#580,.T.);
#829=ORIENTED_EDGE('',*,*,#571,.T.);
#830=ORIENTED_EDGE('',*,*,#568,.T.);
#831=ORIENTED_EDGE('',*,*,#624,.T.);
#832=ORIENTED_EDGE('',*,*,#598,.T.);
#833=ORIENTED_EDGE('',*,*,#620,.T.);
#834=ORIENTED_EDGE('',*,*,#622,.T.);
#835=ORIENTED_EDGE('',*,*,#619,.F.);
#836=ORIENTED_EDGE('',*,*,#617,.F.);
#837=ORIENTED_EDGE('',*,*,#615,.F.);
#838=ORIENTED_EDGE('',*,*,#613,.F.);
#839=ORIENTED_EDGE('',*,*,#625,.F.);
#840=ORIENTED_EDGE('',*,*,#626,.F.);
#841=ORIENTED_EDGE('',*,*,#627,.F.);
#842=ORIENTED_EDGE('',*,*,#628,.T.);
#843=ORIENTED_EDGE('',*,*,#629,.F.);
#844=ORIENTED_EDGE('',*,*,#628,.F.);
#845=ORIENTED_EDGE('',*,*,#630,.F.);
#846=ORIENTED_EDGE('',*,*,#631,.T.);
#847=ORIENTED_EDGE('',*,*,#632,.F.);
#848=ORIENTED_EDGE('',*,*,#631,.F.);
#849=ORIENTED_EDGE('',*,*,#633,.F.);
#850=ORIENTED_EDGE('',*,*,#634,.T.);
#851=ORIENTED_EDGE('',*,*,#635,.F.);
#852=ORIENTED_EDGE('',*,*,#634,.F.);
#853=ORIENTED_EDGE('',*,*,#636,.F.);
#854=ORIENTED_EDGE('',*,*,#637,.T.);
#855=ORIENTED_EDGE('',*,*,#638,.F.);
#856=ORIENTED_EDGE('',*,*,#637,.F.);
#857=ORIENTED_EDGE('',*,*,#639,.F.);
#858=ORIENTED_EDGE('',*,*,#640,.T.);
#859=ORIENTED_EDGE('',*,*,#641,.F.);
#860=ORIENTED_EDGE('',*,*,#640,.F.);
#861=ORIENTED_EDGE('',*,*,#642,.F.);
#862=ORIENTED_EDGE('',*,*,#643,.T.);
#863=ORIENTED_EDGE('',*,*,#644,.F.);
#864=ORIENTED_EDGE('',*,*,#643,.F.);
#865=ORIENTED_EDGE('',*,*,#645,.F.);
#866=ORIENTED_EDGE('',*,*,#646,.T.);
#867=ORIENTED_EDGE('',*,*,#647,.F.);
#868=ORIENTED_EDGE('',*,*,#646,.F.);
#869=ORIENTED_EDGE('',*,*,#648,.F.);
#870=ORIENTED_EDGE('',*,*,#626,.T.);
#871=ORIENTED_EDGE('',*,*,#649,.F.);
#872=ORIENTED_EDGE('',*,*,#650,.F.);
#873=ORIENTED_EDGE('',*,*,#651,.F.);
#874=ORIENTED_EDGE('',*,*,#652,.T.);
#875=ORIENTED_EDGE('',*,*,#653,.F.);
#876=ORIENTED_EDGE('',*,*,#652,.F.);
#877=ORIENTED_EDGE('',*,*,#654,.F.);
#878=ORIENTED_EDGE('',*,*,#655,.T.);
#879=ORIENTED_EDGE('',*,*,#656,.F.);
#880=ORIENTED_EDGE('',*,*,#655,.F.);
#881=ORIENTED_EDGE('',*,*,#657,.F.);
#882=ORIENTED_EDGE('',*,*,#658,.T.);
#883=ORIENTED_EDGE('',*,*,#659,.F.);
#884=ORIENTED_EDGE('',*,*,#658,.F.);
#885=ORIENTED_EDGE('',*,*,#660,.F.);
#886=ORIENTED_EDGE('',*,*,#661,.T.);
#887=ORIENTED_EDGE('',*,*,#662,.F.);
#888=ORIENTED_EDGE('',*,*,#661,.F.);
#889=ORIENTED_EDGE('',*,*,#663,.F.);
#890=ORIENTED_EDGE('',*,*,#664,.T.);
#891=ORIENTED_EDGE('',*,*,#665,.F.);
#892=ORIENTED_EDGE('',*,*,#664,.F.);
#893=ORIENTED_EDGE('',*,*,#666,.F.);
#894=ORIENTED_EDGE('',*,*,#667,.T.);
#895=ORIENTED_EDGE('',*,*,#668,.F.);
#896=ORIENTED_EDGE('',*,*,#667,.F.);
#897=ORIENTED_EDGE('',*,*,#669,.F.);
#898=ORIENTED_EDGE('',*,*,#670,.T.);
#899=ORIENTED_EDGE('',*,*,#671,.F.);
#900=ORIENTED_EDGE('',*,*,#670,.F.);
#901=ORIENTED_EDGE('',*,*,#672,.F.);
#902=ORIENTED_EDGE('',*,*,#650,.T.);
#903=ORIENTED_EDGE('',*,*,#673,.F.);
#904=ORIENTED_EDGE('',*,*,#674,.F.);
#905=ORIENTED_EDGE('',*,*,#675,.F.);
#906=ORIENTED_EDGE('',*,*,#676,.T.);
#907=ORIENTED_EDGE('',*,*,#677,.F.);
#908=ORIENTED_EDGE('',*,*,#676,.F.);
#909=ORIENTED_EDGE('',*,*,#678,.F.);
#910=ORIENTED_EDGE('',*,*,#679,.T.);
#911=ORIENTED_EDGE('',*,*,#680,.F.);
#912=ORIENTED_EDGE('',*,*,#679,.F.);
#913=ORIENTED_EDGE('',*,*,#681,.F.);
#914=ORIENTED_EDGE('',*,*,#682,.T.);
#915=ORIENTED_EDGE('',*,*,#683,.F.);
#916=ORIENTED_EDGE('',*,*,#682,.F.);
#917=ORIENTED_EDGE('',*,*,#684,.F.);
#918=ORIENTED_EDGE('',*,*,#685,.T.);
#919=ORIENTED_EDGE('',*,*,#686,.F.);
#920=ORIENTED_EDGE('',*,*,#685,.F.);
#921=ORIENTED_EDGE('',*,*,#687,.F.);
#922=ORIENTED_EDGE('',*,*,#688,.T.);
#923=ORIENTED_EDGE('',*,*,#689,.F.);
#924=ORIENTED_EDGE('',*,*,#688,.F.);
#925=ORIENTED_EDGE('',*,*,#690,.F.);
#926=ORIENTED_EDGE('',*,*,#691,.T.);
#927=ORIENTED_EDGE('',*,*,#692,.F.);
#928=ORIENTED_EDGE('',*,*,#691,.F.);
#929=ORIENTED_EDGE('',*,*,#693,.F.);
#930=ORIENTED_EDGE('',*,*,#694,.T.);
#931=ORIENTED_EDGE('',*,*,#695,.F.);
#932=ORIENTED_EDGE('',*,*,#694,.F.);
#933=ORIENTED_EDGE('',*,*,#696,.F.);
#934=ORIENTED_EDGE('',*,*,#674,.T.);
#935=ORIENTED_EDGE('',*,*,#697,.F.);
#936=ORIENTED_EDGE('',*,*,#698,.T.);
#937=ORIENTED_EDGE('',*,*,#699,.T.);
#938=ORIENTED_EDGE('',*,*,#698,.F.);
#939=ORIENTED_EDGE('',*,*,#700,.F.);
#940=ORIENTED_EDGE('',*,*,#701,.T.);
#941=ORIENTED_EDGE('',*,*,#702,.T.);
#942=ORIENTED_EDGE('',*,*,#701,.F.);
#943=ORIENTED_EDGE('',*,*,#703,.F.);
#944=ORIENTED_EDGE('',*,*,#704,.T.);
#945=ORIENTED_EDGE('',*,*,#705,.T.);
#946=ORIENTED_EDGE('',*,*,#704,.F.);
#947=ORIENTED_EDGE('',*,*,#706,.F.);
#948=ORIENTED_EDGE('',*,*,#707,.T.);
#949=ORIENTED_EDGE('',*,*,#708,.T.);
#950=ORIENTED_EDGE('',*,*,#707,.F.);
#951=ORIENTED_EDGE('',*,*,#709,.F.);
#952=ORIENTED_EDGE('',*,*,#710,.T.);
#953=ORIENTED_EDGE('',*,*,#711,.F.);
#954=ORIENTED_EDGE('',*,*,#712,.F.);
#955=ORIENTED_EDGE('',*,*,#713,.F.);
#956=ORIENTED_EDGE('',*,*,#712,.T.);
#957=ORIENTED_EDGE('',*,*,#714,.F.);
#958=ORIENTED_EDGE('',*,*,#715,.F.);
#959=ORIENTED_EDGE('',*,*,#716,.F.);
#960=ORIENTED_EDGE('',*,*,#715,.T.);
#961=ORIENTED_EDGE('',*,*,#717,.F.);
#962=ORIENTED_EDGE('',*,*,#718,.F.);
#963=ORIENTED_EDGE('',*,*,#719,.F.);
#964=ORIENTED_EDGE('',*,*,#718,.T.);
#965=ORIENTED_EDGE('',*,*,#720,.F.);
#966=ORIENTED_EDGE('',*,*,#710,.F.);
#967=ORIENTED_EDGE('',*,*,#720,.T.);
#968=ORIENTED_EDGE('',*,*,#717,.T.);
#969=ORIENTED_EDGE('',*,*,#714,.T.);
#970=ORIENTED_EDGE('',*,*,#711,.T.);
#971=ORIENTED_EDGE('',*,*,#697,.T.);
#972=ORIENTED_EDGE('',*,*,#700,.T.);
#973=ORIENTED_EDGE('',*,*,#703,.T.);
#974=ORIENTED_EDGE('',*,*,#706,.T.);
#975=ORIENTED_EDGE('',*,*,#686,.T.);
#976=ORIENTED_EDGE('',*,*,#689,.T.);
#977=ORIENTED_EDGE('',*,*,#692,.T.);
#978=ORIENTED_EDGE('',*,*,#695,.T.);
#979=ORIENTED_EDGE('',*,*,#673,.T.);
#980=ORIENTED_EDGE('',*,*,#677,.T.);
#981=ORIENTED_EDGE('',*,*,#680,.T.);
#982=ORIENTED_EDGE('',*,*,#683,.T.);
#983=ORIENTED_EDGE('',*,*,#662,.T.);
#984=ORIENTED_EDGE('',*,*,#665,.T.);
#985=ORIENTED_EDGE('',*,*,#668,.T.);
#986=ORIENTED_EDGE('',*,*,#671,.T.);
#987=ORIENTED_EDGE('',*,*,#649,.T.);
#988=ORIENTED_EDGE('',*,*,#653,.T.);
#989=ORIENTED_EDGE('',*,*,#656,.T.);
#990=ORIENTED_EDGE('',*,*,#659,.T.);
#991=ORIENTED_EDGE('',*,*,#638,.T.);
#992=ORIENTED_EDGE('',*,*,#641,.T.);
#993=ORIENTED_EDGE('',*,*,#644,.T.);
#994=ORIENTED_EDGE('',*,*,#647,.T.);
#995=ORIENTED_EDGE('',*,*,#625,.T.);
#996=ORIENTED_EDGE('',*,*,#629,.T.);
#997=ORIENTED_EDGE('',*,*,#632,.T.);
#998=ORIENTED_EDGE('',*,*,#635,.T.);
#999=ORIENTED_EDGE('',*,*,#719,.T.);
#1000=ORIENTED_EDGE('',*,*,#709,.T.);
#1001=ORIENTED_EDGE('',*,*,#713,.T.);
#1002=ORIENTED_EDGE('',*,*,#716,.T.);
#1003=ORIENTED_EDGE('',*,*,#699,.F.);
#1004=ORIENTED_EDGE('',*,*,#702,.F.);
#1005=ORIENTED_EDGE('',*,*,#705,.F.);
#1006=ORIENTED_EDGE('',*,*,#708,.F.);
#1007=ORIENTED_EDGE('',*,*,#687,.T.);
#1008=ORIENTED_EDGE('',*,*,#684,.T.);
#1009=ORIENTED_EDGE('',*,*,#681,.T.);
#1010=ORIENTED_EDGE('',*,*,#678,.T.);
#1011=ORIENTED_EDGE('',*,*,#675,.T.);
#1012=ORIENTED_EDGE('',*,*,#696,.T.);
#1013=ORIENTED_EDGE('',*,*,#693,.T.);
#1014=ORIENTED_EDGE('',*,*,#690,.T.);
#1015=ORIENTED_EDGE('',*,*,#663,.T.);
#1016=ORIENTED_EDGE('',*,*,#660,.T.);
#1017=ORIENTED_EDGE('',*,*,#657,.T.);
#1018=ORIENTED_EDGE('',*,*,#654,.T.);
#1019=ORIENTED_EDGE('',*,*,#651,.T.);
#1020=ORIENTED_EDGE('',*,*,#672,.T.);
#1021=ORIENTED_EDGE('',*,*,#669,.T.);
#1022=ORIENTED_EDGE('',*,*,#666,.T.);
#1023=ORIENTED_EDGE('',*,*,#639,.T.);
#1024=ORIENTED_EDGE('',*,*,#636,.T.);
#1025=ORIENTED_EDGE('',*,*,#633,.T.);
#1026=ORIENTED_EDGE('',*,*,#630,.T.);
#1027=ORIENTED_EDGE('',*,*,#627,.T.);
#1028=ORIENTED_EDGE('',*,*,#648,.T.);
#1029=ORIENTED_EDGE('',*,*,#645,.T.);
#1030=ORIENTED_EDGE('',*,*,#642,.T.);
#1031=PLANE('',#1138);
#1032=PLANE('',#1139);
#1033=PLANE('',#1140);
#1034=PLANE('',#1141);
#1035=PLANE('',#1142);
#1036=PLANE('',#1143);
#1037=PLANE('',#1144);
#1038=PLANE('',#1145);
#1039=PLANE('',#1146);
#1040=PLANE('',#1147);
#1041=PLANE('',#1148);
#1042=PLANE('',#1149);
#1043=PLANE('',#1150);
#1044=PLANE('',#1163);
#1045=PLANE('',#1164);
#1046=PLANE('',#1165);
#1047=PLANE('',#1166);
#1048=PLANE('',#1167);
#1049=PLANE('',#1168);
#1050=PLANE('',#1172);
#1051=PLANE('',#1176);
#1052=PLANE('',#1180);
#1053=PLANE('',#1184);
#1054=PLANE('',#1188);
#1055=PLANE('',#1192);
#1056=PLANE('',#1196);
#1057=PLANE('',#1200);
#1058=PLANE('',#1204);
#1059=PLANE('',#1208);
#1060=PLANE('',#1212);
#1061=PLANE('',#1228);
#1062=PLANE('',#1229);
#1063=PLANE('',#1230);
#1064=PLANE('',#1231);
#1065=PLANE('',#1232);
#1066=PLANE('',#1233);
#1067=ADVANCED_FACE('',(#99),#1031,.F.);
#1068=ADVANCED_FACE('',(#100),#1032,.F.);
#1069=ADVANCED_FACE('',(#101),#1033,.F.);
#1070=ADVANCED_FACE('',(#102),#1034,.F.);
#1071=ADVANCED_FACE('',(#103),#1035,.F.);
#1072=ADVANCED_FACE('',(#104),#1036,.F.);
#1073=ADVANCED_FACE('',(#105),#1037,.F.);
#1074=ADVANCED_FACE('',(#106),#1038,.F.);
#1075=ADVANCED_FACE('',(#107),#1039,.T.);
#1076=ADVANCED_FACE('',(#108),#1040,.T.);
#1077=ADVANCED_FACE('',(#109),#1041,.T.);
#1078=ADVANCED_FACE('',(#110),#1042,.T.);
#1079=ADVANCED_FACE('',(#111,#37,#38,#39,#40),#1043,.T.);
#1080=ADVANCED_FACE('',(#112),#17,.F.);
#1081=ADVANCED_FACE('',(#113),#18,.F.);
#1082=ADVANCED_FACE('',(#114),#19,.F.);
#1083=ADVANCED_FACE('',(#115),#20,.F.);
#1084=ADVANCED_FACE('',(#116),#1044,.T.);
#1085=ADVANCED_FACE('',(#117),#1045,.T.);
#1086=ADVANCED_FACE('',(#118),#1046,.T.);
#1087=ADVANCED_FACE('',(#119),#1047,.T.);
#1088=ADVANCED_FACE('',(#120,#41,#42,#43,#44),#1048,.F.);
#1089=ADVANCED_FACE('',(#121),#1049,.F.);
#1090=ADVANCED_FACE('',(#122),#21,.F.);
#1091=ADVANCED_FACE('',(#123),#1050,.F.);
#1092=ADVANCED_FACE('',(#124),#22,.F.);
#1093=ADVANCED_FACE('',(#125),#1051,.F.);
#1094=ADVANCED_FACE('',(#126),#23,.F.);
#1095=ADVANCED_FACE('',(#127),#1052,.F.);
#1096=ADVANCED_FACE('',(#128),#24,.F.);
#1097=ADVANCED_FACE('',(#129),#1053,.F.);
#1098=ADVANCED_FACE('',(#130),#25,.F.);
#1099=ADVANCED_FACE('',(#131),#1054,.F.);
#1100=ADVANCED_FACE('',(#132),#26,.F.);
#1101=ADVANCED_FACE('',(#133),#1055,.F.);
#1102=ADVANCED_FACE('',(#134),#27,.F.);
#1103=ADVANCED_FACE('',(#135),#1056,.F.);
#1104=ADVANCED_FACE('',(#136),#28,.F.);
#1105=ADVANCED_FACE('',(#137),#1057,.F.);
#1106=ADVANCED_FACE('',(#138),#29,.F.);
#1107=ADVANCED_FACE('',(#139),#1058,.F.);
#1108=ADVANCED_FACE('',(#140),#30,.F.);
#1109=ADVANCED_FACE('',(#141),#1059,.F.);
#1110=ADVANCED_FACE('',(#142),#31,.F.);
#1111=ADVANCED_FACE('',(#143),#1060,.F.);
#1112=ADVANCED_FACE('',(#144),#32,.F.);
#1113=ADVANCED_FACE('',(#145),#33,.F.);
#1114=ADVANCED_FACE('',(#146),#34,.F.);
#1115=ADVANCED_FACE('',(#147),#35,.F.);
#1116=ADVANCED_FACE('',(#148),#36,.F.);
#1117=ADVANCED_FACE('',(#149),#1061,.T.);
#1118=ADVANCED_FACE('',(#150),#1062,.T.);
#1119=ADVANCED_FACE('',(#151),#1063,.T.);
#1120=ADVANCED_FACE('',(#152),#1064,.T.);
#1121=ADVANCED_FACE('',(#153,#45,#46,#47,#48,#49,#50,#51),#1065,.T.);
#1122=ADVANCED_FACE('',(#154,#52,#53,#54,#55,#56,#57,#58),#1066,.F.);
#1123=CLOSED_SHELL('',(#1067,#1068,#1069,#1070,#1071,#1072,#1073,#1074,
#1075,#1076,#1077,#1078,#1079,#1080,#1081,#1082,#1083,#1084,#1085,#1086,
#1087,#1088));
#1124=CLOSED_SHELL('',(#1089,#1090,#1091,#1092,#1093,#1094,#1095,#1096,
#1097,#1098,#1099,#1100,#1101,#1102,#1103,#1104,#1105,#1106,#1107,#1108,
#1109,#1110,#1111,#1112,#1113,#1114,#1115,#1116,#1117,#1118,#1119,#1120,
#1121,#1122));
#1125=DERIVED_UNIT_ELEMENT(#1127,1.);
#1126=DERIVED_UNIT_ELEMENT(#1863,-3.);
#1127=(
MASS_UNIT()
NAMED_UNIT(*)
SI_UNIT(.KILO.,.GRAM.)
);
#1128=DERIVED_UNIT((#1125,#1126));
#1129=MEASURE_REPRESENTATION_ITEM('density measure',
POSITIVE_RATIO_MEASURE(7850.),#1128);
#1130=PROPERTY_DEFINITION_REPRESENTATION(#1135,#1132);
#1131=PROPERTY_DEFINITION_REPRESENTATION(#1136,#1133);
#1132=REPRESENTATION('material name',(#1134),#1860);
#1133=REPRESENTATION('density',(#1129),#1860);
#1134=DESCRIPTIVE_REPRESENTATION_ITEM('Steel','Steel');
#1135=PROPERTY_DEFINITION('material property','material name',#1870);
#1136=PROPERTY_DEFINITION('material property','density of part',#1870);
#1137=AXIS2_PLACEMENT_3D('',#1543,#1234,#1235);
#1138=AXIS2_PLACEMENT_3D('',#1544,#1236,#1237);
#1139=AXIS2_PLACEMENT_3D('',#1553,#1242,#1243);
#1140=AXIS2_PLACEMENT_3D('',#1563,#1249,#1250);
#1141=AXIS2_PLACEMENT_3D('',#1572,#1255,#1256);
#1142=AXIS2_PLACEMENT_3D('',#1578,#1260,#1261);
#1143=AXIS2_PLACEMENT_3D('',#1586,#1266,#1267);
#1144=AXIS2_PLACEMENT_3D('',#1592,#1271,#1272);
#1145=AXIS2_PLACEMENT_3D('',#1598,#1276,#1277);
#1146=AXIS2_PLACEMENT_3D('',#1603,#1281,#1282);
#1147=AXIS2_PLACEMENT_3D('',#1615,#1289,#1290);
#1148=AXIS2_PLACEMENT_3D('',#1618,#1293,#1294);
#1149=AXIS2_PLACEMENT_3D('',#1620,#1296,#1297);
#1150=AXIS2_PLACEMENT_3D('',#1622,#1299,#1300);
#1151=AXIS2_PLACEMENT_3D('',#1629,#1304,#1305);
#1152=AXIS2_PLACEMENT_3D('',#1631,#1306,#1307);
#1153=AXIS2_PLACEMENT_3D('',#1633,#1308,#1309);
#1154=AXIS2_PLACEMENT_3D('',#1635,#1310,#1311);
#1155=AXIS2_PLACEMENT_3D('',#1636,#1312,#1313);
#1156=AXIS2_PLACEMENT_3D('',#1639,#1315,#1316);
#1157=AXIS2_PLACEMENT_3D('',#1640,#1317,#1318);
#1158=AXIS2_PLACEMENT_3D('',#1643,#1320,#1321);
#1159=AXIS2_PLACEMENT_3D('',#1644,#1322,#1323);
#1160=AXIS2_PLACEMENT_3D('',#1647,#1325,#1326);
#1161=AXIS2_PLACEMENT_3D('',#1648,#1327,#1328);
#1162=AXIS2_PLACEMENT_3D('',#1651,#1330,#1331);
#1163=AXIS2_PLACEMENT_3D('',#1652,#1332,#1333);
#1164=AXIS2_PLACEMENT_3D('',#1656,#1336,#1337);
#1165=AXIS2_PLACEMENT_3D('',#1660,#1340,#1341);
#1166=AXIS2_PLACEMENT_3D('',#1662,#1343,#1344);
#1167=AXIS2_PLACEMENT_3D('',#1663,#1345,#1346);
#1168=AXIS2_PLACEMENT_3D('',#1664,#1347,#1348);
#1169=AXIS2_PLACEMENT_3D('',#1673,#1353,#1354);
#1170=AXIS2_PLACEMENT_3D('',#1675,#1355,#1356);
#1171=AXIS2_PLACEMENT_3D('',#1677,#1357,#1358);
#1172=AXIS2_PLACEMENT_3D('',#1679,#1360,#1361);
#1173=AXIS2_PLACEMENT_3D('',#1685,#1365,#1366);
#1174=AXIS2_PLACEMENT_3D('',#1687,#1367,#1368);
#1175=AXIS2_PLACEMENT_3D('',#1689,#1369,#1370);
#1176=AXIS2_PLACEMENT_3D('',#1691,#1372,#1373);
#1177=AXIS2_PLACEMENT_3D('',#1697,#1377,#1378);
#1178=AXIS2_PLACEMENT_3D('',#1699,#1379,#1380);
#1179=AXIS2_PLACEMENT_3D('',#1701,#1381,#1382);
#1180=AXIS2_PLACEMENT_3D('',#1703,#1384,#1385);
#1181=AXIS2_PLACEMENT_3D('',#1709,#1389,#1390);
#1182=AXIS2_PLACEMENT_3D('',#1710,#1391,#1392);
#1183=AXIS2_PLACEMENT_3D('',#1711,#1393,#1394);
#1184=AXIS2_PLACEMENT_3D('',#1712,#1395,#1396);
#1185=AXIS2_PLACEMENT_3D('',#1721,#1401,#1402);
#1186=AXIS2_PLACEMENT_3D('',#1723,#1403,#1404);
#1187=AXIS2_PLACEMENT_3D('',#1725,#1405,#1406);
#1188=AXIS2_PLACEMENT_3D('',#1727,#1408,#1409);
#1189=AXIS2_PLACEMENT_3D('',#1733,#1413,#1414);
#1190=AXIS2_PLACEMENT_3D('',#1735,#1415,#1416);
#1191=AXIS2_PLACEMENT_3D('',#1737,#1417,#1418);
#1192=AXIS2_PLACEMENT_3D('',#1739,#1420,#1421);
#1193=AXIS2_PLACEMENT_3D('',#1745,#1425,#1426);
#1194=AXIS2_PLACEMENT_3D('',#1747,#1427,#1428);
#1195=AXIS2_PLACEMENT_3D('',#1749,#1429,#1430);
#1196=AXIS2_PLACEMENT_3D('',#1751,#1432,#1433);
#1197=AXIS2_PLACEMENT_3D('',#1757,#1437,#1438);
#1198=AXIS2_PLACEMENT_3D('',#1758,#1439,#1440);
#1199=AXIS2_PLACEMENT_3D('',#1759,#1441,#1442);
#1200=AXIS2_PLACEMENT_3D('',#1760,#1443,#1444);
#1201=AXIS2_PLACEMENT_3D('',#1769,#1449,#1450);
#1202=AXIS2_PLACEMENT_3D('',#1771,#1451,#1452);
#1203=AXIS2_PLACEMENT_3D('',#1773,#1453,#1454);
#1204=AXIS2_PLACEMENT_3D('',#1775,#1456,#1457);
#1205=AXIS2_PLACEMENT_3D('',#1781,#1461,#1462);
#1206=AXIS2_PLACEMENT_3D('',#1783,#1463,#1464);
#1207=AXIS2_PLACEMENT_3D('',#1785,#1465,#1466);
#1208=AXIS2_PLACEMENT_3D('',#1787,#1468,#1469);
#1209=AXIS2_PLACEMENT_3D('',#1793,#1473,#1474);
#1210=AXIS2_PLACEMENT_3D('',#1795,#1475,#1476);
#1211=AXIS2_PLACEMENT_3D('',#1797,#1477,#1478);
#1212=AXIS2_PLACEMENT_3D('',#1799,#1480,#1481);
#1213=AXIS2_PLACEMENT_3D('',#1805,#1485,#1486);
#1214=AXIS2_PLACEMENT_3D('',#1806,#1487,#1488);
#1215=AXIS2_PLACEMENT_3D('',#1807,#1489,#1490);
#1216=AXIS2_PLACEMENT_3D('',#1808,#1491,#1492);
#1217=AXIS2_PLACEMENT_3D('',#1810,#1493,#1494);
#1218=AXIS2_PLACEMENT_3D('',#1813,#1496,#1497);
#1219=AXIS2_PLACEMENT_3D('',#1814,#1498,#1499);
#1220=AXIS2_PLACEMENT_3D('',#1816,#1500,#1501);
#1221=AXIS2_PLACEMENT_3D('',#1819,#1503,#1504);
#1222=AXIS2_PLACEMENT_3D('',#1820,#1505,#1506);
#1223=AXIS2_PLACEMENT_3D('',#1822,#1507,#1508);
#1224=AXIS2_PLACEMENT_3D('',#1825,#1510,#1511);
#1225=AXIS2_PLACEMENT_3D('',#1826,#1512,#1513);
#1226=AXIS2_PLACEMENT_3D('',#1828,#1514,#1515);
#1227=AXIS2_PLACEMENT_3D('',#1831,#1517,#1518);
#1228=AXIS2_PLACEMENT_3D('',#1832,#1519,#1520);
#1229=AXIS2_PLACEMENT_3D('',#1841,#1525,#1526);
#1230=AXIS2_PLACEMENT_3D('',#1847,#1530,#1531);
#1231=AXIS2_PLACEMENT_3D('',#1853,#1535,#1536);
#1232=AXIS2_PLACEMENT_3D('',#1856,#1539,#1540);
#1233=AXIS2_PLACEMENT_3D('',#1857,#1541,#1542);
#1234=DIRECTION('axis',(0.,0.,1.));
#1235=DIRECTION('refdir',(1.,0.,0.));
#1236=DIRECTION('center_axis',(0.,-1.,0.));
#1237=DIRECTION('ref_axis',(1.,0.,0.));
#1238=DIRECTION('',(-1.,0.,0.));
#1239=DIRECTION('',(0.,0.,1.));
#1240=DIRECTION('',(1.,0.,0.));
#1241=DIRECTION('',(0.,0.,1.));
#1242=DIRECTION('center_axis',(-1.,0.,0.));
#1243=DIRECTION('ref_axis',(0.,-1.,0.));
#1244=DIRECTION('',(0.,1.,0.));
#1245=DIRECTION('',(0.,-1.,0.));
#1246=DIRECTION('',(0.,0.,1.));
#1247=DIRECTION('',(0.,1.,0.));
#1248=DIRECTION('',(0.,0.,-1.));
#1249=DIRECTION('center_axis',(0.,-1.,0.));
#1250=DIRECTION('ref_axis',(1.,0.,0.));
#1251=DIRECTION('',(1.,0.,0.));
#1252=DIRECTION('',(0.,0.,1.));
#1253=DIRECTION('',(-1.,0.,0.));
#1254=DIRECTION('',(0.,0.,1.));
#1255=DIRECTION('center_axis',(0.,1.,0.));
#1256=DIRECTION('ref_axis',(-1.,0.,0.));
#1257=DIRECTION('',(1.,0.,0.));
#1258=DIRECTION('',(-1.,0.,0.));
#1259=DIRECTION('',(0.,0.,1.));
#1260=DIRECTION('center_axis',(-1.,0.,0.));
#1261=DIRECTION('ref_axis',(0.,-1.,0.));
#1262=DIRECTION('',(0.,1.,0.));
#1263=DIRECTION('',(0.,0.,1.));
#1264=DIRECTION('',(0.,1.,0.));
#1265=DIRECTION('',(0.,0.,1.));
#1266=DIRECTION('center_axis',(0.,1.,0.));
#1267=DIRECTION('ref_axis',(-1.,0.,0.));
#1268=DIRECTION('',(1.,0.,0.));
#1269=DIRECTION('',(1.,0.,0.));
#1270=DIRECTION('',(0.,0.,1.));
#1271=DIRECTION('center_axis',(0.,-1.,0.));
#1272=DIRECTION('ref_axis',(0.,0.,-1.));
#1273=DIRECTION('',(1.,0.,0.));
#1274=DIRECTION('',(0.,0.,-1.));
#1275=DIRECTION('',(-1.,0.,0.));
#1276=DIRECTION('center_axis',(0.,0.,-1.));
#1277=DIRECTION('ref_axis',(0.,1.,0.));
#1278=DIRECTION('',(0.,-1.,0.));
#1279=DIRECTION('',(1.,0.,0.));
#1280=DIRECTION('',(0.,1.,0.));
#1281=DIRECTION('center_axis',(-1.,0.,0.));
#1282=DIRECTION('ref_axis',(0.,-1.,0.));
#1283=DIRECTION('',(0.,0.,1.));
#1284=DIRECTION('',(0.,-1.,0.));
#1285=DIRECTION('',(0.,0.,1.));
#1286=DIRECTION('',(0.,1.,0.));
#1287=DIRECTION('',(0.,0.,1.));
#1288=DIRECTION('',(0.,-1.,0.));
#1289=DIRECTION('center_axis',(-1.,0.,0.));
#1290=DIRECTION('ref_axis',(0.,-1.,0.));
#1291=DIRECTION('',(0.,1.,0.));
#1292=DIRECTION('',(0.,-1.,0.));
#1293=DIRECTION('center_axis',(0.,-1.,0.));
#1294=DIRECTION('ref_axis',(1.,0.,0.));
#1295=DIRECTION('',(1.,0.,0.));
#1296=DIRECTION('center_axis',(1.,0.,0.));
#1297=DIRECTION('ref_axis',(0.,1.,0.));
#1298=DIRECTION('',(0.,-1.,0.));
#1299=DIRECTION('center_axis',(0.,0.,1.));
#1300=DIRECTION('ref_axis',(-1.,0.,0.));
#1301=DIRECTION('',(1.,0.,0.));
#1302=DIRECTION('',(0.,1.,0.));
#1303=DIRECTION('',(-1.,0.,0.));
#1304=DIRECTION('center_axis',(0.,0.,-1.));
#1305=DIRECTION('ref_axis',(-1.,0.,0.));
#1306=DIRECTION('center_axis',(0.,0.,-1.));
#1307=DIRECTION('ref_axis',(-1.,0.,0.));
#1308=DIRECTION('center_axis',(0.,0.,-1.));
#1309=DIRECTION('ref_axis',(-1.,0.,0.));
#1310=DIRECTION('center_axis',(0.,0.,-1.));
#1311=DIRECTION('ref_axis',(-1.,0.,0.));
#1312=DIRECTION('center_axis',(0.,0.,1.));
#1313=DIRECTION('ref_axis',(1.,0.,0.));
#1314=DIRECTION('',(0.,0.,-1.));
#1315=DIRECTION('center_axis',(0.,0.,-1.));
#1316=DIRECTION('ref_axis',(1.,0.,0.));
#1317=DIRECTION('center_axis',(0.,0.,1.));
#1318=DIRECTION('ref_axis',(1.,0.,0.));
#1319=DIRECTION('',(0.,0.,-1.));
#1320=DIRECTION('center_axis',(0.,0.,-1.));
#1321=DIRECTION('ref_axis',(1.,0.,0.));
#1322=DIRECTION('center_axis',(0.,0.,1.));
#1323=DIRECTION('ref_axis',(1.,0.,0.));
#1324=DIRECTION('',(0.,0.,-1.));
#1325=DIRECTION('center_axis',(0.,0.,-1.));
#1326=DIRECTION('ref_axis',(1.,0.,0.));
#1327=DIRECTION('center_axis',(0.,0.,1.));
#1328=DIRECTION('ref_axis',(1.,0.,0.));
#1329=DIRECTION('',(0.,0.,-1.));
#1330=DIRECTION('center_axis',(0.,0.,-1.));
#1331=DIRECTION('ref_axis',(1.,0.,0.));
#1332=DIRECTION('center_axis',(0.,1.,0.));
#1333=DIRECTION('ref_axis',(-1.,0.,0.));
#1334=DIRECTION('',(1.,0.,0.));
#1335=DIRECTION('',(0.,0.,1.));
#1336=DIRECTION('center_axis',(1.,0.,0.));
#1337=DIRECTION('ref_axis',(0.,1.,0.));
#1338=DIRECTION('',(0.,-1.,0.));
#1339=DIRECTION('',(0.,0.,1.));
#1340=DIRECTION('center_axis',(0.,-1.,0.));
#1341=DIRECTION('ref_axis',(1.,0.,0.));
#1342=DIRECTION('',(-1.,0.,0.));
#1343=DIRECTION('center_axis',(0.,0.,1.));
#1344=DIRECTION('ref_axis',(1.,0.,0.));
#1345=DIRECTION('center_axis',(0.,0.,1.));
#1346=DIRECTION('ref_axis',(1.,0.,0.));
#1347=DIRECTION('center_axis',(0.,-1.,0.));
#1348=DIRECTION('ref_axis',(1.,0.,0.));
#1349=DIRECTION('',(-1.,0.,0.));
#1350=DIRECTION('',(0.,0.,1.));
#1351=DIRECTION('',(1.,0.,0.));
#1352=DIRECTION('',(0.,0.,1.));
#1353=DIRECTION('center_axis',(0.,0.,1.));
#1354=DIRECTION('ref_axis',(-1.,0.,0.));
#1355=DIRECTION('center_axis',(0.,0.,-1.));
#1356=DIRECTION('ref_axis',(-1.,0.,0.));
#1357=DIRECTION('center_axis',(0.,0.,1.));
#1358=DIRECTION('ref_axis',(-1.,0.,0.));
#1359=DIRECTION('',(0.,0.,1.));
#1360=DIRECTION('center_axis',(-1.,0.,0.));
#1361=DIRECTION('ref_axis',(0.,-1.,0.));
#1362=DIRECTION('',(0.,1.,0.));
#1363=DIRECTION('',(0.,-1.,0.));
#1364=DIRECTION('',(0.,0.,1.));
#1365=DIRECTION('center_axis',(0.,0.,1.));
#1366=DIRECTION('ref_axis',(0.,1.,0.));
#1367=DIRECTION('center_axis',(0.,0.,-1.));
#1368=DIRECTION('ref_axis',(0.,1.,0.));
#1369=DIRECTION('center_axis',(0.,0.,1.));
#1370=DIRECTION('ref_axis',(0.,1.,0.));
#1371=DIRECTION('',(0.,0.,1.));
#1372=DIRECTION('center_axis',(0.,1.,0.));
#1373=DIRECTION('ref_axis',(-1.,0.,0.));
#1374=DIRECTION('',(1.,0.,0.));
#1375=DIRECTION('',(-1.,0.,0.));
#1376=DIRECTION('',(0.,0.,1.));
#1377=DIRECTION('center_axis',(0.,0.,1.));
#1378=DIRECTION('ref_axis',(1.,0.,0.));
#1379=DIRECTION('center_axis',(0.,0.,-1.));
#1380=DIRECTION('ref_axis',(1.,0.,0.));
#1381=DIRECTION('center_axis',(0.,0.,1.));
#1382=DIRECTION('ref_axis',(1.,0.,0.));
#1383=DIRECTION('',(0.,0.,1.));
#1384=DIRECTION('center_axis',(1.,0.,0.));
#1385=DIRECTION('ref_axis',(0.,1.,0.));
#1386=DIRECTION('',(0.,-1.,0.));
#1387=DIRECTION('',(0.,1.,0.));
#1388=DIRECTION('',(0.,0.,1.));
#1389=DIRECTION('center_axis',(0.,0.,1.));
#1390=DIRECTION('ref_axis',(0.,-1.,0.));
#1391=DIRECTION('center_axis',(0.,0.,-1.));
#1392=DIRECTION('ref_axis',(0.,-1.,0.));
#1393=DIRECTION('center_axis',(0.,0.,1.));
#1394=DIRECTION('ref_axis',(0.,-1.,0.));
#1395=DIRECTION('center_axis',(0.,-1.,0.));
#1396=DIRECTION('ref_axis',(1.,0.,0.));
#1397=DIRECTION('',(-1.,0.,0.));
#1398=DIRECTION('',(0.,0.,1.));
#1399=DIRECTION('',(1.,0.,0.));
#1400=DIRECTION('',(0.,0.,1.));
#1401=DIRECTION('center_axis',(0.,0.,1.));
#1402=DIRECTION('ref_axis',(-1.,0.,0.));
#1403=DIRECTION('center_axis',(0.,0.,-1.));
#1404=DIRECTION('ref_axis',(-1.,0.,0.));
#1405=DIRECTION('center_axis',(0.,0.,1.));
#1406=DIRECTION('ref_axis',(-1.,0.,0.));
#1407=DIRECTION('',(0.,0.,1.));
#1408=DIRECTION('center_axis',(-1.,0.,0.));
#1409=DIRECTION('ref_axis',(0.,-1.,0.));
#1410=DIRECTION('',(0.,1.,0.));
#1411=DIRECTION('',(0.,-1.,0.));
#1412=DIRECTION('',(0.,0.,1.));
#1413=DIRECTION('center_axis',(0.,0.,1.));
#1414=DIRECTION('ref_axis',(0.,1.,0.));
#1415=DIRECTION('center_axis',(0.,0.,-1.));
#1416=DIRECTION('ref_axis',(0.,1.,0.));
#1417=DIRECTION('center_axis',(0.,0.,1.));
#1418=DIRECTION('ref_axis',(0.,1.,0.));
#1419=DIRECTION('',(0.,0.,1.));
#1420=DIRECTION('center_axis',(0.,1.,0.));
#1421=DIRECTION('ref_axis',(-1.,0.,0.));
#1422=DIRECTION('',(1.,0.,0.));
#1423=DIRECTION('',(-1.,0.,0.));
#1424=DIRECTION('',(0.,0.,1.));
#1425=DIRECTION('center_axis',(0.,0.,1.));
#1426=DIRECTION('ref_axis',(1.,0.,0.));
#1427=DIRECTION('center_axis',(0.,0.,-1.));
#1428=DIRECTION('ref_axis',(1.,0.,0.));
#1429=DIRECTION('center_axis',(0.,0.,1.));
#1430=DIRECTION('ref_axis',(1.,0.,0.));
#1431=DIRECTION('',(0.,0.,1.));
#1432=DIRECTION('center_axis',(1.,0.,0.));
#1433=DIRECTION('ref_axis',(0.,1.,0.));
#1434=DIRECTION('',(0.,-1.,0.));
#1435=DIRECTION('',(0.,1.,0.));
#1436=DIRECTION('',(0.,0.,1.));
#1437=DIRECTION('center_axis',(0.,0.,1.));
#1438=DIRECTION('ref_axis',(0.,-1.,0.));
#1439=DIRECTION('center_axis',(0.,0.,-1.));
#1440=DIRECTION('ref_axis',(0.,-1.,0.));
#1441=DIRECTION('center_axis',(0.,0.,1.));
#1442=DIRECTION('ref_axis',(0.,-1.,0.));
#1443=DIRECTION('center_axis',(0.,-1.,0.));
#1444=DIRECTION('ref_axis',(1.,0.,0.));
#1445=DIRECTION('',(-1.,0.,0.));
#1446=DIRECTION('',(0.,0.,1.));
#1447=DIRECTION('',(1.,0.,0.));
#1448=DIRECTION('',(0.,0.,1.));
#1449=DIRECTION('center_axis',(0.,0.,1.));
#1450=DIRECTION('ref_axis',(-1.,0.,0.));
#1451=DIRECTION('center_axis',(0.,0.,-1.));
#1452=DIRECTION('ref_axis',(-1.,0.,0.));
#1453=DIRECTION('center_axis',(0.,0.,1.));
#1454=DIRECTION('ref_axis',(-1.,0.,0.));
#1455=DIRECTION('',(0.,0.,1.));
#1456=DIRECTION('center_axis',(-1.,0.,0.));
#1457=DIRECTION('ref_axis',(0.,-1.,0.));
#1458=DIRECTION('',(0.,1.,0.));
#1459=DIRECTION('',(0.,-1.,0.));
#1460=DIRECTION('',(0.,0.,1.));
#1461=DIRECTION('center_axis',(0.,0.,1.));
#1462=DIRECTION('ref_axis',(0.,1.,0.));
#1463=DIRECTION('center_axis',(0.,0.,-1.));
#1464=DIRECTION('ref_axis',(0.,1.,0.));
#1465=DIRECTION('center_axis',(0.,0.,1.));
#1466=DIRECTION('ref_axis',(0.,1.,0.));
#1467=DIRECTION('',(0.,0.,1.));
#1468=DIRECTION('center_axis',(0.,1.,0.));
#1469=DIRECTION('ref_axis',(-1.,0.,0.));
#1470=DIRECTION('',(1.,0.,0.));
#1471=DIRECTION('',(-1.,0.,0.));
#1472=DIRECTION('',(0.,0.,1.));
#1473=DIRECTION('center_axis',(0.,0.,1.));
#1474=DIRECTION('ref_axis',(1.,0.,0.));
#1475=DIRECTION('center_axis',(0.,0.,-1.));
#1476=DIRECTION('ref_axis',(1.,0.,0.));
#1477=DIRECTION('center_axis',(0.,0.,1.));
#1478=DIRECTION('ref_axis',(1.,0.,0.));
#1479=DIRECTION('',(0.,0.,1.));
#1480=DIRECTION('center_axis',(1.,0.,0.));
#1481=DIRECTION('ref_axis',(0.,1.,0.));
#1482=DIRECTION('',(0.,-1.,0.));
#1483=DIRECTION('',(0.,1.,0.));
#1484=DIRECTION('',(0.,0.,1.));
#1485=DIRECTION('center_axis',(0.,0.,1.));
#1486=DIRECTION('ref_axis',(0.,-1.,0.));
#1487=DIRECTION('center_axis',(0.,0.,-1.));
#1488=DIRECTION('ref_axis',(0.,-1.,0.));
#1489=DIRECTION('center_axis',(0.,0.,1.));
#1490=DIRECTION('ref_axis',(0.,-1.,0.));
#1491=DIRECTION('center_axis',(0.,0.,1.));
#1492=DIRECTION('ref_axis',(1.,0.,0.));
#1493=DIRECTION('center_axis',(0.,0.,-1.));
#1494=DIRECTION('ref_axis',(1.,0.,0.));
#1495=DIRECTION('',(0.,0.,-1.));
#1496=DIRECTION('center_axis',(0.,0.,-1.));
#1497=DIRECTION('ref_axis',(1.,0.,0.));
#1498=DIRECTION('center_axis',(0.,0.,1.));
#1499=DIRECTION('ref_axis',(1.,0.,0.));
#1500=DIRECTION('center_axis',(0.,0.,-1.));
#1501=DIRECTION('ref_axis',(1.,0.,0.));
#1502=DIRECTION('',(0.,0.,-1.));
#1503=DIRECTION('center_axis',(0.,0.,-1.));
#1504=DIRECTION('ref_axis',(1.,0.,0.));
#1505=DIRECTION('center_axis',(0.,0.,1.));
#1506=DIRECTION('ref_axis',(1.,0.,0.));
#1507=DIRECTION('center_axis',(0.,0.,-1.));
#1508=DIRECTION('ref_axis',(1.,0.,0.));
#1509=DIRECTION('',(0.,0.,-1.));
#1510=DIRECTION('center_axis',(0.,0.,-1.));
#1511=DIRECTION('ref_axis',(1.,0.,0.));
#1512=DIRECTION('center_axis',(0.,0.,1.));
#1513=DIRECTION('ref_axis',(1.,0.,0.));
#1514=DIRECTION('center_axis',(0.,0.,-1.));
#1515=DIRECTION('ref_axis',(1.,0.,0.));
#1516=DIRECTION('',(0.,0.,-1.));
#1517=DIRECTION('center_axis',(0.,0.,-1.));
#1518=DIRECTION('ref_axis',(1.,0.,0.));
#1519=DIRECTION('center_axis',(-1.,0.,0.));
#1520=DIRECTION('ref_axis',(0.,-1.,0.));
#1521=DIRECTION('',(0.,1.,0.));
#1522=DIRECTION('',(0.,0.,1.));
#1523=DIRECTION('',(0.,-1.,0.));
#1524=DIRECTION('',(0.,0.,1.));
#1525=DIRECTION('center_axis',(0.,1.,0.));
#1526=DIRECTION('ref_axis',(-1.,0.,0.));
#1527=DIRECTION('',(1.,0.,0.));
#1528=DIRECTION('',(-1.,0.,0.));
#1529=DIRECTION('',(0.,0.,1.));
#1530=DIRECTION('center_axis',(1.,0.,0.));
#1531=DIRECTION('ref_axis',(0.,1.,0.));
#1532=DIRECTION('',(0.,-1.,0.));
#1533=DIRECTION('',(0.,1.,0.));
#1534=DIRECTION('',(0.,0.,1.));
#1535=DIRECTION('center_axis',(0.,-1.,0.));
#1536=DIRECTION('ref_axis',(1.,0.,0.));
#1537=DIRECTION('',(-1.,0.,0.));
#1538=DIRECTION('',(1.,0.,0.));
#1539=DIRECTION('center_axis',(0.,0.,1.));
#1540=DIRECTION('ref_axis',(1.,0.,0.));
#1541=DIRECTION('center_axis',(0.,0.,1.));
#1542=DIRECTION('ref_axis',(1.,0.,0.));
#1543=CARTESIAN_POINT('',(0.,0.,0.));
#1544=CARTESIAN_POINT('Origin',(-0.350000000000001,-20.5,3.));
#1545=CARTESIAN_POINT('',(57.4,-20.5,13.));
#1546=CARTESIAN_POINT('',(-0.350000000000001,-20.5,13.));
#1547=CARTESIAN_POINT('',(14.175,-20.5,13.));
#1548=CARTESIAN_POINT('',(57.4,-20.5,3.));
#1549=CARTESIAN_POINT('',(57.4,-20.5,3.));
#1550=CARTESIAN_POINT('',(-0.350000000000001,-20.5,3.));
#1551=CARTESIAN_POINT('',(-0.350000000000001,-20.5,3.));
#1552=CARTESIAN_POINT('',(-0.350000000000001,-20.5,3.));
#1553=CARTESIAN_POINT('Origin',(-0.350000000000001,-19.,3.));
#1554=CARTESIAN_POINT('',(-0.350000000000001,-20.0000002980232,13.));
#1555=CARTESIAN_POINT('',(-0.350000000000001,-14.25,13.));
#1556=CARTESIAN_POINT('',(-0.350000000000001,-19.,3.));
#1557=CARTESIAN_POINT('',(-0.350000000000001,-19.,3.));
#1558=CARTESIAN_POINT('',(-0.350000000000001,-19.,6.00000008940697));
#1559=CARTESIAN_POINT('',(-0.350000000000001,-19.,3.));
#1560=CARTESIAN_POINT('',(-0.350000000000001,-20.0000002980232,6.00000008940697));
#1561=CARTESIAN_POINT('',(-0.350000000000001,-19.5000001490116,6.00000008940697));
#1562=CARTESIAN_POINT('',(-0.350000000000001,-20.0000002980232,8.00000009685755));
#1563=CARTESIAN_POINT('Origin',(-0.350000000000001,0.,3.));
#1564=CARTESIAN_POINT('',(-0.350000000000001,0.,6.00000008940697));
#1565=CARTESIAN_POINT('',(0.,0.,6.00000008940697));
#1566=CARTESIAN_POINT('',(-10.,0.,6.00000008940697));
#1567=CARTESIAN_POINT('',(0.,0.,3.));
#1568=CARTESIAN_POINT('',(0.,0.,3.));
#1569=CARTESIAN_POINT('',(-0.350000000000001,0.,3.));
#1570=CARTESIAN_POINT('',(57.4,0.,3.));
#1571=CARTESIAN_POINT('',(-0.350000000000001,0.,3.));
#1572=CARTESIAN_POINT('Origin',(0.,-19.,3.));
#1573=CARTESIAN_POINT('',(0.,-19.,6.00000008940697));
#1574=CARTESIAN_POINT('',(-5.,-19.,6.00000008940697));
#1575=CARTESIAN_POINT('',(0.,-19.,3.));
#1576=CARTESIAN_POINT('',(57.4,-19.,3.));
#1577=CARTESIAN_POINT('',(0.,-19.,3.));
#1578=CARTESIAN_POINT('Origin',(-0.350000000000001,1.75,3.));
#1579=CARTESIAN_POINT('',(-0.350000000000001,0.,13.));
#1580=CARTESIAN_POINT('',(-0.350000000000001,1.75,13.));
#1581=CARTESIAN_POINT('',(-0.350000000000001,-3.875,13.));
#1582=CARTESIAN_POINT('',(-0.350000000000001,0.,3.));
#1583=CARTESIAN_POINT('',(-0.350000000000001,1.75,3.));
#1584=CARTESIAN_POINT('',(-0.350000000000001,0.,3.));
#1585=CARTESIAN_POINT('',(-0.350000000000001,1.75,3.));
#1586=CARTESIAN_POINT('Origin',(57.4,1.75,3.));
#1587=CARTESIAN_POINT('',(57.4,1.75,13.));
#1588=CARTESIAN_POINT('',(43.05,1.75,13.));
#1589=CARTESIAN_POINT('',(57.4,1.75,3.));
#1590=CARTESIAN_POINT('',(-0.350000000000001,1.75,3.));
#1591=CARTESIAN_POINT('',(57.4,1.75,3.));
#1592=CARTESIAN_POINT('Origin',(-10.,-20.0000002980232,13.0000001937151));
#1593=CARTESIAN_POINT('',(-10.,-20.0000002980232,6.00000008940697));
#1594=CARTESIAN_POINT('',(-10.,-20.0000002980232,6.00000008940697));
#1595=CARTESIAN_POINT('',(-10.,-20.0000002980232,13.0000001937151));
#1596=CARTESIAN_POINT('',(-10.,-20.0000002980232,6.50000009685755));
#1597=CARTESIAN_POINT('',(9.35,-20.0000002980232,13.));
#1598=CARTESIAN_POINT('Origin',(-10.,-20.0000002980232,6.00000008940697));
#1599=CARTESIAN_POINT('',(0.,-19.5000001490116,6.00000008940697));
#1600=CARTESIAN_POINT('',(-10.,0.,6.00000008940697));
#1601=CARTESIAN_POINT('',(-10.,0.,6.00000008940697));
#1602=CARTESIAN_POINT('',(-10.,-5.00000014901161,6.00000008940697));
#1603=CARTESIAN_POINT('Origin',(-10.,10.,0.));
#1604=CARTESIAN_POINT('',(-10.,0.,13.0000001937151));
#1605=CARTESIAN_POINT('',(-10.,0.,3.00000004470348));
#1606=CARTESIAN_POINT('',(-10.,10.,13.));
#1607=CARTESIAN_POINT('',(-10.,10.,13.));
#1608=CARTESIAN_POINT('',(-10.,10.,0.));
#1609=CARTESIAN_POINT('',(-10.,10.,0.));
#1610=CARTESIAN_POINT('',(-10.,-29.,0.));
#1611=CARTESIAN_POINT('',(-10.,-29.,0.));
#1612=CARTESIAN_POINT('',(-10.,-29.,13.));
#1613=CARTESIAN_POINT('',(-10.,-29.,0.));
#1614=CARTESIAN_POINT('',(-10.,10.,13.));
#1615=CARTESIAN_POINT('Origin',(57.4,0.,3.));
#1616=CARTESIAN_POINT('',(57.4,-4.75,3.));
#1617=CARTESIAN_POINT('',(57.4,-15.,13.));
#1618=CARTESIAN_POINT('Origin',(0.,0.,3.));
#1619=CARTESIAN_POINT('',(9.35,0.,13.));
#1620=CARTESIAN_POINT('Origin',(0.,-19.,3.));
#1621=CARTESIAN_POINT('',(0.,-14.25,3.));
#1622=CARTESIAN_POINT('Origin',(28.7,-9.5,13.));
#1623=CARTESIAN_POINT('',(67.4,-29.,13.));
#1624=CARTESIAN_POINT('',(-10.,-29.,13.));
#1625=CARTESIAN_POINT('',(67.4,10.,13.));
#1626=CARTESIAN_POINT('',(67.4,-29.,13.));
#1627=CARTESIAN_POINT('',(67.4,10.,13.));
#1628=CARTESIAN_POINT('',(60.95,5.,13.));
#1629=CARTESIAN_POINT('Origin',(62.4,5.,13.));
#1630=CARTESIAN_POINT('',(60.95,-24.,13.));
#1631=CARTESIAN_POINT('Origin',(62.4,-24.,13.));
#1632=CARTESIAN_POINT('',(-6.45,-24.,13.));
#1633=CARTESIAN_POINT('Origin',(-5.,-24.,13.));
#1634=CARTESIAN_POINT('',(-6.45,5.,13.));
#1635=CARTESIAN_POINT('Origin',(-5.,5.,13.));
#1636=CARTESIAN_POINT('Origin',(62.4,-24.,0.));
#1637=CARTESIAN_POINT('',(60.95,-24.,0.));
#1638=CARTESIAN_POINT('',(60.95,-24.,0.));
#1639=CARTESIAN_POINT('Origin',(62.4,-24.,0.));
#1640=CARTESIAN_POINT('Origin',(62.4,5.,0.));
#1641=CARTESIAN_POINT('',(60.95,5.,0.));
#1642=CARTESIAN_POINT('',(60.95,5.,0.));
#1643=CARTESIAN_POINT('Origin',(62.4,5.,0.));
#1644=CARTESIAN_POINT('Origin',(-5.,-24.,0.));
#1645=CARTESIAN_POINT('',(-6.45,-24.,0.));
#1646=CARTESIAN_POINT('',(-6.45,-24.,0.));
#1647=CARTESIAN_POINT('Origin',(-5.,-24.,0.));
#1648=CARTESIAN_POINT('Origin',(-5.,5.,0.));
#1649=CARTESIAN_POINT('',(-6.45,5.,0.));
#1650=CARTESIAN_POINT('',(-6.45,5.,0.));
#1651=CARTESIAN_POINT('Origin',(-5.,5.,0.));
#1652=CARTESIAN_POINT('Origin',(67.4,10.,0.));
#1653=CARTESIAN_POINT('',(67.4,10.,0.));
#1654=CARTESIAN_POINT('',(-10.,10.,0.));
#1655=CARTESIAN_POINT('',(67.4,10.,0.));
#1656=CARTESIAN_POINT('Origin',(67.4,-29.,0.));
#1657=CARTESIAN_POINT('',(67.4,-29.,0.));
#1658=CARTESIAN_POINT('',(67.4,10.,0.));
#1659=CARTESIAN_POINT('',(67.4,-29.,0.));
#1660=CARTESIAN_POINT('Origin',(-10.,-29.,0.));
#1661=CARTESIAN_POINT('',(67.4,-29.,0.));
#1662=CARTESIAN_POINT('Origin',(28.7,-9.5,3.));
#1663=CARTESIAN_POINT('Origin',(28.7,-9.5,0.));
#1664=CARTESIAN_POINT('Origin',(3.025,53.475,-10.));
#1665=CARTESIAN_POINT('',(16.025,53.475,3.));
#1666=CARTESIAN_POINT('',(3.025,53.475,3.));
#1667=CARTESIAN_POINT('',(15.8624998658895,53.475,3.));
#1668=CARTESIAN_POINT('',(16.025,53.475,0.));
#1669=CARTESIAN_POINT('',(16.025,53.475,-10.));
#1670=CARTESIAN_POINT('',(3.025,53.475,0.));
#1671=CARTESIAN_POINT('',(15.8624998658895,53.475,0.));
#1672=CARTESIAN_POINT('',(3.025,53.475,-10.));
#1673=CARTESIAN_POINT('Origin',(3.025,53.975,-10.));
#1674=CARTESIAN_POINT('',(2.525,53.975,3.));
#1675=CARTESIAN_POINT('Origin',(3.025,53.975,3.));
#1676=CARTESIAN_POINT('',(2.525,53.975,0.));
#1677=CARTESIAN_POINT('Origin',(3.025,53.975,0.));
#1678=CARTESIAN_POINT('',(2.525,53.975,-10.));
#1679=CARTESIAN_POINT('Origin',(2.525,66.975,-10.));
#1680=CARTESIAN_POINT('',(2.525,66.975,3.));
#1681=CARTESIAN_POINT('',(2.525,63.7375001639128,3.));
#1682=CARTESIAN_POINT('',(2.525,66.975,0.));
#1683=CARTESIAN_POINT('',(2.525,63.7375001639128,0.));
#1684=CARTESIAN_POINT('',(2.525,66.975,-10.));
#1685=CARTESIAN_POINT('Origin',(3.025,66.975,-10.));
#1686=CARTESIAN_POINT('',(3.025,67.475,3.));
#1687=CARTESIAN_POINT('Origin',(3.025,66.975,3.));
#1688=CARTESIAN_POINT('',(3.025,67.475,0.));
#1689=CARTESIAN_POINT('Origin',(3.025,66.975,0.));
#1690=CARTESIAN_POINT('',(3.025,67.475,-10.));
#1691=CARTESIAN_POINT('Origin',(16.025,67.475,-10.));
#1692=CARTESIAN_POINT('',(16.025,67.475,3.));
#1693=CARTESIAN_POINT('',(22.3624998658895,67.475,3.));
#1694=CARTESIAN_POINT('',(16.025,67.475,0.));
#1695=CARTESIAN_POINT('',(22.3624998658895,67.475,0.));
#1696=CARTESIAN_POINT('',(16.025,67.475,-10.));
#1697=CARTESIAN_POINT('Origin',(16.025,66.975,-10.));
#1698=CARTESIAN_POINT('',(16.525,66.975,3.));
#1699=CARTESIAN_POINT('Origin',(16.025,66.975,3.));
#1700=CARTESIAN_POINT('',(16.525,66.975,0.));
#1701=CARTESIAN_POINT('Origin',(16.025,66.975,0.));
#1702=CARTESIAN_POINT('',(16.525,66.975,-10.));
#1703=CARTESIAN_POINT('Origin',(16.525,53.975,-10.));
#1704=CARTESIAN_POINT('',(16.525,53.975,3.));
#1705=CARTESIAN_POINT('',(16.525,57.2375001639128,3.));
#1706=CARTESIAN_POINT('',(16.525,53.975,0.));
#1707=CARTESIAN_POINT('',(16.525,57.2375001639128,0.));
#1708=CARTESIAN_POINT('',(16.525,53.975,-10.));
#1709=CARTESIAN_POINT('Origin',(16.025,53.975,-10.));
#1710=CARTESIAN_POINT('Origin',(16.025,53.975,3.));
#1711=CARTESIAN_POINT('Origin',(16.025,53.975,0.));
#1712=CARTESIAN_POINT('Origin',(22.075,53.475,-10.));
#1713=CARTESIAN_POINT('',(35.075,53.475,3.));
#1714=CARTESIAN_POINT('',(22.075,53.475,3.));
#1715=CARTESIAN_POINT('',(25.3874998658895,53.475,3.));
#1716=CARTESIAN_POINT('',(35.075,53.475,0.));
#1717=CARTESIAN_POINT('',(35.075,53.475,-10.));
#1718=CARTESIAN_POINT('',(22.075,53.475,0.));
#1719=CARTESIAN_POINT('',(25.3874998658895,53.475,0.));
#1720=CARTESIAN_POINT('',(22.075,53.475,-10.));
#1721=CARTESIAN_POINT('Origin',(22.075,53.975,-10.));
#1722=CARTESIAN_POINT('',(21.575,53.975,3.));
#1723=CARTESIAN_POINT('Origin',(22.075,53.975,3.));
#1724=CARTESIAN_POINT('',(21.575,53.975,0.));
#1725=CARTESIAN_POINT('Origin',(22.075,53.975,0.));
#1726=CARTESIAN_POINT('',(21.575,53.975,-10.));
#1727=CARTESIAN_POINT('Origin',(21.575,66.975,-10.));
#1728=CARTESIAN_POINT('',(21.575,66.975,3.));
#1729=CARTESIAN_POINT('',(21.575,63.7375001639128,3.));
#1730=CARTESIAN_POINT('',(21.575,66.975,0.));
#1731=CARTESIAN_POINT('',(21.575,63.7375001639128,0.));
#1732=CARTESIAN_POINT('',(21.575,66.975,-10.));
#1733=CARTESIAN_POINT('Origin',(22.075,66.975,-10.));
#1734=CARTESIAN_POINT('',(22.075,67.475,3.));
#1735=CARTESIAN_POINT('Origin',(22.075,66.975,3.));
#1736=CARTESIAN_POINT('',(22.075,67.475,0.));
#1737=CARTESIAN_POINT('Origin',(22.075,66.975,0.));
#1738=CARTESIAN_POINT('',(22.075,67.475,-10.));
#1739=CARTESIAN_POINT('Origin',(35.075,67.475,-10.));
#1740=CARTESIAN_POINT('',(35.075,67.475,3.));
#1741=CARTESIAN_POINT('',(31.8874998658895,67.475,3.));
#1742=CARTESIAN_POINT('',(35.075,67.475,0.));
#1743=CARTESIAN_POINT('',(31.8874998658895,67.475,0.));
#1744=CARTESIAN_POINT('',(35.075,67.475,-10.));
#1745=CARTESIAN_POINT('Origin',(35.075,66.975,-10.));
#1746=CARTESIAN_POINT('',(35.575,66.975,3.));
#1747=CARTESIAN_POINT('Origin',(35.075,66.975,3.));
#1748=CARTESIAN_POINT('',(35.575,66.975,0.));
#1749=CARTESIAN_POINT('Origin',(35.075,66.975,0.));
#1750=CARTESIAN_POINT('',(35.575,66.975,-10.));
#1751=CARTESIAN_POINT('Origin',(35.575,53.975,-10.));
#1752=CARTESIAN_POINT('',(35.575,53.975,3.));
#1753=CARTESIAN_POINT('',(35.575,57.2375001639128,3.));
#1754=CARTESIAN_POINT('',(35.575,53.975,0.));
#1755=CARTESIAN_POINT('',(35.575,57.2375001639128,0.));
#1756=CARTESIAN_POINT('',(35.575,53.975,-10.));
#1757=CARTESIAN_POINT('Origin',(35.075,53.975,-10.));
#1758=CARTESIAN_POINT('Origin',(35.075,53.975,3.));
#1759=CARTESIAN_POINT('Origin',(35.075,53.975,0.));
#1760=CARTESIAN_POINT('Origin',(41.125,53.475,-10.));
#1761=CARTESIAN_POINT('',(54.125,53.475,3.));
#1762=CARTESIAN_POINT('',(41.125,53.475,3.));
#1763=CARTESIAN_POINT('',(34.9124998658895,53.475,3.));
#1764=CARTESIAN_POINT('',(54.125,53.475,0.));
#1765=CARTESIAN_POINT('',(54.125,53.475,-10.));
#1766=CARTESIAN_POINT('',(41.125,53.475,0.));
#1767=CARTESIAN_POINT('',(34.9124998658895,53.475,0.));
#1768=CARTESIAN_POINT('',(41.125,53.475,-10.));
#1769=CARTESIAN_POINT('Origin',(41.125,53.975,-10.));
#1770=CARTESIAN_POINT('',(40.625,53.975,3.));
#1771=CARTESIAN_POINT('Origin',(41.125,53.975,3.));
#1772=CARTESIAN_POINT('',(40.625,53.975,0.));
#1773=CARTESIAN_POINT('Origin',(41.125,53.975,0.));
#1774=CARTESIAN_POINT('',(40.625,53.975,-10.));
#1775=CARTESIAN_POINT('Origin',(40.625,66.975,-10.));
#1776=CARTESIAN_POINT('',(40.625,66.975,3.));
#1777=CARTESIAN_POINT('',(40.625,63.7375001639128,3.));
#1778=CARTESIAN_POINT('',(40.625,66.975,0.));
#1779=CARTESIAN_POINT('',(40.625,63.7375001639128,0.));
#1780=CARTESIAN_POINT('',(40.625,66.975,-10.));
#1781=CARTESIAN_POINT('Origin',(41.125,66.975,-10.));
#1782=CARTESIAN_POINT('',(41.125,67.475,3.));
#1783=CARTESIAN_POINT('Origin',(41.125,66.975,3.));
#1784=CARTESIAN_POINT('',(41.125,67.475,0.));
#1785=CARTESIAN_POINT('Origin',(41.125,66.975,0.));
#1786=CARTESIAN_POINT('',(41.125,67.475,-10.));
#1787=CARTESIAN_POINT('Origin',(54.125,67.475,-10.));
#1788=CARTESIAN_POINT('',(54.125,67.475,3.));
#1789=CARTESIAN_POINT('',(41.4124998658895,67.475,3.));
#1790=CARTESIAN_POINT('',(54.125,67.475,0.));
#1791=CARTESIAN_POINT('',(41.4124998658895,67.475,0.));
#1792=CARTESIAN_POINT('',(54.125,67.475,-10.));
#1793=CARTESIAN_POINT('Origin',(54.125,66.975,-10.));
#1794=CARTESIAN_POINT('',(54.625,66.975,3.));
#1795=CARTESIAN_POINT('Origin',(54.125,66.975,3.));
#1796=CARTESIAN_POINT('',(54.625,66.975,0.));
#1797=CARTESIAN_POINT('Origin',(54.125,66.975,0.));
#1798=CARTESIAN_POINT('',(54.625,66.975,-10.));
#1799=CARTESIAN_POINT('Origin',(54.625,53.975,-10.));
#1800=CARTESIAN_POINT('',(54.625,53.975,3.));
#1801=CARTESIAN_POINT('',(54.625,57.2375001639128,3.));
#1802=CARTESIAN_POINT('',(54.625,53.975,0.));
#1803=CARTESIAN_POINT('',(54.625,57.2375001639128,0.));
#1804=CARTESIAN_POINT('',(54.625,53.975,-10.));
#1805=CARTESIAN_POINT('Origin',(54.125,53.975,-10.));
#1806=CARTESIAN_POINT('Origin',(54.125,53.975,3.));
#1807=CARTESIAN_POINT('Origin',(54.125,53.975,0.));
#1808=CARTESIAN_POINT('Origin',(-5.00000026822093,75.0000003278255,0.));
#1809=CARTESIAN_POINT('',(-6.45000026822094,75.0000003278255,3.));
#1810=CARTESIAN_POINT('Origin',(-5.00000026822093,75.0000003278255,3.));
#1811=CARTESIAN_POINT('',(-6.45000026822094,75.0000003278255,0.));
#1812=CARTESIAN_POINT('',(-6.45000026822094,75.0000003278255,0.));
#1813=CARTESIAN_POINT('Origin',(-5.00000026822093,75.0000003278255,0.));
#1814=CARTESIAN_POINT('Origin',(-5.00000026822093,46.0000003278255,0.));
#1815=CARTESIAN_POINT('',(-6.45000026822093,46.0000003278255,3.));
#1816=CARTESIAN_POINT('Origin',(-5.00000026822093,46.0000003278255,3.));
#1817=CARTESIAN_POINT('',(-6.45000026822093,46.0000003278255,0.));
#1818=CARTESIAN_POINT('',(-6.45000026822093,46.0000003278255,0.));
#1819=CARTESIAN_POINT('Origin',(-5.00000026822093,46.0000003278255,0.));
#1820=CARTESIAN_POINT('Origin',(62.3999996572733,75.0000003278255,0.));
#1821=CARTESIAN_POINT('',(60.9499996572733,75.0000003278255,3.));
#1822=CARTESIAN_POINT('Origin',(62.3999996572733,75.0000003278255,3.));
#1823=CARTESIAN_POINT('',(60.9499996572733,75.0000003278255,0.));
#1824=CARTESIAN_POINT('',(60.9499996572733,75.0000003278255,0.));
#1825=CARTESIAN_POINT('Origin',(62.3999996572733,75.0000003278255,0.));
#1826=CARTESIAN_POINT('Origin',(62.3999996572791,46.0000003278255,0.));
#1827=CARTESIAN_POINT('',(60.9499996572791,46.0000003278255,3.));
#1828=CARTESIAN_POINT('Origin',(62.3999996572791,46.0000003278255,3.));
#1829=CARTESIAN_POINT('',(60.9499996572791,46.0000003278255,0.));
#1830=CARTESIAN_POINT('',(60.9499996572791,46.0000003278255,0.));
#1831=CARTESIAN_POINT('Origin',(62.3999996572791,46.0000003278255,0.));
#1832=CARTESIAN_POINT('Origin',(-10.0000002682209,80.0000003278255,0.));
#1833=CARTESIAN_POINT('',(-10.0000002682209,41.0000003278255,0.));
#1834=CARTESIAN_POINT('',(-10.0000002682209,80.0000003278255,0.));
#1835=CARTESIAN_POINT('',(-10.0000002682209,41.0000003278255,0.));
#1836=CARTESIAN_POINT('',(-10.0000002682209,41.0000003278255,3.));
#1837=CARTESIAN_POINT('',(-10.0000002682209,41.0000003278255,0.));
#1838=CARTESIAN_POINT('',(-10.0000002682209,80.0000003278255,3.));
#1839=CARTESIAN_POINT('',(-10.0000002682209,41.0000003278255,3.));
#1840=CARTESIAN_POINT('',(-10.0000002682209,80.0000003278255,0.));
#1841=CARTESIAN_POINT('Origin',(67.3999997317791,80.0000003278255,0.));
#1842=CARTESIAN_POINT('',(67.3999997317791,80.0000003278255,0.));
#1843=CARTESIAN_POINT('',(-10.0000002682209,80.0000003278255,0.));
#1844=CARTESIAN_POINT('',(67.3999997317791,80.0000003278255,3.));
#1845=CARTESIAN_POINT('',(-10.0000002682209,80.0000003278255,3.));
#1846=CARTESIAN_POINT('',(67.3999997317791,80.0000003278255,0.));
#1847=CARTESIAN_POINT('Origin',(67.3999997317791,41.0000003278255,0.));
#1848=CARTESIAN_POINT('',(67.3999997317791,41.0000003278255,0.));
#1849=CARTESIAN_POINT('',(67.3999997317791,80.0000003278255,0.));
#1850=CARTESIAN_POINT('',(67.3999997317791,41.0000003278255,3.));
#1851=CARTESIAN_POINT('',(67.3999997317791,80.0000003278255,3.));
#1852=CARTESIAN_POINT('',(67.3999997317791,41.0000003278255,0.));
#1853=CARTESIAN_POINT('Origin',(-10.0000002682209,41.0000003278255,0.));
#1854=CARTESIAN_POINT('',(67.3999997317791,41.0000003278255,0.));
#1855=CARTESIAN_POINT('',(67.3999997317791,41.0000003278255,3.));
#1856=CARTESIAN_POINT('Origin',(28.6999997317791,60.5000003278255,3.));
#1857=CARTESIAN_POINT('Origin',(28.6999997317791,60.5000003278255,0.));
#1858=UNCERTAINTY_MEASURE_WITH_UNIT(LENGTH_MEASURE(0.01),#1862,
'DISTANCE_ACCURACY_VALUE',
'Maximum model space distance between geometric entities at asserted c
onnectivities');
#1859=UNCERTAINTY_MEASURE_WITH_UNIT(LENGTH_MEASURE(0.01),#1862,
'DISTANCE_ACCURACY_VALUE',
'Maximum model space distance between geometric entities at asserted c
onnectivities');
#1860=(
GEOMETRIC_REPRESENTATION_CONTEXT(3)
GLOBAL_UNCERTAINTY_ASSIGNED_CONTEXT((#1858))
GLOBAL_UNIT_ASSIGNED_CONTEXT((#1862,#1864,#1865))
REPRESENTATION_CONTEXT('','3D')
);
#1861=(
GEOMETRIC_REPRESENTATION_CONTEXT(3)
GLOBAL_UNCERTAINTY_ASSIGNED_CONTEXT((#1859))
GLOBAL_UNIT_ASSIGNED_CONTEXT((#1862,#1864,#1865))
REPRESENTATION_CONTEXT('','3D')
);
#1862=(
LENGTH_UNIT()
NAMED_UNIT(*)
SI_UNIT(.MILLI.,.METRE.)
);
#1863=(
LENGTH_UNIT()
NAMED_UNIT(*)
SI_UNIT($,.METRE.)
);
#1864=(
NAMED_UNIT(*)
PLANE_ANGLE_UNIT()
SI_UNIT($,.RADIAN.)
);
#1865=(
NAMED_UNIT(*)
SI_UNIT($,.STERADIAN.)
SOLID_ANGLE_UNIT()
);
#1866=SHAPE_DEFINITION_REPRESENTATION(#1867,#1868);
#1867=PRODUCT_DEFINITION_SHAPE('',$,#1870);
#1868=SHAPE_REPRESENTATION('',(#1137),#1860);
#1869=PRODUCT_DEFINITION_CONTEXT('part definition',#1874,'design');
#1870=PRODUCT_DEFINITION('2026-08-24-15-38-56-768','scapadv2',#1871,#1869);
#1871=PRODUCT_DEFINITION_FORMATION('',$,#1876);
#1872=PRODUCT_RELATED_PRODUCT_CATEGORY('scapadv2','scapadv2',(#1876));
#1873=APPLICATION_PROTOCOL_DEFINITION('international standard',
'automotive_design',2009,#1874);
#1874=APPLICATION_CONTEXT(
'Core Data for Automotive Mechanical Design Process');
#1875=PRODUCT_CONTEXT('part definition',#1874,'mechanical');
#1876=PRODUCT('2026-08-24-15-38-56-768','scapadv2',$,(#1875));
#1877=PRESENTATION_STYLE_ASSIGNMENT((#1878));
#1878=SURFACE_STYLE_USAGE(.BOTH.,#1879);
#1879=SURFACE_SIDE_STYLE('',(#1880));
#1880=SURFACE_STYLE_FILL_AREA(#1881);
#1881=FILL_AREA_STYLE('Steel - Satin',(#1882));
#1882=FILL_AREA_STYLE_COLOUR('Steel - Satin',#1883);
#1883=COLOUR_RGB('Steel - Satin',0.627450980392157,0.627450980392157,0.627450980392157);
ENDSEC;
END-ISO-10303-21;
