%TF.GenerationSoftware,KiCad,Pcbnew,10.0.5*%
%TF.CreationDate,2026-08-24T18:41:24+03:00*%
%TF.ProjectId,schematic+pcb_files,73636865-6d61-4746-9963-2b7063625f66,rev?*%
%TF.SameCoordinates,Original*%
%TF.FileFunction,Legend,Top*%
%TF.FilePolarity,Positive*%
%FSLAX46Y46*%
G04 Gerber Fmt 4.6, Leading zero omitted, Abs format (unit mm)*
G04 Created by KiCad (PCBNEW 10.0.5) date 2026-08-24 18:41:24*
%MOMM*%
%LPD*%
G01*
G04 APERTURE LIST*
%ADD10C,0.100000*%
%ADD11C,0.120000*%
%ADD12C,0.127000*%
%ADD13C,0.254000*%
%ADD14C,0.025400*%
G04 APERTURE END LIST*
D10*
X121652455Y-85365752D02*
X121652455Y-86175276D01*
X121652455Y-86175276D02*
X121604836Y-86270514D01*
X121604836Y-86270514D02*
X121557217Y-86318133D01*
X121557217Y-86318133D02*
X121461979Y-86365752D01*
X121461979Y-86365752D02*
X121319122Y-86365752D01*
X121319122Y-86365752D02*
X121223884Y-86318133D01*
X121652455Y-85984800D02*
X121557217Y-86032419D01*
X121557217Y-86032419D02*
X121366741Y-86032419D01*
X121366741Y-86032419D02*
X121271503Y-85984800D01*
X121271503Y-85984800D02*
X121223884Y-85937180D01*
X121223884Y-85937180D02*
X121176265Y-85841942D01*
X121176265Y-85841942D02*
X121176265Y-85556228D01*
X121176265Y-85556228D02*
X121223884Y-85460990D01*
X121223884Y-85460990D02*
X121271503Y-85413371D01*
X121271503Y-85413371D02*
X121366741Y-85365752D01*
X121366741Y-85365752D02*
X121557217Y-85365752D01*
X121557217Y-85365752D02*
X121652455Y-85413371D01*
X122128646Y-85365752D02*
X122128646Y-86032419D01*
X122128646Y-85460990D02*
X122176265Y-85413371D01*
X122176265Y-85413371D02*
X122271503Y-85365752D01*
X122271503Y-85365752D02*
X122414360Y-85365752D01*
X122414360Y-85365752D02*
X122509598Y-85413371D01*
X122509598Y-85413371D02*
X122557217Y-85508609D01*
X122557217Y-85508609D02*
X122557217Y-86032419D01*
X123461979Y-86032419D02*
X123461979Y-85032419D01*
X123461979Y-85984800D02*
X123366741Y-86032419D01*
X123366741Y-86032419D02*
X123176265Y-86032419D01*
X123176265Y-86032419D02*
X123081027Y-85984800D01*
X123081027Y-85984800D02*
X123033408Y-85937180D01*
X123033408Y-85937180D02*
X122985789Y-85841942D01*
X122985789Y-85841942D02*
X122985789Y-85556228D01*
X122985789Y-85556228D02*
X123033408Y-85460990D01*
X123033408Y-85460990D02*
X123081027Y-85413371D01*
X123081027Y-85413371D02*
X123176265Y-85365752D01*
X123176265Y-85365752D02*
X123366741Y-85365752D01*
X123366741Y-85365752D02*
X123461979Y-85413371D01*
%TO.C,SW1*%
D11*
X117265000Y-45015000D02*
X131235000Y-45015000D01*
X117265000Y-58985000D02*
X117265000Y-45015000D01*
X131235000Y-45015000D02*
X131235000Y-58985000D01*
X131235000Y-58985000D02*
X117265000Y-58985000D01*
%TO.C,SW2*%
X117265000Y-64015000D02*
X131235000Y-64015000D01*
X117265000Y-77985000D02*
X117265000Y-64015000D01*
X131235000Y-64015000D02*
X131235000Y-77985000D01*
X131235000Y-77985000D02*
X117265000Y-77985000D01*
%TO.C,U1*%
D12*
X115350000Y-44660000D02*
X115350000Y-61660000D01*
X117350000Y-63660000D02*
X131150000Y-63660000D01*
X119750000Y-41235970D02*
X128750000Y-41235970D01*
X119750000Y-48589270D02*
X119750000Y-41235970D01*
X128750000Y-41235970D02*
X128750000Y-48589270D01*
X128750000Y-48589270D02*
X119750000Y-48589270D01*
X131150000Y-42660910D02*
X117350000Y-42660910D01*
X133150000Y-61660000D02*
X133150000Y-44660000D01*
D11*
X115350000Y-44660000D02*
G75*
G02*
X117350000Y-42660000I2044612J-44612D01*
G01*
X117350000Y-63660000D02*
G75*
G02*
X115350000Y-61660000I44857J2044857D01*
G01*
X131150000Y-42660000D02*
G75*
G02*
X133150000Y-44660000I-44610J-2044610D01*
G01*
X133150000Y-61660000D02*
G75*
G02*
X131150000Y-63660000I-2000000J0D01*
G01*
D13*
X113377000Y-44360000D02*
G75*
G02*
X113123000Y-44360000I-127000J0D01*
G01*
X113123000Y-44360000D02*
G75*
G02*
X113377000Y-44360000I127000J0D01*
G01*
D14*
X115362285Y-44598295D02*
X115365333Y-44549527D01*
X115369397Y-44500506D01*
X115362285Y-44598295D01*
X133139492Y-61681574D02*
X133137713Y-61730850D01*
X133134665Y-61779618D01*
X133130601Y-61828639D01*
X133125268Y-61877407D01*
X133118664Y-61926175D01*
X133111044Y-61974690D01*
X133102153Y-62022950D01*
X133092248Y-62070955D01*
X133139492Y-61681574D01*
%TO.C,SW3*%
D11*
X117185000Y-83015000D02*
X131155000Y-83015000D01*
X117185000Y-96985000D02*
X117185000Y-83015000D01*
X131155000Y-83015000D02*
X131155000Y-96985000D01*
X131155000Y-96985000D02*
X117185000Y-96985000D01*
%TD*%
M02*
