M48
; DRILL file KiCad 10.0.5 date 2026-08-24T18:41:28
; FORMAT={-:-/ absolute / metric / decimal}
; #@! TF.CreationDate,2026-08-24T18:41:28+03:00
; #@! TF.GenerationSoftware,Kicad,Pcbnew,10.0.5
; #@! TF.FileFunction,Plated,1,2,PTH
FMAT,2
METRIC
; #@! TA.AperFunction,Plated,PTH,ComponentDrill
T1C1.000
; #@! TA.AperFunction,Plated,PTH,ComponentDrill
T2C1.500
%
G90
G05
T1
X116.625Y-45.54
X116.625Y-48.08
X116.625Y-50.62
X116.625Y-53.16
X116.625Y-55.7
X116.625Y-58.24
X116.625Y-60.78
X131.875Y-45.54
X131.875Y-48.08
X131.875Y-50.62
X131.875Y-53.16
X131.875Y-55.7
X131.875Y-58.24
X131.875Y-60.78
T2
X120.36Y-87.46
X120.44Y-49.46
X120.44Y-68.46
X126.71Y-84.92
X126.79Y-46.92
X126.79Y-65.92
M30
